G04 EAGLE Gerber RS-274X export*
G75*
%MOMM*%
%FSLAX34Y34*%
%LPD*%
%INBottom Copper*%
%IPPOS*%
%AMOC8*
5,1,8,0,0,1.08239X$1,22.5*%
G01*
%ADD10C,1.508000*%
%ADD11C,4.216000*%
%ADD12C,0.756400*%
%ADD13C,0.609600*%
%ADD14C,0.152400*%

G36*
X787418Y10164D02*
X787418Y10164D01*
X787450Y10162D01*
X789340Y10286D01*
X789363Y10292D01*
X789487Y10311D01*
X793138Y11289D01*
X793152Y11295D01*
X793167Y11297D01*
X793321Y11365D01*
X796594Y13255D01*
X796606Y13265D01*
X796621Y13271D01*
X796752Y13376D01*
X799424Y16048D01*
X799434Y16061D01*
X799446Y16071D01*
X799545Y16206D01*
X801435Y19479D01*
X801441Y19494D01*
X801450Y19506D01*
X801511Y19662D01*
X802489Y23313D01*
X802492Y23337D01*
X802514Y23460D01*
X802638Y25350D01*
X802636Y25369D01*
X802639Y25400D01*
X802639Y787400D01*
X802636Y787418D01*
X802638Y787436D01*
X802637Y787441D01*
X802638Y787450D01*
X802514Y789340D01*
X802508Y789363D01*
X802489Y789487D01*
X801511Y793138D01*
X801505Y793152D01*
X801503Y793167D01*
X801435Y793321D01*
X799545Y796594D01*
X799535Y796606D01*
X799529Y796621D01*
X799424Y796752D01*
X796752Y799424D01*
X796739Y799434D01*
X796729Y799446D01*
X796594Y799545D01*
X793321Y801435D01*
X793306Y801441D01*
X793294Y801450D01*
X793158Y801503D01*
X793145Y801509D01*
X793142Y801509D01*
X793138Y801511D01*
X789487Y802489D01*
X789463Y802492D01*
X789340Y802514D01*
X787450Y802638D01*
X787431Y802636D01*
X787400Y802639D01*
X25400Y802639D01*
X25382Y802636D01*
X25350Y802638D01*
X23460Y802514D01*
X23437Y802508D01*
X23313Y802489D01*
X19662Y801511D01*
X19648Y801505D01*
X19633Y801503D01*
X19479Y801435D01*
X16206Y799545D01*
X16194Y799535D01*
X16179Y799529D01*
X16048Y799424D01*
X13376Y796752D01*
X13366Y796739D01*
X13354Y796729D01*
X13255Y796594D01*
X11365Y793321D01*
X11359Y793306D01*
X11350Y793294D01*
X11289Y793138D01*
X10311Y789487D01*
X10308Y789463D01*
X10286Y789340D01*
X10162Y787450D01*
X10164Y787431D01*
X10161Y787400D01*
X10161Y25400D01*
X10164Y25382D01*
X10162Y25350D01*
X10286Y23460D01*
X10292Y23437D01*
X10311Y23313D01*
X11289Y19662D01*
X11295Y19648D01*
X11297Y19633D01*
X11365Y19479D01*
X13255Y16206D01*
X13265Y16194D01*
X13271Y16179D01*
X13376Y16048D01*
X16048Y13376D01*
X16061Y13366D01*
X16071Y13354D01*
X16206Y13255D01*
X19479Y11365D01*
X19494Y11359D01*
X19506Y11350D01*
X19662Y11289D01*
X23313Y10311D01*
X23337Y10308D01*
X23460Y10286D01*
X25350Y10162D01*
X25369Y10164D01*
X25400Y10161D01*
X787400Y10161D01*
X787418Y10164D01*
G37*
%LPC*%
G36*
X302997Y64675D02*
X302997Y64675D01*
X299665Y66055D01*
X297115Y68605D01*
X295735Y71937D01*
X295735Y78232D01*
X295732Y78252D01*
X295734Y78271D01*
X295712Y78373D01*
X295696Y78475D01*
X295686Y78492D01*
X295682Y78512D01*
X295629Y78601D01*
X295580Y78692D01*
X295566Y78706D01*
X295556Y78723D01*
X295477Y78790D01*
X295402Y78862D01*
X295384Y78870D01*
X295369Y78883D01*
X295273Y78922D01*
X295179Y78965D01*
X295159Y78967D01*
X295141Y78975D01*
X294974Y78993D01*
X260264Y78993D01*
X257883Y81374D01*
X257809Y81427D01*
X257740Y81486D01*
X257710Y81499D01*
X257684Y81517D01*
X257597Y81544D01*
X257512Y81578D01*
X257471Y81583D01*
X257448Y81590D01*
X257416Y81589D01*
X257345Y81597D01*
X253389Y81597D01*
X250592Y84394D01*
X250518Y84447D01*
X250449Y84506D01*
X250419Y84519D01*
X250393Y84537D01*
X250306Y84564D01*
X250221Y84598D01*
X250180Y84603D01*
X250158Y84610D01*
X250125Y84609D01*
X250054Y84617D01*
X178942Y84617D01*
X113694Y149865D01*
X113694Y169092D01*
X113679Y169182D01*
X113672Y169273D01*
X113659Y169302D01*
X113654Y169334D01*
X113611Y169415D01*
X113576Y169499D01*
X113550Y169531D01*
X113539Y169552D01*
X113516Y169574D01*
X113471Y169630D01*
X110674Y172427D01*
X110674Y176495D01*
X110671Y176514D01*
X110673Y176534D01*
X110651Y176635D01*
X110634Y176737D01*
X110625Y176755D01*
X110620Y176774D01*
X110567Y176863D01*
X110519Y176955D01*
X110505Y176968D01*
X110494Y176985D01*
X110416Y177053D01*
X110341Y177124D01*
X110323Y177132D01*
X110307Y177145D01*
X110211Y177184D01*
X110118Y177228D01*
X110098Y177230D01*
X110079Y177237D01*
X109913Y177256D01*
X109048Y177256D01*
X109029Y177253D01*
X109009Y177255D01*
X108908Y177233D01*
X108806Y177216D01*
X108788Y177207D01*
X108769Y177202D01*
X108680Y177149D01*
X108588Y177101D01*
X108575Y177087D01*
X108558Y177076D01*
X108490Y176998D01*
X108419Y176923D01*
X108411Y176905D01*
X108398Y176889D01*
X108359Y176793D01*
X108315Y176700D01*
X108313Y176680D01*
X108306Y176661D01*
X108287Y176495D01*
X108287Y172427D01*
X105179Y169318D01*
X100782Y169318D01*
X97674Y172427D01*
X97674Y175533D01*
X97671Y175553D01*
X97673Y175573D01*
X97651Y175674D01*
X97634Y175776D01*
X97625Y175793D01*
X97620Y175813D01*
X97567Y175902D01*
X97519Y175993D01*
X97505Y176007D01*
X97494Y176024D01*
X97416Y176091D01*
X97341Y176163D01*
X97323Y176171D01*
X97307Y176184D01*
X97211Y176223D01*
X97118Y176266D01*
X97098Y176268D01*
X97079Y176276D01*
X96913Y176294D01*
X96068Y176294D01*
X96048Y176291D01*
X96028Y176293D01*
X95927Y176271D01*
X95825Y176255D01*
X95807Y176245D01*
X95788Y176241D01*
X95699Y176188D01*
X95608Y176139D01*
X95594Y176125D01*
X95577Y176115D01*
X95509Y176036D01*
X95438Y175961D01*
X95430Y175943D01*
X95417Y175928D01*
X95378Y175832D01*
X95335Y175738D01*
X95332Y175718D01*
X95325Y175700D01*
X95306Y175533D01*
X95306Y172427D01*
X92198Y169318D01*
X87802Y169318D01*
X84693Y172427D01*
X84693Y175777D01*
X84690Y175797D01*
X84692Y175816D01*
X84670Y175918D01*
X84653Y176020D01*
X84644Y176037D01*
X84640Y176057D01*
X84586Y176146D01*
X84538Y176237D01*
X84524Y176251D01*
X84513Y176268D01*
X84435Y176335D01*
X84360Y176406D01*
X84342Y176415D01*
X84327Y176428D01*
X84230Y176467D01*
X84137Y176510D01*
X84117Y176512D01*
X84098Y176520D01*
X83932Y176538D01*
X83912Y176535D01*
X83892Y176537D01*
X83791Y176515D01*
X83689Y176498D01*
X83671Y176489D01*
X83652Y176485D01*
X83563Y176432D01*
X83472Y176383D01*
X83458Y176369D01*
X83441Y176359D01*
X83373Y176280D01*
X83302Y176205D01*
X83294Y176187D01*
X83281Y176172D01*
X83242Y176076D01*
X83199Y175982D01*
X83196Y175962D01*
X83189Y175944D01*
X83170Y175777D01*
X83170Y172351D01*
X80062Y169242D01*
X75666Y169242D01*
X72557Y172351D01*
X72557Y175777D01*
X72554Y175797D01*
X72556Y175816D01*
X72534Y175918D01*
X72517Y176020D01*
X72508Y176037D01*
X72504Y176057D01*
X72450Y176146D01*
X72402Y176237D01*
X72388Y176251D01*
X72377Y176268D01*
X72299Y176335D01*
X72224Y176406D01*
X72206Y176415D01*
X72191Y176428D01*
X72094Y176467D01*
X72001Y176510D01*
X71981Y176512D01*
X71962Y176520D01*
X71796Y176538D01*
X69568Y176538D01*
X69548Y176535D01*
X69529Y176537D01*
X69427Y176515D01*
X69325Y176498D01*
X69308Y176489D01*
X69288Y176485D01*
X69199Y176432D01*
X69108Y176383D01*
X69094Y176369D01*
X69077Y176359D01*
X69010Y176280D01*
X68938Y176205D01*
X68930Y176187D01*
X68917Y176172D01*
X68878Y176076D01*
X68835Y175982D01*
X68833Y175962D01*
X68825Y175944D01*
X68807Y175777D01*
X68807Y172427D01*
X65698Y169318D01*
X61302Y169318D01*
X58193Y172427D01*
X58193Y176382D01*
X58179Y176473D01*
X58171Y176563D01*
X58159Y176593D01*
X58154Y176625D01*
X58111Y176706D01*
X58075Y176790D01*
X58049Y176822D01*
X58038Y176843D01*
X58015Y176865D01*
X57970Y176921D01*
X54863Y180028D01*
X54863Y705667D01*
X54849Y705757D01*
X54841Y705848D01*
X54829Y705877D01*
X54824Y705909D01*
X54781Y705990D01*
X54745Y706074D01*
X54719Y706106D01*
X54708Y706127D01*
X54685Y706149D01*
X54640Y706205D01*
X51843Y709002D01*
X51843Y713398D01*
X54952Y716507D01*
X59348Y716507D01*
X62457Y713398D01*
X62457Y709002D01*
X59660Y706205D01*
X59607Y706131D01*
X59547Y706061D01*
X59535Y706031D01*
X59516Y706005D01*
X59489Y705918D01*
X59455Y705833D01*
X59451Y705792D01*
X59444Y705770D01*
X59445Y705738D01*
X59437Y705667D01*
X59437Y182238D01*
X59451Y182147D01*
X59459Y182057D01*
X59471Y182027D01*
X59476Y181995D01*
X59519Y181914D01*
X59555Y181830D01*
X59581Y181798D01*
X59592Y181777D01*
X59615Y181755D01*
X59660Y181699D01*
X61204Y180155D01*
X61278Y180102D01*
X61348Y180042D01*
X61378Y180030D01*
X61404Y180011D01*
X61491Y179984D01*
X61576Y179950D01*
X61617Y179946D01*
X61639Y179939D01*
X61671Y179940D01*
X61743Y179932D01*
X64652Y179932D01*
X64672Y179935D01*
X64691Y179933D01*
X64793Y179955D01*
X64895Y179971D01*
X64912Y179981D01*
X64932Y179985D01*
X65021Y180038D01*
X65112Y180087D01*
X65126Y180101D01*
X65143Y180111D01*
X65210Y180190D01*
X65281Y180265D01*
X65290Y180283D01*
X65303Y180298D01*
X65342Y180394D01*
X65385Y180488D01*
X65387Y180508D01*
X65395Y180526D01*
X65413Y180693D01*
X65413Y183602D01*
X65398Y183693D01*
X65391Y183783D01*
X65379Y183813D01*
X65373Y183845D01*
X65331Y183926D01*
X65295Y184010D01*
X65269Y184042D01*
X65258Y184063D01*
X65235Y184085D01*
X65190Y184141D01*
X62519Y186812D01*
X62519Y638992D01*
X62504Y639082D01*
X62497Y639173D01*
X62484Y639202D01*
X62479Y639234D01*
X62436Y639315D01*
X62401Y639399D01*
X62375Y639431D01*
X62364Y639452D01*
X62341Y639474D01*
X62296Y639530D01*
X61086Y640739D01*
X61086Y645136D01*
X64195Y648244D01*
X68591Y648244D01*
X71700Y645136D01*
X71700Y640739D01*
X68591Y637631D01*
X67853Y637631D01*
X67834Y637628D01*
X67814Y637630D01*
X67713Y637608D01*
X67611Y637591D01*
X67593Y637582D01*
X67574Y637577D01*
X67485Y637524D01*
X67393Y637476D01*
X67380Y637462D01*
X67363Y637451D01*
X67295Y637373D01*
X67224Y637298D01*
X67216Y637280D01*
X67203Y637264D01*
X67164Y637168D01*
X67120Y637075D01*
X67118Y637055D01*
X67111Y637036D01*
X67092Y636870D01*
X67092Y189022D01*
X67093Y189015D01*
X67094Y189013D01*
X67107Y188932D01*
X67114Y188841D01*
X67127Y188811D01*
X67132Y188779D01*
X67175Y188698D01*
X67210Y188615D01*
X67236Y188582D01*
X67247Y188562D01*
X67270Y188540D01*
X67315Y188484D01*
X68424Y187375D01*
X68498Y187322D01*
X68568Y187262D01*
X68598Y187250D01*
X68624Y187231D01*
X68711Y187204D01*
X68796Y187170D01*
X68837Y187166D01*
X68859Y187159D01*
X68891Y187160D01*
X68962Y187152D01*
X69413Y187152D01*
X69433Y187155D01*
X69452Y187153D01*
X69554Y187175D01*
X69656Y187191D01*
X69673Y187201D01*
X69693Y187205D01*
X69782Y187258D01*
X69873Y187306D01*
X69887Y187321D01*
X69904Y187331D01*
X69971Y187410D01*
X70043Y187485D01*
X70051Y187503D01*
X70064Y187518D01*
X70103Y187614D01*
X70146Y187708D01*
X70148Y187728D01*
X70156Y187746D01*
X70174Y187913D01*
X70174Y568386D01*
X70160Y568476D01*
X70152Y568567D01*
X70140Y568596D01*
X70135Y568628D01*
X70092Y568709D01*
X70056Y568793D01*
X70030Y568825D01*
X70019Y568846D01*
X69996Y568868D01*
X69951Y568924D01*
X68742Y570133D01*
X68742Y574530D01*
X71850Y577638D01*
X76247Y577638D01*
X79355Y574530D01*
X79355Y570133D01*
X76247Y567025D01*
X75509Y567025D01*
X75489Y567022D01*
X75470Y567024D01*
X75368Y567002D01*
X75266Y566985D01*
X75249Y566976D01*
X75229Y566971D01*
X75140Y566918D01*
X75049Y566870D01*
X75035Y566856D01*
X75018Y566845D01*
X74951Y566767D01*
X74879Y566692D01*
X74871Y566674D01*
X74858Y566658D01*
X74819Y566562D01*
X74776Y566469D01*
X74774Y566449D01*
X74766Y566430D01*
X74748Y566264D01*
X74748Y189948D01*
X74762Y189858D01*
X74770Y189767D01*
X74782Y189737D01*
X74787Y189705D01*
X74830Y189625D01*
X74866Y189541D01*
X74892Y189508D01*
X74903Y189488D01*
X74926Y189466D01*
X74971Y189410D01*
X76530Y187850D01*
X76588Y187808D01*
X76640Y187759D01*
X76688Y187737D01*
X76730Y187707D01*
X76798Y187685D01*
X76864Y187655D01*
X76915Y187649D01*
X76965Y187634D01*
X77037Y187636D01*
X77108Y187628D01*
X77159Y187639D01*
X77211Y187641D01*
X77278Y187665D01*
X77348Y187680D01*
X77393Y187707D01*
X77442Y187725D01*
X77498Y187770D01*
X77559Y187807D01*
X77593Y187846D01*
X77634Y187879D01*
X77673Y187939D01*
X77719Y187993D01*
X77739Y188042D01*
X77767Y188086D01*
X77784Y188155D01*
X77811Y188222D01*
X77819Y188293D01*
X77827Y188324D01*
X77825Y188347D01*
X77830Y188388D01*
X77830Y502467D01*
X77815Y502557D01*
X77808Y502648D01*
X77795Y502677D01*
X77790Y502709D01*
X77747Y502790D01*
X77712Y502874D01*
X77686Y502906D01*
X77675Y502927D01*
X77652Y502949D01*
X77607Y503005D01*
X76397Y504214D01*
X76397Y508611D01*
X79506Y511719D01*
X83902Y511719D01*
X87011Y508611D01*
X87011Y504214D01*
X83902Y501106D01*
X83164Y501106D01*
X83145Y501103D01*
X83125Y501105D01*
X83024Y501083D01*
X82922Y501066D01*
X82904Y501057D01*
X82885Y501052D01*
X82796Y500999D01*
X82704Y500951D01*
X82691Y500937D01*
X82674Y500926D01*
X82606Y500848D01*
X82535Y500773D01*
X82527Y500755D01*
X82514Y500739D01*
X82475Y500643D01*
X82431Y500550D01*
X82429Y500530D01*
X82422Y500511D01*
X82403Y500345D01*
X82403Y187998D01*
X82418Y187908D01*
X82425Y187817D01*
X82438Y187788D01*
X82443Y187756D01*
X82486Y187675D01*
X82521Y187591D01*
X82547Y187559D01*
X82558Y187538D01*
X82581Y187516D01*
X82626Y187460D01*
X82712Y187375D01*
X82786Y187322D01*
X82855Y187262D01*
X82885Y187250D01*
X82911Y187231D01*
X82998Y187204D01*
X83083Y187170D01*
X83124Y187166D01*
X83146Y187159D01*
X83179Y187160D01*
X83250Y187152D01*
X84798Y187152D01*
X84869Y187163D01*
X84941Y187165D01*
X84989Y187183D01*
X85041Y187191D01*
X85104Y187225D01*
X85172Y187250D01*
X85212Y187282D01*
X85258Y187306D01*
X85308Y187359D01*
X85364Y187403D01*
X85392Y187447D01*
X85427Y187485D01*
X85458Y187550D01*
X85497Y187610D01*
X85509Y187661D01*
X85531Y187708D01*
X85539Y187779D01*
X85557Y187849D01*
X85552Y187901D01*
X85558Y187952D01*
X85543Y188023D01*
X85537Y188094D01*
X85517Y188142D01*
X85506Y188193D01*
X85485Y188227D01*
X85485Y439121D01*
X85530Y439173D01*
X85542Y439203D01*
X85561Y439229D01*
X85588Y439316D01*
X85622Y439401D01*
X85626Y439442D01*
X85633Y439464D01*
X85632Y439496D01*
X85640Y439568D01*
X85640Y443523D01*
X88749Y446632D01*
X93145Y446632D01*
X96254Y443523D01*
X96254Y439127D01*
X93145Y436018D01*
X90820Y436018D01*
X90800Y436015D01*
X90781Y436017D01*
X90679Y435995D01*
X90577Y435979D01*
X90560Y435969D01*
X90540Y435965D01*
X90451Y435912D01*
X90360Y435863D01*
X90346Y435849D01*
X90329Y435839D01*
X90262Y435760D01*
X90190Y435685D01*
X90182Y435667D01*
X90169Y435652D01*
X90130Y435556D01*
X90087Y435462D01*
X90085Y435442D01*
X90077Y435424D01*
X90059Y435257D01*
X90059Y190512D01*
X90073Y190422D01*
X90081Y190331D01*
X90093Y190301D01*
X90098Y190269D01*
X90141Y190189D01*
X90177Y190105D01*
X90203Y190072D01*
X90214Y190052D01*
X90237Y190030D01*
X90282Y189974D01*
X91664Y188592D01*
X91722Y188550D01*
X91774Y188500D01*
X91821Y188478D01*
X91863Y188448D01*
X91932Y188427D01*
X91997Y188397D01*
X92049Y188391D01*
X92099Y188376D01*
X92170Y188378D01*
X92241Y188370D01*
X92292Y188381D01*
X92344Y188382D01*
X92412Y188407D01*
X92482Y188422D01*
X92527Y188449D01*
X92575Y188466D01*
X92631Y188511D01*
X92693Y188548D01*
X92727Y188588D01*
X92767Y188620D01*
X92806Y188680D01*
X92853Y188735D01*
X92872Y188783D01*
X92900Y188827D01*
X92918Y188897D01*
X92945Y188963D01*
X92953Y189034D01*
X92961Y189066D01*
X92959Y189089D01*
X92963Y189130D01*
X92963Y372446D01*
X93008Y372498D01*
X93020Y372528D01*
X93039Y372554D01*
X93066Y372641D01*
X93100Y372726D01*
X93104Y372767D01*
X93111Y372789D01*
X93110Y372821D01*
X93118Y372893D01*
X93118Y376848D01*
X96227Y379957D01*
X100623Y379957D01*
X103732Y376848D01*
X103732Y372452D01*
X100623Y369343D01*
X98298Y369343D01*
X98278Y369340D01*
X98259Y369342D01*
X98157Y369320D01*
X98055Y369304D01*
X98038Y369294D01*
X98018Y369290D01*
X97929Y369237D01*
X97838Y369188D01*
X97824Y369174D01*
X97807Y369164D01*
X97740Y369085D01*
X97668Y369010D01*
X97660Y368992D01*
X97647Y368977D01*
X97608Y368881D01*
X97565Y368787D01*
X97563Y368767D01*
X97555Y368749D01*
X97537Y368582D01*
X97537Y187669D01*
X97540Y187649D01*
X97538Y187630D01*
X97560Y187528D01*
X97576Y187426D01*
X97586Y187409D01*
X97590Y187389D01*
X97643Y187300D01*
X97692Y187209D01*
X97706Y187195D01*
X97716Y187178D01*
X97795Y187111D01*
X97870Y187040D01*
X97888Y187031D01*
X97903Y187018D01*
X97999Y186979D01*
X98005Y186977D01*
X98358Y186624D01*
X98416Y186582D01*
X98468Y186533D01*
X98515Y186511D01*
X98558Y186481D01*
X98626Y186459D01*
X98691Y186429D01*
X98743Y186424D01*
X98793Y186408D01*
X98864Y186410D01*
X98936Y186402D01*
X98986Y186413D01*
X99038Y186415D01*
X99106Y186439D01*
X99176Y186454D01*
X99221Y186481D01*
X99269Y186499D01*
X99325Y186544D01*
X99387Y186581D01*
X99421Y186620D01*
X99462Y186653D01*
X99500Y186713D01*
X99547Y186768D01*
X99566Y186816D01*
X99595Y186860D01*
X99612Y186929D01*
X99639Y186996D01*
X99647Y187067D01*
X99655Y187098D01*
X99653Y187121D01*
X99657Y187162D01*
X99657Y304990D01*
X99643Y305081D01*
X99635Y305171D01*
X99623Y305201D01*
X99618Y305233D01*
X99575Y305314D01*
X99539Y305398D01*
X99513Y305430D01*
X99503Y305451D01*
X99479Y305473D01*
X99434Y305529D01*
X99186Y305777D01*
X99186Y310173D01*
X102295Y313282D01*
X106691Y313282D01*
X109800Y310173D01*
X109800Y305777D01*
X106691Y302668D01*
X104992Y302668D01*
X104972Y302665D01*
X104953Y302667D01*
X104851Y302645D01*
X104749Y302629D01*
X104732Y302619D01*
X104712Y302615D01*
X104623Y302562D01*
X104532Y302513D01*
X104518Y302499D01*
X104501Y302489D01*
X104434Y302410D01*
X104363Y302335D01*
X104354Y302317D01*
X104341Y302302D01*
X104302Y302206D01*
X104259Y302112D01*
X104257Y302092D01*
X104249Y302074D01*
X104231Y301907D01*
X104231Y188124D01*
X104242Y188053D01*
X104244Y187981D01*
X104262Y187932D01*
X104271Y187881D01*
X104304Y187818D01*
X104329Y187750D01*
X104361Y187710D01*
X104386Y187664D01*
X104438Y187614D01*
X104482Y187558D01*
X104526Y187530D01*
X104564Y187494D01*
X104629Y187464D01*
X104689Y187425D01*
X104740Y187413D01*
X104787Y187391D01*
X104858Y187383D01*
X104928Y187365D01*
X104980Y187369D01*
X105032Y187364D01*
X105102Y187379D01*
X105173Y187384D01*
X105221Y187405D01*
X105272Y187416D01*
X105333Y187453D01*
X105399Y187481D01*
X105455Y187526D01*
X105483Y187542D01*
X105498Y187560D01*
X105530Y187586D01*
X105814Y187869D01*
X109101Y187869D01*
X109120Y187872D01*
X109140Y187870D01*
X109241Y187892D01*
X109343Y187909D01*
X109361Y187918D01*
X109380Y187923D01*
X109469Y187976D01*
X109561Y188024D01*
X109574Y188038D01*
X109591Y188049D01*
X109659Y188127D01*
X109730Y188202D01*
X109738Y188220D01*
X109751Y188236D01*
X109790Y188332D01*
X109834Y188425D01*
X109836Y188445D01*
X109843Y188464D01*
X109862Y188630D01*
X109862Y232592D01*
X109847Y232682D01*
X109840Y232773D01*
X109827Y232802D01*
X109822Y232834D01*
X109779Y232915D01*
X109744Y232999D01*
X109718Y233031D01*
X109707Y233052D01*
X109684Y233074D01*
X109639Y233130D01*
X106842Y235927D01*
X106842Y240323D01*
X109950Y243432D01*
X114347Y243432D01*
X117455Y240323D01*
X117455Y235927D01*
X114658Y233130D01*
X114605Y233056D01*
X114546Y232986D01*
X114533Y232956D01*
X114515Y232930D01*
X114488Y232843D01*
X114454Y232758D01*
X114449Y232717D01*
X114442Y232695D01*
X114443Y232663D01*
X114435Y232592D01*
X114435Y185752D01*
X113542Y184858D01*
X113489Y184784D01*
X113429Y184715D01*
X113417Y184685D01*
X113398Y184659D01*
X113371Y184572D01*
X113337Y184487D01*
X113333Y184446D01*
X113326Y184423D01*
X113327Y184391D01*
X113319Y184320D01*
X113319Y180693D01*
X113322Y180673D01*
X113320Y180654D01*
X113342Y180552D01*
X113359Y180450D01*
X113368Y180433D01*
X113372Y180413D01*
X113425Y180324D01*
X113474Y180233D01*
X113488Y180219D01*
X113498Y180202D01*
X113577Y180135D01*
X113652Y180063D01*
X113670Y180055D01*
X113685Y180042D01*
X113781Y180003D01*
X113875Y179960D01*
X113895Y179958D01*
X113913Y179950D01*
X114080Y179932D01*
X118179Y179932D01*
X121287Y176823D01*
X121287Y172427D01*
X118490Y169630D01*
X118437Y169556D01*
X118378Y169486D01*
X118365Y169456D01*
X118347Y169430D01*
X118320Y169343D01*
X118286Y169258D01*
X118281Y169217D01*
X118274Y169195D01*
X118275Y169163D01*
X118267Y169092D01*
X118267Y152075D01*
X118282Y151985D01*
X118289Y151894D01*
X118302Y151864D01*
X118307Y151832D01*
X118350Y151752D01*
X118385Y151668D01*
X118411Y151636D01*
X118422Y151615D01*
X118445Y151593D01*
X118490Y151537D01*
X180614Y89413D01*
X180688Y89360D01*
X180757Y89301D01*
X180787Y89288D01*
X180813Y89270D01*
X180900Y89243D01*
X180985Y89209D01*
X181026Y89204D01*
X181049Y89197D01*
X181081Y89198D01*
X181152Y89190D01*
X250054Y89190D01*
X250144Y89205D01*
X250235Y89212D01*
X250265Y89225D01*
X250297Y89230D01*
X250377Y89273D01*
X250461Y89308D01*
X250493Y89334D01*
X250514Y89345D01*
X250536Y89368D01*
X250592Y89413D01*
X253389Y92210D01*
X257786Y92210D01*
X260894Y89102D01*
X260894Y85146D01*
X260909Y85056D01*
X260916Y84965D01*
X260929Y84935D01*
X260934Y84903D01*
X260977Y84823D01*
X261012Y84739D01*
X261038Y84707D01*
X261049Y84686D01*
X261072Y84664D01*
X261117Y84608D01*
X261935Y83790D01*
X262009Y83737D01*
X262079Y83677D01*
X262109Y83665D01*
X262135Y83646D01*
X262222Y83619D01*
X262307Y83585D01*
X262348Y83581D01*
X262370Y83574D01*
X262402Y83575D01*
X262474Y83567D01*
X294974Y83567D01*
X294994Y83570D01*
X295013Y83568D01*
X295115Y83590D01*
X295217Y83606D01*
X295234Y83616D01*
X295254Y83620D01*
X295343Y83673D01*
X295434Y83722D01*
X295448Y83736D01*
X295465Y83746D01*
X295532Y83825D01*
X295604Y83900D01*
X295612Y83918D01*
X295625Y83933D01*
X295664Y84029D01*
X295707Y84123D01*
X295709Y84143D01*
X295717Y84161D01*
X295735Y84328D01*
X295735Y90623D01*
X297115Y93955D01*
X299665Y96505D01*
X302997Y97885D01*
X306603Y97885D01*
X309483Y96692D01*
X309578Y96670D01*
X309671Y96641D01*
X309697Y96642D01*
X309723Y96636D01*
X309819Y96645D01*
X309917Y96647D01*
X309941Y96656D01*
X309967Y96659D01*
X310056Y96698D01*
X310148Y96732D01*
X310168Y96748D01*
X310192Y96759D01*
X310264Y96825D01*
X310340Y96885D01*
X310354Y96907D01*
X310373Y96925D01*
X310420Y97011D01*
X310473Y97092D01*
X310479Y97118D01*
X310492Y97141D01*
X310509Y97237D01*
X310533Y97331D01*
X310531Y97357D01*
X310536Y97383D01*
X310521Y97479D01*
X310514Y97576D01*
X310504Y97600D01*
X310500Y97626D01*
X310456Y97713D01*
X310418Y97802D01*
X310397Y97828D01*
X310388Y97845D01*
X310365Y97868D01*
X310313Y97933D01*
X307568Y100678D01*
X307494Y100731D01*
X307425Y100790D01*
X307395Y100802D01*
X307369Y100821D01*
X307281Y100848D01*
X307197Y100882D01*
X307156Y100887D01*
X307133Y100894D01*
X307101Y100893D01*
X307030Y100901D01*
X261121Y100901D01*
X261031Y100886D01*
X260940Y100879D01*
X260910Y100866D01*
X260878Y100861D01*
X260798Y100818D01*
X260714Y100783D01*
X260682Y100757D01*
X260661Y100746D01*
X260639Y100723D01*
X260583Y100678D01*
X257786Y97881D01*
X253389Y97881D01*
X250592Y100678D01*
X250518Y100731D01*
X250449Y100790D01*
X250419Y100803D01*
X250393Y100821D01*
X250306Y100848D01*
X250221Y100882D01*
X250180Y100887D01*
X250158Y100894D01*
X250125Y100893D01*
X250054Y100901D01*
X203840Y100901D01*
X124533Y180208D01*
X124459Y180261D01*
X124390Y180320D01*
X124360Y180333D01*
X124334Y180351D01*
X124247Y180378D01*
X124162Y180412D01*
X124121Y180417D01*
X124098Y180424D01*
X124066Y180423D01*
X123995Y180431D01*
X120039Y180431D01*
X116931Y183539D01*
X116931Y187936D01*
X120039Y191044D01*
X124436Y191044D01*
X127544Y187936D01*
X127544Y183980D01*
X127559Y183890D01*
X127566Y183799D01*
X127579Y183769D01*
X127584Y183737D01*
X127627Y183657D01*
X127662Y183573D01*
X127688Y183541D01*
X127699Y183520D01*
X127722Y183498D01*
X127767Y183442D01*
X205512Y105697D01*
X205586Y105644D01*
X205655Y105585D01*
X205685Y105572D01*
X205711Y105554D01*
X205798Y105527D01*
X205883Y105493D01*
X205924Y105488D01*
X205947Y105481D01*
X205979Y105482D01*
X206050Y105474D01*
X250054Y105474D01*
X250144Y105489D01*
X250235Y105496D01*
X250265Y105509D01*
X250297Y105514D01*
X250377Y105557D01*
X250461Y105592D01*
X250493Y105618D01*
X250514Y105629D01*
X250536Y105652D01*
X250592Y105697D01*
X253389Y108494D01*
X257786Y108494D01*
X260583Y105697D01*
X260657Y105644D01*
X260726Y105585D01*
X260756Y105572D01*
X260782Y105554D01*
X260869Y105527D01*
X260954Y105493D01*
X260995Y105488D01*
X261017Y105481D01*
X261050Y105482D01*
X261121Y105474D01*
X309240Y105474D01*
X310802Y103912D01*
X321195Y93519D01*
X321233Y93492D01*
X321264Y93458D01*
X321332Y93420D01*
X321395Y93375D01*
X321439Y93362D01*
X321479Y93339D01*
X321556Y93326D01*
X321630Y93303D01*
X321676Y93304D01*
X321721Y93296D01*
X321798Y93307D01*
X321876Y93309D01*
X321919Y93325D01*
X321965Y93331D01*
X322034Y93367D01*
X322107Y93393D01*
X322143Y93422D01*
X322184Y93443D01*
X322238Y93499D01*
X322299Y93547D01*
X322324Y93586D01*
X322356Y93619D01*
X322422Y93738D01*
X322432Y93754D01*
X322433Y93759D01*
X322437Y93766D01*
X322515Y93955D01*
X325065Y96505D01*
X328397Y97885D01*
X332003Y97885D01*
X335335Y96505D01*
X337885Y93955D01*
X339265Y90623D01*
X339265Y71937D01*
X337885Y68605D01*
X335335Y66055D01*
X332003Y64675D01*
X328397Y64675D01*
X325065Y66055D01*
X322515Y68605D01*
X321135Y71937D01*
X321135Y86795D01*
X321121Y86886D01*
X321113Y86976D01*
X321101Y87006D01*
X321096Y87038D01*
X321053Y87119D01*
X321017Y87203D01*
X320991Y87235D01*
X320980Y87256D01*
X320957Y87278D01*
X320912Y87334D01*
X313913Y94333D01*
X313834Y94389D01*
X313759Y94452D01*
X313735Y94461D01*
X313714Y94476D01*
X313621Y94505D01*
X313530Y94540D01*
X313504Y94541D01*
X313479Y94549D01*
X313381Y94546D01*
X313284Y94550D01*
X313259Y94543D01*
X313233Y94542D01*
X313141Y94509D01*
X313048Y94482D01*
X313026Y94467D01*
X313002Y94458D01*
X312926Y94397D01*
X312846Y94341D01*
X312830Y94320D01*
X312810Y94304D01*
X312757Y94222D01*
X312699Y94144D01*
X312691Y94119D01*
X312677Y94097D01*
X312653Y94003D01*
X312623Y93910D01*
X312623Y93884D01*
X312617Y93859D01*
X312624Y93762D01*
X312625Y93664D01*
X312634Y93633D01*
X312636Y93613D01*
X312649Y93583D01*
X312672Y93503D01*
X313865Y90623D01*
X313865Y71937D01*
X312485Y68605D01*
X309935Y66055D01*
X306603Y64675D01*
X302997Y64675D01*
G37*
%LPD*%
%LPC*%
G36*
X506197Y64675D02*
X506197Y64675D01*
X502865Y66055D01*
X500315Y68605D01*
X498935Y71937D01*
X498935Y90623D01*
X500315Y93955D01*
X501034Y94673D01*
X501045Y94689D01*
X501061Y94702D01*
X501117Y94789D01*
X501177Y94873D01*
X501183Y94892D01*
X501194Y94909D01*
X501219Y95009D01*
X501249Y95108D01*
X501249Y95128D01*
X501254Y95147D01*
X501246Y95250D01*
X501243Y95354D01*
X501236Y95373D01*
X501235Y95392D01*
X501194Y95487D01*
X501159Y95585D01*
X501146Y95600D01*
X501138Y95619D01*
X501034Y95750D01*
X485275Y111508D01*
X485201Y111561D01*
X485131Y111621D01*
X485101Y111633D01*
X485075Y111652D01*
X484988Y111679D01*
X484903Y111713D01*
X484862Y111717D01*
X484840Y111724D01*
X484808Y111723D01*
X484737Y111731D01*
X250102Y111731D01*
X247200Y114633D01*
X122888Y238945D01*
X122814Y238998D01*
X122744Y239058D01*
X122714Y239070D01*
X122688Y239089D01*
X122601Y239116D01*
X122516Y239150D01*
X122475Y239154D01*
X122453Y239161D01*
X122421Y239160D01*
X122350Y239168D01*
X121627Y239168D01*
X118518Y242277D01*
X118518Y246673D01*
X119029Y247184D01*
X119082Y247258D01*
X119142Y247328D01*
X119154Y247358D01*
X119173Y247384D01*
X119200Y247471D01*
X119234Y247556D01*
X119238Y247597D01*
X119245Y247619D01*
X119244Y247651D01*
X119252Y247722D01*
X119252Y307903D01*
X119238Y307993D01*
X119230Y308084D01*
X119218Y308113D01*
X119213Y308145D01*
X119170Y308226D01*
X119134Y308310D01*
X119108Y308342D01*
X119097Y308363D01*
X119074Y308385D01*
X119029Y308441D01*
X118518Y308952D01*
X118518Y313348D01*
X119029Y313859D01*
X119082Y313933D01*
X119142Y314003D01*
X119154Y314033D01*
X119173Y314059D01*
X119200Y314146D01*
X119234Y314231D01*
X119238Y314272D01*
X119245Y314294D01*
X119244Y314326D01*
X119252Y314397D01*
X119252Y374578D01*
X119238Y374668D01*
X119230Y374759D01*
X119218Y374788D01*
X119213Y374820D01*
X119170Y374901D01*
X119134Y374985D01*
X119108Y375017D01*
X119097Y375038D01*
X119074Y375060D01*
X119029Y375116D01*
X118518Y375627D01*
X118518Y380023D01*
X119029Y380534D01*
X119082Y380608D01*
X119142Y380678D01*
X119154Y380708D01*
X119173Y380734D01*
X119200Y380821D01*
X119234Y380906D01*
X119238Y380947D01*
X119245Y380969D01*
X119244Y381001D01*
X119252Y381072D01*
X119252Y441253D01*
X119238Y441343D01*
X119230Y441434D01*
X119218Y441463D01*
X119213Y441495D01*
X119170Y441576D01*
X119134Y441660D01*
X119108Y441692D01*
X119097Y441713D01*
X119074Y441735D01*
X119029Y441791D01*
X118518Y442302D01*
X118518Y446698D01*
X119029Y447209D01*
X119082Y447283D01*
X119142Y447353D01*
X119154Y447383D01*
X119173Y447409D01*
X119200Y447496D01*
X119234Y447581D01*
X119238Y447622D01*
X119245Y447644D01*
X119244Y447676D01*
X119252Y447747D01*
X119252Y507928D01*
X119238Y508018D01*
X119230Y508109D01*
X119218Y508138D01*
X119213Y508170D01*
X119170Y508251D01*
X119134Y508335D01*
X119108Y508367D01*
X119097Y508388D01*
X119074Y508410D01*
X119029Y508466D01*
X118518Y508977D01*
X118518Y513373D01*
X119029Y513884D01*
X119082Y513958D01*
X119142Y514028D01*
X119154Y514058D01*
X119173Y514084D01*
X119200Y514171D01*
X119234Y514256D01*
X119238Y514297D01*
X119245Y514319D01*
X119244Y514351D01*
X119252Y514422D01*
X119252Y574603D01*
X119238Y574693D01*
X119230Y574784D01*
X119218Y574813D01*
X119213Y574845D01*
X119170Y574926D01*
X119134Y575010D01*
X119108Y575042D01*
X119097Y575063D01*
X119074Y575085D01*
X119029Y575141D01*
X118518Y575652D01*
X118518Y580048D01*
X119029Y580559D01*
X119074Y580621D01*
X119121Y580670D01*
X119128Y580686D01*
X119142Y580703D01*
X119154Y580733D01*
X119173Y580759D01*
X119195Y580830D01*
X119224Y580893D01*
X119226Y580912D01*
X119234Y580931D01*
X119238Y580972D01*
X119245Y580994D01*
X119244Y581026D01*
X119252Y581097D01*
X119252Y641278D01*
X119238Y641368D01*
X119230Y641459D01*
X119218Y641488D01*
X119213Y641520D01*
X119170Y641601D01*
X119134Y641685D01*
X119108Y641717D01*
X119097Y641738D01*
X119074Y641760D01*
X119029Y641816D01*
X118518Y642327D01*
X118518Y646723D01*
X119029Y647234D01*
X119082Y647308D01*
X119142Y647378D01*
X119154Y647408D01*
X119173Y647434D01*
X119200Y647521D01*
X119234Y647606D01*
X119238Y647647D01*
X119245Y647669D01*
X119244Y647701D01*
X119252Y647772D01*
X119252Y707953D01*
X119238Y708043D01*
X119230Y708134D01*
X119218Y708163D01*
X119213Y708195D01*
X119170Y708276D01*
X119134Y708360D01*
X119108Y708392D01*
X119097Y708413D01*
X119074Y708435D01*
X119029Y708491D01*
X118518Y709002D01*
X118518Y713398D01*
X121627Y716507D01*
X126023Y716507D01*
X129132Y713398D01*
X129132Y709002D01*
X128621Y708491D01*
X128568Y708417D01*
X128508Y708347D01*
X128496Y708317D01*
X128477Y708291D01*
X128450Y708204D01*
X128416Y708119D01*
X128412Y708078D01*
X128405Y708056D01*
X128406Y708024D01*
X128398Y707953D01*
X128398Y647772D01*
X128412Y647682D01*
X128420Y647591D01*
X128432Y647562D01*
X128437Y647530D01*
X128480Y647449D01*
X128516Y647365D01*
X128542Y647333D01*
X128553Y647312D01*
X128576Y647290D01*
X128621Y647234D01*
X129132Y646723D01*
X129132Y642327D01*
X128621Y641816D01*
X128568Y641742D01*
X128508Y641672D01*
X128496Y641642D01*
X128477Y641616D01*
X128450Y641529D01*
X128416Y641444D01*
X128412Y641403D01*
X128405Y641381D01*
X128406Y641349D01*
X128398Y641278D01*
X128398Y581097D01*
X128401Y581078D01*
X128399Y581059D01*
X128414Y580989D01*
X128420Y580916D01*
X128432Y580887D01*
X128437Y580855D01*
X128447Y580837D01*
X128451Y580818D01*
X128487Y580759D01*
X128516Y580690D01*
X128542Y580658D01*
X128553Y580637D01*
X128568Y580623D01*
X128577Y580607D01*
X128593Y580594D01*
X128621Y580559D01*
X129132Y580048D01*
X129132Y575652D01*
X128621Y575141D01*
X128568Y575067D01*
X128508Y574997D01*
X128496Y574967D01*
X128477Y574941D01*
X128450Y574854D01*
X128416Y574769D01*
X128412Y574728D01*
X128405Y574706D01*
X128406Y574674D01*
X128398Y574603D01*
X128398Y514422D01*
X128412Y514332D01*
X128420Y514241D01*
X128432Y514212D01*
X128437Y514180D01*
X128480Y514099D01*
X128516Y514015D01*
X128542Y513983D01*
X128553Y513962D01*
X128576Y513940D01*
X128621Y513884D01*
X129132Y513373D01*
X129132Y508977D01*
X128621Y508466D01*
X128568Y508392D01*
X128508Y508322D01*
X128496Y508292D01*
X128477Y508266D01*
X128450Y508179D01*
X128416Y508094D01*
X128412Y508053D01*
X128405Y508031D01*
X128406Y507999D01*
X128398Y507928D01*
X128398Y447747D01*
X128412Y447657D01*
X128420Y447566D01*
X128432Y447537D01*
X128437Y447505D01*
X128480Y447424D01*
X128516Y447340D01*
X128542Y447308D01*
X128553Y447287D01*
X128576Y447265D01*
X128621Y447209D01*
X129132Y446698D01*
X129132Y442302D01*
X128621Y441791D01*
X128568Y441717D01*
X128508Y441647D01*
X128496Y441617D01*
X128477Y441591D01*
X128450Y441504D01*
X128416Y441419D01*
X128412Y441378D01*
X128405Y441356D01*
X128406Y441324D01*
X128398Y441253D01*
X128398Y381072D01*
X128412Y380982D01*
X128420Y380891D01*
X128432Y380862D01*
X128437Y380830D01*
X128480Y380749D01*
X128516Y380665D01*
X128542Y380633D01*
X128553Y380612D01*
X128576Y380590D01*
X128621Y380534D01*
X129132Y380023D01*
X129132Y375627D01*
X128621Y375116D01*
X128568Y375042D01*
X128508Y374972D01*
X128496Y374942D01*
X128477Y374916D01*
X128450Y374829D01*
X128416Y374744D01*
X128412Y374703D01*
X128405Y374681D01*
X128406Y374649D01*
X128398Y374578D01*
X128398Y314397D01*
X128412Y314307D01*
X128420Y314216D01*
X128432Y314187D01*
X128437Y314155D01*
X128480Y314074D01*
X128516Y313990D01*
X128542Y313958D01*
X128553Y313937D01*
X128576Y313915D01*
X128621Y313859D01*
X129132Y313348D01*
X129132Y308952D01*
X128621Y308441D01*
X128568Y308367D01*
X128508Y308297D01*
X128496Y308267D01*
X128477Y308241D01*
X128450Y308154D01*
X128416Y308069D01*
X128412Y308028D01*
X128405Y308006D01*
X128406Y307974D01*
X128398Y307903D01*
X128398Y247722D01*
X128412Y247632D01*
X128420Y247541D01*
X128432Y247512D01*
X128437Y247480D01*
X128480Y247399D01*
X128516Y247315D01*
X128542Y247283D01*
X128553Y247262D01*
X128576Y247240D01*
X128621Y247184D01*
X129132Y246673D01*
X129132Y245950D01*
X129146Y245860D01*
X129154Y245769D01*
X129166Y245740D01*
X129171Y245708D01*
X129214Y245627D01*
X129250Y245543D01*
X129276Y245511D01*
X129287Y245490D01*
X129310Y245468D01*
X129355Y245412D01*
X253667Y121100D01*
X253741Y121047D01*
X253811Y120987D01*
X253841Y120975D01*
X253867Y120956D01*
X253954Y120929D01*
X254039Y120895D01*
X254080Y120891D01*
X254102Y120884D01*
X254134Y120885D01*
X254205Y120877D01*
X488840Y120877D01*
X512593Y97124D01*
X512609Y97015D01*
X512611Y97010D01*
X512612Y97003D01*
X512667Y96900D01*
X512720Y96796D01*
X512725Y96792D01*
X512728Y96786D01*
X512812Y96706D01*
X512896Y96624D01*
X512902Y96620D01*
X512906Y96617D01*
X512923Y96609D01*
X513043Y96543D01*
X513135Y96505D01*
X515685Y93955D01*
X517065Y90623D01*
X517065Y71937D01*
X515685Y68605D01*
X513135Y66055D01*
X509803Y64675D01*
X506197Y64675D01*
G37*
%LPD*%
%LPC*%
G36*
X310539Y218531D02*
X310539Y218531D01*
X307431Y221639D01*
X307431Y222362D01*
X307416Y222452D01*
X307409Y222543D01*
X307396Y222573D01*
X307391Y222605D01*
X307348Y222686D01*
X307313Y222769D01*
X307287Y222802D01*
X307276Y222822D01*
X307253Y222844D01*
X307208Y222900D01*
X285940Y244168D01*
X285940Y247559D01*
X285921Y247674D01*
X285904Y247790D01*
X285901Y247795D01*
X285900Y247802D01*
X285846Y247904D01*
X285792Y248009D01*
X285788Y248013D01*
X285785Y248019D01*
X285701Y248099D01*
X285617Y248181D01*
X285610Y248185D01*
X285607Y248188D01*
X285590Y248196D01*
X285470Y248262D01*
X285378Y248300D01*
X282828Y250850D01*
X281448Y254182D01*
X281448Y272868D01*
X282828Y276200D01*
X285378Y278750D01*
X285470Y278788D01*
X285570Y278850D01*
X285669Y278909D01*
X285673Y278914D01*
X285679Y278917D01*
X285754Y279008D01*
X285829Y279096D01*
X285832Y279102D01*
X285836Y279107D01*
X285877Y279215D01*
X285921Y279324D01*
X285922Y279332D01*
X285924Y279337D01*
X285925Y279355D01*
X285940Y279491D01*
X285940Y314234D01*
X285921Y314349D01*
X285904Y314465D01*
X285901Y314470D01*
X285900Y314477D01*
X285846Y314579D01*
X285792Y314684D01*
X285788Y314688D01*
X285785Y314694D01*
X285701Y314774D01*
X285617Y314856D01*
X285610Y314860D01*
X285607Y314863D01*
X285590Y314871D01*
X285470Y314937D01*
X285378Y314975D01*
X282828Y317525D01*
X281448Y320857D01*
X281448Y339543D01*
X282828Y342875D01*
X285378Y345425D01*
X285470Y345463D01*
X285570Y345525D01*
X285669Y345584D01*
X285673Y345589D01*
X285679Y345592D01*
X285754Y345683D01*
X285829Y345771D01*
X285832Y345777D01*
X285836Y345782D01*
X285877Y345890D01*
X285921Y345999D01*
X285922Y346007D01*
X285924Y346012D01*
X285925Y346030D01*
X285940Y346166D01*
X285940Y380909D01*
X285938Y380921D01*
X285939Y380929D01*
X285930Y380971D01*
X285921Y381024D01*
X285904Y381140D01*
X285901Y381145D01*
X285900Y381152D01*
X285846Y381254D01*
X285792Y381359D01*
X285788Y381363D01*
X285785Y381369D01*
X285701Y381449D01*
X285617Y381531D01*
X285610Y381535D01*
X285607Y381538D01*
X285590Y381546D01*
X285470Y381612D01*
X285378Y381650D01*
X282828Y384200D01*
X281448Y387532D01*
X281448Y406218D01*
X282828Y409550D01*
X285378Y412100D01*
X285470Y412138D01*
X285570Y412200D01*
X285669Y412259D01*
X285673Y412264D01*
X285679Y412267D01*
X285754Y412358D01*
X285829Y412446D01*
X285832Y412452D01*
X285836Y412457D01*
X285877Y412565D01*
X285921Y412674D01*
X285922Y412682D01*
X285924Y412687D01*
X285925Y412705D01*
X285940Y412841D01*
X285940Y447584D01*
X285921Y447699D01*
X285904Y447815D01*
X285901Y447820D01*
X285900Y447827D01*
X285846Y447929D01*
X285792Y448034D01*
X285788Y448038D01*
X285785Y448044D01*
X285701Y448124D01*
X285617Y448206D01*
X285610Y448210D01*
X285607Y448213D01*
X285590Y448221D01*
X285470Y448287D01*
X285378Y448325D01*
X282828Y450875D01*
X281448Y454207D01*
X281448Y472893D01*
X282828Y476225D01*
X285378Y478775D01*
X285470Y478813D01*
X285570Y478875D01*
X285669Y478934D01*
X285673Y478939D01*
X285679Y478942D01*
X285754Y479033D01*
X285829Y479121D01*
X285832Y479127D01*
X285836Y479132D01*
X285877Y479240D01*
X285921Y479349D01*
X285922Y479357D01*
X285924Y479362D01*
X285925Y479380D01*
X285940Y479516D01*
X285940Y514259D01*
X285921Y514374D01*
X285904Y514490D01*
X285901Y514495D01*
X285900Y514502D01*
X285846Y514604D01*
X285792Y514709D01*
X285788Y514713D01*
X285785Y514719D01*
X285701Y514799D01*
X285617Y514881D01*
X285610Y514885D01*
X285607Y514888D01*
X285590Y514896D01*
X285470Y514962D01*
X285378Y515000D01*
X282828Y517550D01*
X281448Y520882D01*
X281448Y539568D01*
X282828Y542900D01*
X285378Y545450D01*
X285470Y545488D01*
X285570Y545550D01*
X285669Y545609D01*
X285673Y545614D01*
X285679Y545617D01*
X285754Y545708D01*
X285829Y545796D01*
X285832Y545802D01*
X285836Y545807D01*
X285877Y545915D01*
X285921Y546024D01*
X285922Y546032D01*
X285924Y546037D01*
X285925Y546055D01*
X285940Y546191D01*
X285940Y580934D01*
X285921Y581049D01*
X285904Y581165D01*
X285901Y581170D01*
X285900Y581177D01*
X285846Y581279D01*
X285792Y581384D01*
X285788Y581388D01*
X285785Y581394D01*
X285701Y581474D01*
X285617Y581556D01*
X285610Y581560D01*
X285607Y581563D01*
X285590Y581571D01*
X285470Y581637D01*
X285378Y581675D01*
X282828Y584225D01*
X281448Y587557D01*
X281448Y606243D01*
X282828Y609575D01*
X285378Y612125D01*
X285470Y612163D01*
X285570Y612225D01*
X285669Y612284D01*
X285673Y612289D01*
X285679Y612292D01*
X285754Y612383D01*
X285829Y612471D01*
X285832Y612477D01*
X285836Y612482D01*
X285877Y612589D01*
X285921Y612699D01*
X285922Y612707D01*
X285924Y612712D01*
X285925Y612730D01*
X285940Y612866D01*
X285940Y647609D01*
X285921Y647724D01*
X285904Y647840D01*
X285901Y647845D01*
X285900Y647852D01*
X285846Y647954D01*
X285792Y648059D01*
X285788Y648063D01*
X285785Y648069D01*
X285701Y648149D01*
X285617Y648231D01*
X285610Y648235D01*
X285607Y648238D01*
X285590Y648246D01*
X285470Y648312D01*
X285378Y648350D01*
X282828Y650900D01*
X281448Y654232D01*
X281448Y672918D01*
X282828Y676250D01*
X285378Y678800D01*
X285470Y678838D01*
X285570Y678900D01*
X285669Y678959D01*
X285673Y678964D01*
X285679Y678967D01*
X285754Y679058D01*
X285829Y679146D01*
X285832Y679152D01*
X285836Y679157D01*
X285877Y679265D01*
X285921Y679374D01*
X285922Y679382D01*
X285924Y679387D01*
X285925Y679405D01*
X285940Y679541D01*
X285940Y714284D01*
X285921Y714399D01*
X285904Y714515D01*
X285901Y714520D01*
X285900Y714527D01*
X285846Y714629D01*
X285792Y714734D01*
X285788Y714738D01*
X285785Y714744D01*
X285701Y714824D01*
X285617Y714906D01*
X285610Y714910D01*
X285607Y714913D01*
X285590Y714921D01*
X285470Y714987D01*
X285378Y715025D01*
X282828Y717575D01*
X281448Y720907D01*
X281448Y739593D01*
X282828Y742925D01*
X285378Y745475D01*
X288709Y746855D01*
X292316Y746855D01*
X295647Y745475D01*
X298197Y742925D01*
X299577Y739593D01*
X299577Y720907D01*
X298197Y717575D01*
X295647Y715025D01*
X295555Y714987D01*
X295455Y714925D01*
X295356Y714866D01*
X295352Y714861D01*
X295346Y714858D01*
X295271Y714767D01*
X295196Y714679D01*
X295193Y714673D01*
X295189Y714668D01*
X295148Y714560D01*
X295104Y714451D01*
X295103Y714443D01*
X295101Y714438D01*
X295100Y714420D01*
X295085Y714284D01*
X295085Y679541D01*
X295104Y679426D01*
X295121Y679310D01*
X295124Y679305D01*
X295125Y679298D01*
X295179Y679196D01*
X295233Y679091D01*
X295237Y679087D01*
X295240Y679081D01*
X295324Y679001D01*
X295408Y678919D01*
X295415Y678915D01*
X295418Y678912D01*
X295435Y678904D01*
X295555Y678838D01*
X295647Y678800D01*
X298197Y676250D01*
X299577Y672918D01*
X299577Y654232D01*
X298197Y650900D01*
X295647Y648350D01*
X295555Y648312D01*
X295455Y648250D01*
X295356Y648191D01*
X295352Y648186D01*
X295346Y648183D01*
X295271Y648092D01*
X295196Y648004D01*
X295193Y647998D01*
X295189Y647993D01*
X295147Y647883D01*
X295104Y647776D01*
X295103Y647768D01*
X295101Y647763D01*
X295100Y647745D01*
X295085Y647609D01*
X295085Y612866D01*
X295104Y612751D01*
X295121Y612635D01*
X295124Y612630D01*
X295125Y612623D01*
X295179Y612521D01*
X295233Y612416D01*
X295237Y612412D01*
X295240Y612406D01*
X295324Y612326D01*
X295408Y612244D01*
X295415Y612240D01*
X295418Y612237D01*
X295435Y612229D01*
X295555Y612163D01*
X295647Y612125D01*
X298197Y609575D01*
X299577Y606243D01*
X299577Y587557D01*
X298197Y584225D01*
X295647Y581675D01*
X295555Y581637D01*
X295455Y581575D01*
X295356Y581516D01*
X295352Y581511D01*
X295346Y581508D01*
X295271Y581417D01*
X295196Y581329D01*
X295193Y581323D01*
X295189Y581318D01*
X295147Y581209D01*
X295104Y581101D01*
X295103Y581093D01*
X295101Y581088D01*
X295100Y581070D01*
X295085Y580934D01*
X295085Y546191D01*
X295104Y546076D01*
X295121Y545960D01*
X295124Y545955D01*
X295125Y545948D01*
X295179Y545846D01*
X295233Y545741D01*
X295237Y545737D01*
X295240Y545731D01*
X295324Y545651D01*
X295408Y545569D01*
X295415Y545565D01*
X295418Y545562D01*
X295435Y545554D01*
X295555Y545488D01*
X295647Y545450D01*
X298197Y542900D01*
X299577Y539568D01*
X299577Y520882D01*
X298197Y517550D01*
X295647Y515000D01*
X295555Y514962D01*
X295455Y514900D01*
X295356Y514841D01*
X295352Y514836D01*
X295346Y514833D01*
X295271Y514742D01*
X295196Y514654D01*
X295193Y514648D01*
X295189Y514643D01*
X295148Y514535D01*
X295104Y514426D01*
X295103Y514418D01*
X295101Y514413D01*
X295100Y514395D01*
X295085Y514259D01*
X295085Y479516D01*
X295104Y479401D01*
X295121Y479285D01*
X295124Y479280D01*
X295125Y479273D01*
X295179Y479171D01*
X295233Y479066D01*
X295237Y479062D01*
X295240Y479056D01*
X295324Y478976D01*
X295408Y478894D01*
X295415Y478890D01*
X295418Y478887D01*
X295435Y478879D01*
X295555Y478813D01*
X295647Y478775D01*
X298197Y476225D01*
X299577Y472893D01*
X299577Y454207D01*
X298197Y450875D01*
X295647Y448325D01*
X295555Y448287D01*
X295455Y448225D01*
X295356Y448166D01*
X295352Y448161D01*
X295346Y448158D01*
X295271Y448067D01*
X295196Y447979D01*
X295193Y447973D01*
X295189Y447968D01*
X295148Y447860D01*
X295104Y447751D01*
X295103Y447743D01*
X295101Y447738D01*
X295100Y447720D01*
X295085Y447584D01*
X295085Y412841D01*
X295087Y412830D01*
X295086Y412823D01*
X295094Y412785D01*
X295104Y412726D01*
X295121Y412610D01*
X295124Y412605D01*
X295125Y412598D01*
X295179Y412496D01*
X295233Y412391D01*
X295237Y412387D01*
X295240Y412381D01*
X295324Y412301D01*
X295408Y412219D01*
X295415Y412215D01*
X295418Y412212D01*
X295435Y412204D01*
X295555Y412138D01*
X295647Y412100D01*
X298197Y409550D01*
X299577Y406218D01*
X299577Y387532D01*
X298197Y384200D01*
X295647Y381650D01*
X295555Y381612D01*
X295455Y381550D01*
X295356Y381491D01*
X295352Y381486D01*
X295346Y381483D01*
X295271Y381392D01*
X295196Y381304D01*
X295193Y381298D01*
X295189Y381293D01*
X295148Y381185D01*
X295104Y381076D01*
X295103Y381068D01*
X295101Y381063D01*
X295100Y381045D01*
X295085Y380909D01*
X295085Y346166D01*
X295104Y346051D01*
X295121Y345935D01*
X295124Y345930D01*
X295125Y345923D01*
X295179Y345821D01*
X295233Y345716D01*
X295237Y345712D01*
X295240Y345706D01*
X295324Y345626D01*
X295408Y345544D01*
X295415Y345540D01*
X295418Y345537D01*
X295435Y345529D01*
X295555Y345463D01*
X295647Y345425D01*
X298197Y342875D01*
X299577Y339543D01*
X299577Y320857D01*
X298197Y317525D01*
X295647Y314975D01*
X295555Y314937D01*
X295455Y314875D01*
X295356Y314816D01*
X295352Y314811D01*
X295346Y314808D01*
X295271Y314717D01*
X295196Y314629D01*
X295193Y314623D01*
X295189Y314618D01*
X295148Y314510D01*
X295104Y314401D01*
X295103Y314393D01*
X295101Y314388D01*
X295100Y314370D01*
X295085Y314234D01*
X295085Y279491D01*
X295104Y279376D01*
X295121Y279260D01*
X295124Y279255D01*
X295125Y279248D01*
X295179Y279146D01*
X295233Y279041D01*
X295237Y279037D01*
X295240Y279031D01*
X295324Y278951D01*
X295408Y278869D01*
X295415Y278865D01*
X295418Y278862D01*
X295435Y278854D01*
X295555Y278788D01*
X295647Y278750D01*
X298197Y276200D01*
X299577Y272868D01*
X299577Y254182D01*
X298197Y250850D01*
X295733Y248386D01*
X295721Y248370D01*
X295705Y248357D01*
X295649Y248270D01*
X295589Y248186D01*
X295583Y248167D01*
X295572Y248150D01*
X295547Y248050D01*
X295517Y247951D01*
X295517Y247931D01*
X295512Y247912D01*
X295520Y247809D01*
X295523Y247705D01*
X295530Y247686D01*
X295532Y247666D01*
X295572Y247572D01*
X295608Y247474D01*
X295620Y247458D01*
X295628Y247440D01*
X295733Y247309D01*
X313675Y229367D01*
X313749Y229314D01*
X313818Y229255D01*
X313848Y229242D01*
X313874Y229224D01*
X313961Y229197D01*
X314046Y229163D01*
X314087Y229158D01*
X314109Y229151D01*
X314142Y229152D01*
X314213Y229144D01*
X314936Y229144D01*
X318044Y226036D01*
X318044Y221639D01*
X314936Y218531D01*
X310539Y218531D01*
G37*
%LPD*%
%LPC*%
G36*
X237514Y218531D02*
X237514Y218531D01*
X234406Y221639D01*
X234406Y222362D01*
X234391Y222452D01*
X234384Y222543D01*
X234371Y222573D01*
X234366Y222605D01*
X234323Y222686D01*
X234288Y222769D01*
X234262Y222802D01*
X234251Y222822D01*
X234228Y222844D01*
X234183Y222900D01*
X212915Y244168D01*
X212915Y247559D01*
X212896Y247674D01*
X212879Y247790D01*
X212876Y247795D01*
X212875Y247802D01*
X212821Y247904D01*
X212767Y248009D01*
X212763Y248013D01*
X212760Y248019D01*
X212676Y248099D01*
X212592Y248181D01*
X212585Y248185D01*
X212582Y248188D01*
X212565Y248196D01*
X212445Y248262D01*
X212353Y248300D01*
X209803Y250850D01*
X208423Y254182D01*
X208423Y272868D01*
X209803Y276200D01*
X212353Y278750D01*
X212445Y278788D01*
X212545Y278850D01*
X212644Y278909D01*
X212648Y278914D01*
X212654Y278917D01*
X212729Y279008D01*
X212804Y279096D01*
X212807Y279102D01*
X212811Y279107D01*
X212852Y279215D01*
X212896Y279324D01*
X212897Y279332D01*
X212899Y279337D01*
X212900Y279355D01*
X212915Y279491D01*
X212915Y314234D01*
X212896Y314349D01*
X212879Y314465D01*
X212876Y314470D01*
X212875Y314477D01*
X212821Y314579D01*
X212767Y314684D01*
X212763Y314688D01*
X212760Y314694D01*
X212676Y314774D01*
X212592Y314856D01*
X212585Y314860D01*
X212582Y314863D01*
X212565Y314871D01*
X212445Y314937D01*
X212353Y314975D01*
X209803Y317525D01*
X208423Y320857D01*
X208423Y339543D01*
X209803Y342875D01*
X212353Y345425D01*
X212445Y345463D01*
X212545Y345525D01*
X212644Y345584D01*
X212648Y345589D01*
X212654Y345592D01*
X212729Y345683D01*
X212804Y345771D01*
X212807Y345777D01*
X212811Y345782D01*
X212852Y345890D01*
X212896Y345999D01*
X212897Y346007D01*
X212899Y346012D01*
X212900Y346030D01*
X212915Y346166D01*
X212915Y380909D01*
X212913Y380921D01*
X212914Y380929D01*
X212905Y380971D01*
X212896Y381024D01*
X212879Y381140D01*
X212876Y381145D01*
X212875Y381152D01*
X212821Y381254D01*
X212767Y381359D01*
X212763Y381363D01*
X212760Y381369D01*
X212676Y381449D01*
X212592Y381531D01*
X212585Y381535D01*
X212582Y381538D01*
X212565Y381546D01*
X212445Y381612D01*
X212353Y381650D01*
X209803Y384200D01*
X208423Y387532D01*
X208423Y406218D01*
X209803Y409550D01*
X212353Y412100D01*
X212445Y412138D01*
X212545Y412200D01*
X212644Y412259D01*
X212648Y412264D01*
X212654Y412267D01*
X212729Y412358D01*
X212804Y412446D01*
X212807Y412452D01*
X212811Y412457D01*
X212852Y412565D01*
X212896Y412674D01*
X212897Y412682D01*
X212899Y412687D01*
X212900Y412705D01*
X212915Y412841D01*
X212915Y447584D01*
X212896Y447699D01*
X212879Y447815D01*
X212876Y447820D01*
X212875Y447827D01*
X212821Y447929D01*
X212767Y448034D01*
X212763Y448038D01*
X212760Y448044D01*
X212676Y448124D01*
X212592Y448206D01*
X212585Y448210D01*
X212582Y448213D01*
X212565Y448221D01*
X212445Y448287D01*
X212353Y448325D01*
X209803Y450875D01*
X208423Y454207D01*
X208423Y472893D01*
X209803Y476225D01*
X212353Y478775D01*
X212445Y478813D01*
X212545Y478875D01*
X212644Y478934D01*
X212648Y478939D01*
X212654Y478942D01*
X212729Y479033D01*
X212804Y479121D01*
X212807Y479127D01*
X212811Y479132D01*
X212852Y479240D01*
X212896Y479349D01*
X212897Y479357D01*
X212899Y479362D01*
X212900Y479380D01*
X212915Y479516D01*
X212915Y514259D01*
X212896Y514374D01*
X212879Y514490D01*
X212876Y514495D01*
X212875Y514502D01*
X212821Y514604D01*
X212767Y514709D01*
X212763Y514713D01*
X212760Y514719D01*
X212676Y514799D01*
X212592Y514881D01*
X212585Y514885D01*
X212582Y514888D01*
X212565Y514896D01*
X212445Y514962D01*
X212353Y515000D01*
X209803Y517550D01*
X208423Y520882D01*
X208423Y539568D01*
X209803Y542900D01*
X212353Y545450D01*
X212445Y545488D01*
X212545Y545550D01*
X212644Y545609D01*
X212648Y545614D01*
X212654Y545617D01*
X212729Y545708D01*
X212804Y545796D01*
X212807Y545802D01*
X212811Y545807D01*
X212852Y545915D01*
X212896Y546024D01*
X212897Y546032D01*
X212899Y546037D01*
X212900Y546055D01*
X212915Y546191D01*
X212915Y580934D01*
X212896Y581049D01*
X212879Y581165D01*
X212876Y581170D01*
X212875Y581177D01*
X212821Y581279D01*
X212767Y581384D01*
X212763Y581388D01*
X212760Y581394D01*
X212676Y581474D01*
X212592Y581556D01*
X212585Y581560D01*
X212582Y581563D01*
X212565Y581571D01*
X212445Y581637D01*
X212353Y581675D01*
X209803Y584225D01*
X208423Y587557D01*
X208423Y606243D01*
X209803Y609575D01*
X212353Y612125D01*
X212445Y612163D01*
X212545Y612225D01*
X212644Y612284D01*
X212648Y612289D01*
X212654Y612292D01*
X212729Y612383D01*
X212804Y612471D01*
X212807Y612477D01*
X212811Y612482D01*
X212852Y612589D01*
X212896Y612699D01*
X212897Y612707D01*
X212899Y612712D01*
X212900Y612730D01*
X212915Y612866D01*
X212915Y647609D01*
X212896Y647724D01*
X212879Y647840D01*
X212876Y647845D01*
X212875Y647852D01*
X212821Y647954D01*
X212767Y648059D01*
X212763Y648063D01*
X212760Y648069D01*
X212676Y648149D01*
X212592Y648231D01*
X212585Y648235D01*
X212582Y648238D01*
X212565Y648246D01*
X212445Y648312D01*
X212353Y648350D01*
X209803Y650900D01*
X208423Y654232D01*
X208423Y672918D01*
X209803Y676250D01*
X212353Y678800D01*
X212445Y678838D01*
X212545Y678900D01*
X212644Y678959D01*
X212648Y678964D01*
X212654Y678967D01*
X212729Y679058D01*
X212804Y679146D01*
X212807Y679152D01*
X212811Y679157D01*
X212852Y679265D01*
X212896Y679374D01*
X212897Y679382D01*
X212899Y679387D01*
X212900Y679405D01*
X212915Y679541D01*
X212915Y714284D01*
X212896Y714399D01*
X212879Y714515D01*
X212876Y714520D01*
X212875Y714527D01*
X212821Y714629D01*
X212767Y714734D01*
X212763Y714738D01*
X212760Y714744D01*
X212676Y714824D01*
X212592Y714906D01*
X212585Y714910D01*
X212582Y714913D01*
X212565Y714921D01*
X212445Y714987D01*
X212353Y715025D01*
X209803Y717575D01*
X208423Y720907D01*
X208423Y739593D01*
X209803Y742925D01*
X212353Y745475D01*
X215684Y746855D01*
X219291Y746855D01*
X222622Y745475D01*
X225172Y742925D01*
X226552Y739593D01*
X226552Y720907D01*
X225172Y717575D01*
X222622Y715025D01*
X222530Y714987D01*
X222430Y714925D01*
X222331Y714866D01*
X222327Y714861D01*
X222321Y714858D01*
X222246Y714767D01*
X222171Y714679D01*
X222168Y714673D01*
X222164Y714668D01*
X222123Y714560D01*
X222079Y714451D01*
X222078Y714443D01*
X222076Y714438D01*
X222075Y714420D01*
X222060Y714284D01*
X222060Y679541D01*
X222079Y679426D01*
X222096Y679310D01*
X222099Y679305D01*
X222100Y679298D01*
X222154Y679196D01*
X222208Y679091D01*
X222212Y679087D01*
X222215Y679081D01*
X222299Y679001D01*
X222383Y678919D01*
X222390Y678915D01*
X222393Y678912D01*
X222410Y678904D01*
X222530Y678838D01*
X222622Y678800D01*
X225172Y676250D01*
X226552Y672918D01*
X226552Y654232D01*
X225172Y650900D01*
X222622Y648350D01*
X222530Y648312D01*
X222430Y648250D01*
X222331Y648191D01*
X222327Y648186D01*
X222321Y648183D01*
X222246Y648092D01*
X222171Y648004D01*
X222168Y647998D01*
X222164Y647993D01*
X222122Y647883D01*
X222079Y647776D01*
X222078Y647768D01*
X222076Y647763D01*
X222075Y647745D01*
X222060Y647609D01*
X222060Y612866D01*
X222079Y612751D01*
X222096Y612635D01*
X222099Y612630D01*
X222100Y612623D01*
X222154Y612521D01*
X222208Y612416D01*
X222212Y612412D01*
X222215Y612406D01*
X222299Y612326D01*
X222383Y612244D01*
X222390Y612240D01*
X222393Y612237D01*
X222410Y612229D01*
X222530Y612163D01*
X222622Y612125D01*
X225172Y609575D01*
X226552Y606243D01*
X226552Y587557D01*
X225172Y584225D01*
X222622Y581675D01*
X222530Y581637D01*
X222430Y581575D01*
X222331Y581516D01*
X222327Y581511D01*
X222321Y581508D01*
X222246Y581417D01*
X222171Y581329D01*
X222168Y581323D01*
X222164Y581318D01*
X222122Y581209D01*
X222079Y581101D01*
X222078Y581093D01*
X222076Y581088D01*
X222075Y581070D01*
X222060Y580934D01*
X222060Y546191D01*
X222079Y546076D01*
X222096Y545960D01*
X222099Y545955D01*
X222100Y545948D01*
X222154Y545846D01*
X222208Y545741D01*
X222212Y545737D01*
X222215Y545731D01*
X222299Y545651D01*
X222383Y545569D01*
X222390Y545565D01*
X222393Y545562D01*
X222410Y545554D01*
X222530Y545488D01*
X222622Y545450D01*
X225172Y542900D01*
X226552Y539568D01*
X226552Y520882D01*
X225172Y517550D01*
X222622Y515000D01*
X222530Y514962D01*
X222430Y514900D01*
X222331Y514841D01*
X222327Y514836D01*
X222321Y514833D01*
X222246Y514742D01*
X222171Y514654D01*
X222168Y514648D01*
X222164Y514643D01*
X222123Y514535D01*
X222079Y514426D01*
X222078Y514418D01*
X222076Y514413D01*
X222075Y514395D01*
X222060Y514259D01*
X222060Y479516D01*
X222079Y479401D01*
X222096Y479285D01*
X222099Y479280D01*
X222100Y479273D01*
X222154Y479171D01*
X222208Y479066D01*
X222212Y479062D01*
X222215Y479056D01*
X222299Y478976D01*
X222383Y478894D01*
X222390Y478890D01*
X222393Y478887D01*
X222410Y478879D01*
X222530Y478813D01*
X222622Y478775D01*
X225172Y476225D01*
X226552Y472893D01*
X226552Y454207D01*
X225172Y450875D01*
X222622Y448325D01*
X222530Y448287D01*
X222430Y448225D01*
X222331Y448166D01*
X222327Y448161D01*
X222321Y448158D01*
X222246Y448067D01*
X222171Y447979D01*
X222168Y447973D01*
X222164Y447968D01*
X222123Y447860D01*
X222079Y447751D01*
X222078Y447743D01*
X222076Y447738D01*
X222075Y447720D01*
X222060Y447584D01*
X222060Y412841D01*
X222062Y412830D01*
X222061Y412823D01*
X222069Y412785D01*
X222079Y412726D01*
X222096Y412610D01*
X222099Y412605D01*
X222100Y412598D01*
X222154Y412496D01*
X222208Y412391D01*
X222212Y412387D01*
X222215Y412381D01*
X222299Y412301D01*
X222383Y412219D01*
X222390Y412215D01*
X222393Y412212D01*
X222410Y412204D01*
X222530Y412138D01*
X222622Y412100D01*
X225172Y409550D01*
X226552Y406218D01*
X226552Y387532D01*
X225172Y384200D01*
X222622Y381650D01*
X222530Y381612D01*
X222430Y381550D01*
X222331Y381491D01*
X222327Y381486D01*
X222321Y381483D01*
X222246Y381392D01*
X222171Y381304D01*
X222168Y381298D01*
X222164Y381293D01*
X222123Y381185D01*
X222079Y381076D01*
X222078Y381068D01*
X222076Y381063D01*
X222075Y381045D01*
X222060Y380909D01*
X222060Y346166D01*
X222079Y346051D01*
X222096Y345935D01*
X222099Y345930D01*
X222100Y345923D01*
X222154Y345821D01*
X222208Y345716D01*
X222212Y345712D01*
X222215Y345706D01*
X222299Y345626D01*
X222383Y345544D01*
X222390Y345540D01*
X222393Y345537D01*
X222410Y345529D01*
X222530Y345463D01*
X222622Y345425D01*
X225172Y342875D01*
X226552Y339543D01*
X226552Y320857D01*
X225172Y317525D01*
X222622Y314975D01*
X222530Y314937D01*
X222430Y314875D01*
X222331Y314816D01*
X222327Y314811D01*
X222321Y314808D01*
X222246Y314717D01*
X222171Y314629D01*
X222168Y314623D01*
X222164Y314618D01*
X222123Y314510D01*
X222079Y314401D01*
X222078Y314393D01*
X222076Y314388D01*
X222075Y314370D01*
X222060Y314234D01*
X222060Y279491D01*
X222079Y279376D01*
X222096Y279260D01*
X222099Y279255D01*
X222100Y279248D01*
X222154Y279146D01*
X222208Y279041D01*
X222212Y279037D01*
X222215Y279031D01*
X222299Y278951D01*
X222383Y278869D01*
X222390Y278865D01*
X222393Y278862D01*
X222410Y278854D01*
X222530Y278788D01*
X222622Y278750D01*
X225172Y276200D01*
X226552Y272868D01*
X226552Y254182D01*
X225172Y250850D01*
X222708Y248386D01*
X222696Y248370D01*
X222680Y248357D01*
X222624Y248270D01*
X222564Y248186D01*
X222558Y248167D01*
X222547Y248150D01*
X222522Y248050D01*
X222492Y247951D01*
X222492Y247931D01*
X222487Y247912D01*
X222495Y247809D01*
X222498Y247705D01*
X222505Y247686D01*
X222507Y247666D01*
X222547Y247572D01*
X222583Y247474D01*
X222595Y247458D01*
X222603Y247440D01*
X222708Y247309D01*
X240650Y229367D01*
X240724Y229314D01*
X240793Y229255D01*
X240823Y229242D01*
X240849Y229224D01*
X240936Y229197D01*
X241021Y229163D01*
X241062Y229158D01*
X241084Y229151D01*
X241117Y229152D01*
X241188Y229144D01*
X241911Y229144D01*
X245019Y226036D01*
X245019Y221639D01*
X241911Y218531D01*
X237514Y218531D01*
G37*
%LPD*%
%LPC*%
G36*
X602639Y218531D02*
X602639Y218531D01*
X599531Y221639D01*
X599531Y222362D01*
X599516Y222452D01*
X599509Y222543D01*
X599496Y222573D01*
X599491Y222605D01*
X599448Y222686D01*
X599413Y222769D01*
X599387Y222802D01*
X599376Y222822D01*
X599353Y222844D01*
X599308Y222900D01*
X578040Y244168D01*
X578040Y247559D01*
X578021Y247674D01*
X578004Y247790D01*
X578001Y247795D01*
X578000Y247802D01*
X577946Y247904D01*
X577892Y248009D01*
X577888Y248013D01*
X577885Y248019D01*
X577801Y248099D01*
X577717Y248181D01*
X577710Y248185D01*
X577707Y248188D01*
X577690Y248196D01*
X577570Y248262D01*
X577478Y248300D01*
X574928Y250850D01*
X573548Y254182D01*
X573548Y272868D01*
X574928Y276200D01*
X577478Y278750D01*
X577570Y278788D01*
X577670Y278850D01*
X577769Y278909D01*
X577773Y278914D01*
X577779Y278917D01*
X577854Y279008D01*
X577929Y279096D01*
X577932Y279102D01*
X577936Y279107D01*
X577977Y279215D01*
X578021Y279324D01*
X578022Y279332D01*
X578024Y279337D01*
X578025Y279355D01*
X578040Y279491D01*
X578040Y314234D01*
X578021Y314349D01*
X578004Y314465D01*
X578001Y314470D01*
X578000Y314477D01*
X577946Y314579D01*
X577892Y314684D01*
X577888Y314688D01*
X577885Y314694D01*
X577801Y314774D01*
X577717Y314856D01*
X577710Y314860D01*
X577707Y314863D01*
X577690Y314871D01*
X577570Y314937D01*
X577478Y314975D01*
X574928Y317525D01*
X573548Y320857D01*
X573548Y339543D01*
X574928Y342875D01*
X577478Y345425D01*
X577570Y345463D01*
X577670Y345525D01*
X577769Y345584D01*
X577773Y345589D01*
X577779Y345592D01*
X577854Y345683D01*
X577929Y345771D01*
X577932Y345777D01*
X577936Y345782D01*
X577977Y345890D01*
X578021Y345999D01*
X578022Y346007D01*
X578024Y346012D01*
X578025Y346030D01*
X578040Y346166D01*
X578040Y380909D01*
X578038Y380921D01*
X578039Y380929D01*
X578030Y380971D01*
X578021Y381024D01*
X578004Y381140D01*
X578001Y381145D01*
X578000Y381152D01*
X577946Y381254D01*
X577892Y381359D01*
X577888Y381363D01*
X577885Y381369D01*
X577801Y381449D01*
X577717Y381531D01*
X577710Y381535D01*
X577707Y381538D01*
X577690Y381546D01*
X577570Y381612D01*
X577478Y381650D01*
X574928Y384200D01*
X573548Y387532D01*
X573548Y406218D01*
X574928Y409550D01*
X577478Y412100D01*
X577570Y412138D01*
X577670Y412200D01*
X577769Y412259D01*
X577773Y412264D01*
X577779Y412267D01*
X577854Y412358D01*
X577929Y412446D01*
X577932Y412452D01*
X577936Y412457D01*
X577977Y412565D01*
X578021Y412674D01*
X578022Y412682D01*
X578024Y412687D01*
X578025Y412705D01*
X578040Y412841D01*
X578040Y447584D01*
X578021Y447699D01*
X578004Y447815D01*
X578001Y447820D01*
X578000Y447827D01*
X577946Y447929D01*
X577892Y448034D01*
X577888Y448038D01*
X577885Y448044D01*
X577801Y448124D01*
X577717Y448206D01*
X577710Y448210D01*
X577707Y448213D01*
X577690Y448221D01*
X577570Y448287D01*
X577478Y448325D01*
X574928Y450875D01*
X573548Y454207D01*
X573548Y472893D01*
X574928Y476225D01*
X577478Y478775D01*
X577570Y478813D01*
X577670Y478875D01*
X577769Y478934D01*
X577773Y478939D01*
X577779Y478942D01*
X577854Y479033D01*
X577929Y479121D01*
X577932Y479127D01*
X577936Y479132D01*
X577977Y479240D01*
X578021Y479349D01*
X578022Y479357D01*
X578024Y479362D01*
X578025Y479380D01*
X578040Y479516D01*
X578040Y514259D01*
X578021Y514374D01*
X578004Y514490D01*
X578001Y514495D01*
X578000Y514502D01*
X577946Y514604D01*
X577892Y514709D01*
X577888Y514713D01*
X577885Y514719D01*
X577801Y514799D01*
X577717Y514881D01*
X577710Y514885D01*
X577707Y514888D01*
X577690Y514896D01*
X577570Y514962D01*
X577478Y515000D01*
X574928Y517550D01*
X573548Y520882D01*
X573548Y539568D01*
X574928Y542900D01*
X577478Y545450D01*
X577570Y545488D01*
X577670Y545550D01*
X577769Y545609D01*
X577773Y545614D01*
X577779Y545617D01*
X577854Y545708D01*
X577929Y545796D01*
X577932Y545802D01*
X577936Y545807D01*
X577977Y545915D01*
X578021Y546024D01*
X578022Y546032D01*
X578024Y546037D01*
X578025Y546055D01*
X578040Y546191D01*
X578040Y580934D01*
X578021Y581049D01*
X578004Y581165D01*
X578001Y581170D01*
X578000Y581177D01*
X577946Y581279D01*
X577892Y581384D01*
X577888Y581388D01*
X577885Y581394D01*
X577801Y581474D01*
X577717Y581556D01*
X577710Y581560D01*
X577707Y581563D01*
X577690Y581571D01*
X577570Y581637D01*
X577478Y581675D01*
X574928Y584225D01*
X573548Y587557D01*
X573548Y606243D01*
X574928Y609575D01*
X577478Y612125D01*
X577570Y612163D01*
X577670Y612225D01*
X577769Y612284D01*
X577773Y612289D01*
X577779Y612292D01*
X577854Y612383D01*
X577929Y612471D01*
X577932Y612477D01*
X577936Y612482D01*
X577977Y612589D01*
X578021Y612699D01*
X578022Y612707D01*
X578024Y612712D01*
X578025Y612730D01*
X578040Y612866D01*
X578040Y647609D01*
X578021Y647724D01*
X578004Y647840D01*
X578001Y647845D01*
X578000Y647852D01*
X577946Y647954D01*
X577892Y648059D01*
X577888Y648063D01*
X577885Y648069D01*
X577801Y648149D01*
X577717Y648231D01*
X577710Y648235D01*
X577707Y648238D01*
X577690Y648246D01*
X577570Y648312D01*
X577478Y648350D01*
X574928Y650900D01*
X573548Y654232D01*
X573548Y672918D01*
X574928Y676250D01*
X577478Y678800D01*
X577570Y678838D01*
X577670Y678900D01*
X577769Y678959D01*
X577773Y678964D01*
X577779Y678967D01*
X577854Y679058D01*
X577929Y679146D01*
X577932Y679152D01*
X577936Y679157D01*
X577977Y679265D01*
X578021Y679374D01*
X578022Y679382D01*
X578024Y679387D01*
X578025Y679405D01*
X578040Y679541D01*
X578040Y714284D01*
X578021Y714399D01*
X578004Y714515D01*
X578001Y714520D01*
X578000Y714527D01*
X577946Y714629D01*
X577892Y714734D01*
X577888Y714738D01*
X577885Y714744D01*
X577801Y714824D01*
X577717Y714906D01*
X577710Y714910D01*
X577707Y714913D01*
X577690Y714921D01*
X577570Y714987D01*
X577478Y715025D01*
X574928Y717575D01*
X573548Y720907D01*
X573548Y739593D01*
X574928Y742925D01*
X577478Y745475D01*
X580809Y746855D01*
X584416Y746855D01*
X587747Y745475D01*
X590297Y742925D01*
X591677Y739593D01*
X591677Y720907D01*
X590297Y717575D01*
X587747Y715025D01*
X587655Y714987D01*
X587555Y714925D01*
X587456Y714866D01*
X587452Y714861D01*
X587446Y714858D01*
X587371Y714767D01*
X587296Y714679D01*
X587293Y714673D01*
X587289Y714668D01*
X587248Y714560D01*
X587204Y714451D01*
X587203Y714443D01*
X587201Y714438D01*
X587200Y714420D01*
X587185Y714284D01*
X587185Y679541D01*
X587204Y679426D01*
X587221Y679310D01*
X587224Y679305D01*
X587225Y679298D01*
X587279Y679196D01*
X587333Y679091D01*
X587337Y679087D01*
X587340Y679081D01*
X587424Y679001D01*
X587508Y678919D01*
X587515Y678915D01*
X587518Y678912D01*
X587535Y678904D01*
X587655Y678838D01*
X587747Y678800D01*
X590297Y676250D01*
X591677Y672918D01*
X591677Y654232D01*
X590297Y650900D01*
X587747Y648350D01*
X587655Y648312D01*
X587555Y648250D01*
X587456Y648191D01*
X587452Y648186D01*
X587446Y648183D01*
X587371Y648092D01*
X587296Y648004D01*
X587293Y647998D01*
X587289Y647993D01*
X587247Y647883D01*
X587204Y647776D01*
X587203Y647768D01*
X587201Y647763D01*
X587200Y647745D01*
X587185Y647609D01*
X587185Y612866D01*
X587204Y612751D01*
X587221Y612635D01*
X587224Y612630D01*
X587225Y612623D01*
X587279Y612521D01*
X587333Y612416D01*
X587337Y612412D01*
X587340Y612406D01*
X587424Y612326D01*
X587508Y612244D01*
X587515Y612240D01*
X587518Y612237D01*
X587535Y612229D01*
X587655Y612163D01*
X587747Y612125D01*
X590297Y609575D01*
X591677Y606243D01*
X591677Y587557D01*
X590297Y584225D01*
X587747Y581675D01*
X587655Y581637D01*
X587555Y581575D01*
X587456Y581516D01*
X587452Y581511D01*
X587446Y581508D01*
X587371Y581417D01*
X587296Y581329D01*
X587293Y581323D01*
X587289Y581318D01*
X587247Y581209D01*
X587204Y581101D01*
X587203Y581093D01*
X587201Y581088D01*
X587200Y581070D01*
X587185Y580934D01*
X587185Y546191D01*
X587204Y546076D01*
X587221Y545960D01*
X587224Y545955D01*
X587225Y545948D01*
X587279Y545846D01*
X587333Y545741D01*
X587337Y545737D01*
X587340Y545731D01*
X587424Y545651D01*
X587508Y545569D01*
X587515Y545565D01*
X587518Y545562D01*
X587535Y545554D01*
X587655Y545488D01*
X587747Y545450D01*
X590297Y542900D01*
X591677Y539568D01*
X591677Y520882D01*
X590297Y517550D01*
X587747Y515000D01*
X587655Y514962D01*
X587555Y514900D01*
X587456Y514841D01*
X587452Y514836D01*
X587446Y514833D01*
X587371Y514742D01*
X587296Y514654D01*
X587293Y514648D01*
X587289Y514643D01*
X587248Y514535D01*
X587204Y514426D01*
X587203Y514418D01*
X587201Y514413D01*
X587200Y514395D01*
X587185Y514259D01*
X587185Y479516D01*
X587204Y479401D01*
X587221Y479285D01*
X587224Y479280D01*
X587225Y479273D01*
X587279Y479171D01*
X587333Y479066D01*
X587337Y479062D01*
X587340Y479056D01*
X587424Y478976D01*
X587508Y478894D01*
X587515Y478890D01*
X587518Y478887D01*
X587535Y478879D01*
X587655Y478813D01*
X587747Y478775D01*
X590297Y476225D01*
X591677Y472893D01*
X591677Y454207D01*
X590297Y450875D01*
X587747Y448325D01*
X587655Y448287D01*
X587555Y448225D01*
X587456Y448166D01*
X587452Y448161D01*
X587446Y448158D01*
X587371Y448067D01*
X587296Y447979D01*
X587293Y447973D01*
X587289Y447968D01*
X587248Y447860D01*
X587204Y447751D01*
X587203Y447743D01*
X587201Y447738D01*
X587200Y447720D01*
X587185Y447584D01*
X587185Y412841D01*
X587187Y412830D01*
X587186Y412823D01*
X587194Y412785D01*
X587204Y412726D01*
X587221Y412610D01*
X587224Y412605D01*
X587225Y412598D01*
X587279Y412496D01*
X587333Y412391D01*
X587337Y412387D01*
X587340Y412381D01*
X587424Y412301D01*
X587508Y412219D01*
X587515Y412215D01*
X587518Y412212D01*
X587535Y412204D01*
X587655Y412138D01*
X587747Y412100D01*
X590297Y409550D01*
X591677Y406218D01*
X591677Y387532D01*
X590297Y384200D01*
X587747Y381650D01*
X587655Y381612D01*
X587555Y381550D01*
X587456Y381491D01*
X587452Y381486D01*
X587446Y381483D01*
X587371Y381392D01*
X587296Y381304D01*
X587293Y381298D01*
X587289Y381293D01*
X587248Y381185D01*
X587204Y381076D01*
X587203Y381068D01*
X587201Y381063D01*
X587200Y381045D01*
X587185Y380909D01*
X587185Y346166D01*
X587204Y346051D01*
X587221Y345935D01*
X587224Y345930D01*
X587225Y345923D01*
X587279Y345821D01*
X587333Y345716D01*
X587337Y345712D01*
X587340Y345706D01*
X587424Y345626D01*
X587508Y345544D01*
X587515Y345540D01*
X587518Y345537D01*
X587535Y345529D01*
X587655Y345463D01*
X587747Y345425D01*
X590297Y342875D01*
X591677Y339543D01*
X591677Y320857D01*
X590297Y317525D01*
X587747Y314975D01*
X587655Y314937D01*
X587555Y314875D01*
X587456Y314816D01*
X587452Y314811D01*
X587446Y314808D01*
X587371Y314717D01*
X587296Y314629D01*
X587293Y314623D01*
X587289Y314618D01*
X587248Y314510D01*
X587204Y314401D01*
X587203Y314393D01*
X587201Y314388D01*
X587200Y314370D01*
X587185Y314234D01*
X587185Y279491D01*
X587204Y279376D01*
X587221Y279260D01*
X587224Y279255D01*
X587225Y279248D01*
X587279Y279146D01*
X587333Y279041D01*
X587337Y279037D01*
X587340Y279031D01*
X587424Y278951D01*
X587508Y278869D01*
X587515Y278865D01*
X587518Y278862D01*
X587535Y278854D01*
X587655Y278788D01*
X587747Y278750D01*
X590297Y276200D01*
X591677Y272868D01*
X591677Y254182D01*
X590297Y250850D01*
X587833Y248386D01*
X587821Y248370D01*
X587805Y248357D01*
X587749Y248270D01*
X587689Y248186D01*
X587683Y248167D01*
X587672Y248150D01*
X587647Y248050D01*
X587617Y247951D01*
X587617Y247931D01*
X587612Y247912D01*
X587620Y247809D01*
X587623Y247705D01*
X587630Y247686D01*
X587632Y247666D01*
X587672Y247572D01*
X587708Y247474D01*
X587720Y247458D01*
X587728Y247440D01*
X587833Y247309D01*
X605775Y229367D01*
X605849Y229314D01*
X605918Y229255D01*
X605948Y229242D01*
X605974Y229224D01*
X606061Y229197D01*
X606146Y229163D01*
X606187Y229158D01*
X606209Y229151D01*
X606242Y229152D01*
X606313Y229144D01*
X607036Y229144D01*
X610144Y226036D01*
X610144Y221639D01*
X607036Y218531D01*
X602639Y218531D01*
G37*
%LPD*%
%LPC*%
G36*
X456589Y218531D02*
X456589Y218531D01*
X453481Y221639D01*
X453481Y222362D01*
X453466Y222452D01*
X453459Y222543D01*
X453446Y222573D01*
X453441Y222605D01*
X453398Y222686D01*
X453363Y222769D01*
X453337Y222802D01*
X453326Y222822D01*
X453303Y222844D01*
X453258Y222900D01*
X431990Y244168D01*
X431990Y247559D01*
X431971Y247674D01*
X431954Y247790D01*
X431951Y247795D01*
X431950Y247802D01*
X431896Y247904D01*
X431842Y248009D01*
X431838Y248013D01*
X431835Y248019D01*
X431751Y248099D01*
X431667Y248181D01*
X431660Y248185D01*
X431657Y248188D01*
X431640Y248196D01*
X431520Y248262D01*
X431428Y248300D01*
X428878Y250850D01*
X427498Y254182D01*
X427498Y272868D01*
X428878Y276200D01*
X431428Y278750D01*
X431520Y278788D01*
X431620Y278850D01*
X431719Y278909D01*
X431723Y278914D01*
X431729Y278917D01*
X431804Y279008D01*
X431879Y279096D01*
X431882Y279102D01*
X431886Y279107D01*
X431927Y279215D01*
X431971Y279324D01*
X431972Y279332D01*
X431974Y279337D01*
X431975Y279355D01*
X431990Y279491D01*
X431990Y314234D01*
X431971Y314349D01*
X431954Y314465D01*
X431951Y314470D01*
X431950Y314477D01*
X431896Y314579D01*
X431842Y314684D01*
X431838Y314688D01*
X431835Y314694D01*
X431751Y314774D01*
X431667Y314856D01*
X431660Y314860D01*
X431657Y314863D01*
X431640Y314871D01*
X431520Y314937D01*
X431428Y314975D01*
X428878Y317525D01*
X427498Y320857D01*
X427498Y339543D01*
X428878Y342875D01*
X431428Y345425D01*
X431520Y345463D01*
X431620Y345525D01*
X431719Y345584D01*
X431723Y345589D01*
X431729Y345592D01*
X431804Y345683D01*
X431879Y345771D01*
X431882Y345777D01*
X431886Y345782D01*
X431927Y345890D01*
X431971Y345999D01*
X431972Y346007D01*
X431974Y346012D01*
X431975Y346030D01*
X431990Y346166D01*
X431990Y380909D01*
X431988Y380921D01*
X431989Y380929D01*
X431980Y380971D01*
X431971Y381024D01*
X431954Y381140D01*
X431951Y381145D01*
X431950Y381152D01*
X431896Y381254D01*
X431842Y381359D01*
X431838Y381363D01*
X431835Y381369D01*
X431751Y381449D01*
X431667Y381531D01*
X431660Y381535D01*
X431657Y381538D01*
X431640Y381546D01*
X431520Y381612D01*
X431428Y381650D01*
X428878Y384200D01*
X427498Y387532D01*
X427498Y406218D01*
X428878Y409550D01*
X431428Y412100D01*
X431520Y412138D01*
X431620Y412200D01*
X431719Y412259D01*
X431723Y412264D01*
X431729Y412267D01*
X431804Y412358D01*
X431879Y412446D01*
X431882Y412452D01*
X431886Y412457D01*
X431927Y412565D01*
X431971Y412674D01*
X431972Y412682D01*
X431974Y412687D01*
X431975Y412705D01*
X431990Y412841D01*
X431990Y447584D01*
X431971Y447699D01*
X431954Y447815D01*
X431951Y447820D01*
X431950Y447827D01*
X431896Y447929D01*
X431842Y448034D01*
X431838Y448038D01*
X431835Y448044D01*
X431751Y448124D01*
X431667Y448206D01*
X431660Y448210D01*
X431657Y448213D01*
X431640Y448221D01*
X431520Y448287D01*
X431428Y448325D01*
X428878Y450875D01*
X427498Y454207D01*
X427498Y472893D01*
X428878Y476225D01*
X431428Y478775D01*
X431520Y478813D01*
X431620Y478875D01*
X431719Y478934D01*
X431723Y478939D01*
X431729Y478942D01*
X431804Y479033D01*
X431879Y479121D01*
X431882Y479127D01*
X431886Y479132D01*
X431927Y479240D01*
X431971Y479349D01*
X431972Y479357D01*
X431974Y479362D01*
X431975Y479380D01*
X431990Y479516D01*
X431990Y514259D01*
X431971Y514374D01*
X431954Y514490D01*
X431951Y514495D01*
X431950Y514502D01*
X431896Y514604D01*
X431842Y514709D01*
X431838Y514713D01*
X431835Y514719D01*
X431751Y514799D01*
X431667Y514881D01*
X431660Y514885D01*
X431657Y514888D01*
X431640Y514896D01*
X431520Y514962D01*
X431428Y515000D01*
X428878Y517550D01*
X427498Y520882D01*
X427498Y539568D01*
X428878Y542900D01*
X431428Y545450D01*
X431520Y545488D01*
X431620Y545550D01*
X431719Y545609D01*
X431723Y545614D01*
X431729Y545617D01*
X431804Y545708D01*
X431879Y545796D01*
X431882Y545802D01*
X431886Y545807D01*
X431927Y545915D01*
X431971Y546024D01*
X431972Y546032D01*
X431974Y546037D01*
X431975Y546055D01*
X431990Y546191D01*
X431990Y580934D01*
X431971Y581049D01*
X431954Y581165D01*
X431951Y581170D01*
X431950Y581177D01*
X431896Y581279D01*
X431842Y581384D01*
X431838Y581388D01*
X431835Y581394D01*
X431751Y581474D01*
X431667Y581556D01*
X431660Y581560D01*
X431657Y581563D01*
X431640Y581571D01*
X431520Y581637D01*
X431428Y581675D01*
X428878Y584225D01*
X427498Y587557D01*
X427498Y606243D01*
X428878Y609575D01*
X431428Y612125D01*
X431520Y612163D01*
X431620Y612225D01*
X431719Y612284D01*
X431723Y612289D01*
X431729Y612292D01*
X431804Y612383D01*
X431879Y612471D01*
X431882Y612477D01*
X431886Y612482D01*
X431927Y612589D01*
X431971Y612699D01*
X431972Y612707D01*
X431974Y612712D01*
X431975Y612730D01*
X431990Y612866D01*
X431990Y647609D01*
X431971Y647724D01*
X431954Y647840D01*
X431951Y647845D01*
X431950Y647852D01*
X431896Y647954D01*
X431842Y648059D01*
X431838Y648063D01*
X431835Y648069D01*
X431751Y648149D01*
X431667Y648231D01*
X431660Y648235D01*
X431657Y648238D01*
X431640Y648246D01*
X431520Y648312D01*
X431428Y648350D01*
X428878Y650900D01*
X427498Y654232D01*
X427498Y672918D01*
X428878Y676250D01*
X431428Y678800D01*
X431520Y678838D01*
X431620Y678900D01*
X431719Y678959D01*
X431723Y678964D01*
X431729Y678967D01*
X431804Y679058D01*
X431879Y679146D01*
X431882Y679152D01*
X431886Y679157D01*
X431927Y679265D01*
X431971Y679374D01*
X431972Y679382D01*
X431974Y679387D01*
X431975Y679405D01*
X431990Y679541D01*
X431990Y714284D01*
X431971Y714399D01*
X431954Y714515D01*
X431951Y714520D01*
X431950Y714527D01*
X431896Y714629D01*
X431842Y714734D01*
X431838Y714738D01*
X431835Y714744D01*
X431751Y714824D01*
X431667Y714906D01*
X431660Y714910D01*
X431657Y714913D01*
X431640Y714921D01*
X431520Y714987D01*
X431428Y715025D01*
X428878Y717575D01*
X427498Y720907D01*
X427498Y739593D01*
X428878Y742925D01*
X431428Y745475D01*
X434759Y746855D01*
X438366Y746855D01*
X441697Y745475D01*
X444247Y742925D01*
X445627Y739593D01*
X445627Y720907D01*
X444247Y717575D01*
X441697Y715025D01*
X441605Y714987D01*
X441505Y714925D01*
X441406Y714866D01*
X441402Y714861D01*
X441396Y714858D01*
X441321Y714767D01*
X441246Y714679D01*
X441243Y714673D01*
X441239Y714668D01*
X441198Y714560D01*
X441154Y714451D01*
X441153Y714443D01*
X441151Y714438D01*
X441150Y714420D01*
X441135Y714284D01*
X441135Y679541D01*
X441154Y679426D01*
X441171Y679310D01*
X441174Y679305D01*
X441175Y679298D01*
X441229Y679196D01*
X441283Y679091D01*
X441287Y679087D01*
X441290Y679081D01*
X441374Y679001D01*
X441458Y678919D01*
X441465Y678915D01*
X441468Y678912D01*
X441485Y678904D01*
X441605Y678838D01*
X441697Y678800D01*
X444247Y676250D01*
X445627Y672918D01*
X445627Y654232D01*
X444247Y650900D01*
X441697Y648350D01*
X441605Y648312D01*
X441505Y648250D01*
X441406Y648191D01*
X441402Y648186D01*
X441396Y648183D01*
X441321Y648092D01*
X441246Y648004D01*
X441243Y647998D01*
X441239Y647993D01*
X441197Y647883D01*
X441154Y647776D01*
X441153Y647768D01*
X441151Y647763D01*
X441150Y647745D01*
X441135Y647609D01*
X441135Y612866D01*
X441154Y612751D01*
X441171Y612635D01*
X441174Y612630D01*
X441175Y612623D01*
X441229Y612521D01*
X441283Y612416D01*
X441287Y612412D01*
X441290Y612406D01*
X441374Y612326D01*
X441458Y612244D01*
X441465Y612240D01*
X441468Y612237D01*
X441485Y612229D01*
X441605Y612163D01*
X441697Y612125D01*
X444247Y609575D01*
X445627Y606243D01*
X445627Y587557D01*
X444247Y584225D01*
X441697Y581675D01*
X441605Y581637D01*
X441505Y581575D01*
X441406Y581516D01*
X441402Y581511D01*
X441396Y581508D01*
X441321Y581417D01*
X441246Y581329D01*
X441243Y581323D01*
X441239Y581318D01*
X441197Y581209D01*
X441154Y581101D01*
X441153Y581093D01*
X441151Y581088D01*
X441150Y581070D01*
X441135Y580934D01*
X441135Y546191D01*
X441154Y546076D01*
X441171Y545960D01*
X441174Y545955D01*
X441175Y545948D01*
X441229Y545846D01*
X441283Y545741D01*
X441287Y545737D01*
X441290Y545731D01*
X441374Y545651D01*
X441458Y545569D01*
X441465Y545565D01*
X441468Y545562D01*
X441485Y545554D01*
X441605Y545488D01*
X441697Y545450D01*
X444247Y542900D01*
X445627Y539568D01*
X445627Y520882D01*
X444247Y517550D01*
X441697Y515000D01*
X441605Y514962D01*
X441505Y514900D01*
X441406Y514841D01*
X441402Y514836D01*
X441396Y514833D01*
X441321Y514742D01*
X441246Y514654D01*
X441243Y514648D01*
X441239Y514643D01*
X441198Y514535D01*
X441154Y514426D01*
X441153Y514418D01*
X441151Y514413D01*
X441150Y514395D01*
X441135Y514259D01*
X441135Y479516D01*
X441154Y479401D01*
X441171Y479285D01*
X441174Y479280D01*
X441175Y479273D01*
X441229Y479171D01*
X441283Y479066D01*
X441287Y479062D01*
X441290Y479056D01*
X441374Y478976D01*
X441458Y478894D01*
X441465Y478890D01*
X441468Y478887D01*
X441485Y478879D01*
X441605Y478813D01*
X441697Y478775D01*
X444247Y476225D01*
X445627Y472893D01*
X445627Y454207D01*
X444247Y450875D01*
X441697Y448325D01*
X441605Y448287D01*
X441505Y448225D01*
X441406Y448166D01*
X441402Y448161D01*
X441396Y448158D01*
X441321Y448067D01*
X441246Y447979D01*
X441243Y447973D01*
X441239Y447968D01*
X441198Y447860D01*
X441154Y447751D01*
X441153Y447743D01*
X441151Y447738D01*
X441150Y447720D01*
X441135Y447584D01*
X441135Y412841D01*
X441137Y412830D01*
X441136Y412823D01*
X441144Y412785D01*
X441154Y412726D01*
X441171Y412610D01*
X441174Y412605D01*
X441175Y412598D01*
X441229Y412496D01*
X441283Y412391D01*
X441287Y412387D01*
X441290Y412381D01*
X441374Y412301D01*
X441458Y412219D01*
X441465Y412215D01*
X441468Y412212D01*
X441485Y412204D01*
X441605Y412138D01*
X441697Y412100D01*
X444247Y409550D01*
X445627Y406218D01*
X445627Y387532D01*
X444247Y384200D01*
X441697Y381650D01*
X441605Y381612D01*
X441505Y381550D01*
X441406Y381491D01*
X441402Y381486D01*
X441396Y381483D01*
X441321Y381392D01*
X441246Y381304D01*
X441243Y381298D01*
X441239Y381293D01*
X441198Y381185D01*
X441154Y381076D01*
X441153Y381068D01*
X441151Y381063D01*
X441150Y381045D01*
X441135Y380909D01*
X441135Y346166D01*
X441154Y346051D01*
X441171Y345935D01*
X441174Y345930D01*
X441175Y345923D01*
X441229Y345821D01*
X441283Y345716D01*
X441287Y345712D01*
X441290Y345706D01*
X441374Y345626D01*
X441458Y345544D01*
X441465Y345540D01*
X441468Y345537D01*
X441485Y345529D01*
X441605Y345463D01*
X441697Y345425D01*
X444247Y342875D01*
X445627Y339543D01*
X445627Y320857D01*
X444247Y317525D01*
X441697Y314975D01*
X441605Y314937D01*
X441505Y314875D01*
X441406Y314816D01*
X441402Y314811D01*
X441396Y314808D01*
X441321Y314717D01*
X441246Y314629D01*
X441243Y314623D01*
X441239Y314618D01*
X441198Y314510D01*
X441154Y314401D01*
X441153Y314393D01*
X441151Y314388D01*
X441150Y314370D01*
X441135Y314234D01*
X441135Y279491D01*
X441154Y279376D01*
X441171Y279260D01*
X441174Y279255D01*
X441175Y279248D01*
X441229Y279146D01*
X441283Y279041D01*
X441287Y279037D01*
X441290Y279031D01*
X441374Y278951D01*
X441458Y278869D01*
X441465Y278865D01*
X441468Y278862D01*
X441485Y278854D01*
X441605Y278788D01*
X441697Y278750D01*
X444247Y276200D01*
X445627Y272868D01*
X445627Y254182D01*
X444247Y250850D01*
X441783Y248386D01*
X441771Y248370D01*
X441755Y248357D01*
X441699Y248270D01*
X441639Y248186D01*
X441633Y248167D01*
X441622Y248150D01*
X441597Y248050D01*
X441567Y247951D01*
X441567Y247931D01*
X441562Y247912D01*
X441570Y247809D01*
X441573Y247705D01*
X441580Y247686D01*
X441582Y247666D01*
X441622Y247572D01*
X441658Y247474D01*
X441670Y247458D01*
X441678Y247440D01*
X441783Y247309D01*
X459725Y229367D01*
X459799Y229314D01*
X459868Y229255D01*
X459898Y229242D01*
X459924Y229224D01*
X460011Y229197D01*
X460096Y229163D01*
X460137Y229158D01*
X460159Y229151D01*
X460192Y229152D01*
X460263Y229144D01*
X460986Y229144D01*
X464094Y226036D01*
X464094Y221639D01*
X460986Y218531D01*
X456589Y218531D01*
G37*
%LPD*%
%LPC*%
G36*
X675664Y218531D02*
X675664Y218531D01*
X672556Y221639D01*
X672556Y222362D01*
X672541Y222452D01*
X672534Y222543D01*
X672521Y222573D01*
X672516Y222605D01*
X672473Y222686D01*
X672438Y222769D01*
X672412Y222802D01*
X672401Y222822D01*
X672378Y222844D01*
X672333Y222900D01*
X651065Y244168D01*
X651065Y247559D01*
X651046Y247674D01*
X651029Y247790D01*
X651026Y247795D01*
X651025Y247802D01*
X650971Y247904D01*
X650917Y248009D01*
X650913Y248013D01*
X650910Y248019D01*
X650826Y248099D01*
X650742Y248181D01*
X650735Y248185D01*
X650732Y248188D01*
X650715Y248196D01*
X650595Y248262D01*
X650503Y248300D01*
X647953Y250850D01*
X646573Y254182D01*
X646573Y272868D01*
X647953Y276200D01*
X650503Y278750D01*
X650595Y278788D01*
X650695Y278850D01*
X650794Y278909D01*
X650798Y278914D01*
X650804Y278917D01*
X650879Y279008D01*
X650954Y279096D01*
X650957Y279102D01*
X650961Y279107D01*
X651002Y279215D01*
X651046Y279324D01*
X651047Y279332D01*
X651049Y279337D01*
X651050Y279355D01*
X651065Y279491D01*
X651065Y314234D01*
X651046Y314349D01*
X651029Y314465D01*
X651026Y314470D01*
X651025Y314477D01*
X650971Y314579D01*
X650917Y314684D01*
X650913Y314688D01*
X650910Y314694D01*
X650826Y314774D01*
X650742Y314856D01*
X650735Y314860D01*
X650732Y314863D01*
X650715Y314871D01*
X650595Y314937D01*
X650503Y314975D01*
X647953Y317525D01*
X646573Y320857D01*
X646573Y339543D01*
X647953Y342875D01*
X650503Y345425D01*
X650595Y345463D01*
X650695Y345525D01*
X650794Y345584D01*
X650798Y345589D01*
X650804Y345592D01*
X650879Y345683D01*
X650954Y345771D01*
X650957Y345777D01*
X650961Y345782D01*
X651002Y345890D01*
X651046Y345999D01*
X651047Y346007D01*
X651049Y346012D01*
X651050Y346030D01*
X651065Y346166D01*
X651065Y380909D01*
X651063Y380921D01*
X651064Y380929D01*
X651055Y380971D01*
X651046Y381024D01*
X651029Y381140D01*
X651026Y381145D01*
X651025Y381152D01*
X650971Y381254D01*
X650917Y381359D01*
X650913Y381363D01*
X650910Y381369D01*
X650826Y381449D01*
X650742Y381531D01*
X650735Y381535D01*
X650732Y381538D01*
X650715Y381546D01*
X650595Y381612D01*
X650503Y381650D01*
X647953Y384200D01*
X646573Y387532D01*
X646573Y406218D01*
X647953Y409550D01*
X650503Y412100D01*
X650595Y412138D01*
X650695Y412200D01*
X650794Y412259D01*
X650798Y412264D01*
X650804Y412267D01*
X650879Y412358D01*
X650954Y412446D01*
X650957Y412452D01*
X650961Y412457D01*
X651002Y412565D01*
X651046Y412674D01*
X651047Y412682D01*
X651049Y412687D01*
X651050Y412705D01*
X651065Y412841D01*
X651065Y447584D01*
X651046Y447699D01*
X651029Y447815D01*
X651026Y447820D01*
X651025Y447827D01*
X650971Y447929D01*
X650917Y448034D01*
X650913Y448038D01*
X650910Y448044D01*
X650826Y448124D01*
X650742Y448206D01*
X650735Y448210D01*
X650732Y448213D01*
X650715Y448221D01*
X650595Y448287D01*
X650503Y448325D01*
X647953Y450875D01*
X646573Y454207D01*
X646573Y472893D01*
X647953Y476225D01*
X650503Y478775D01*
X650595Y478813D01*
X650695Y478875D01*
X650794Y478934D01*
X650798Y478939D01*
X650804Y478942D01*
X650879Y479033D01*
X650954Y479121D01*
X650957Y479127D01*
X650961Y479132D01*
X651002Y479240D01*
X651046Y479349D01*
X651047Y479357D01*
X651049Y479362D01*
X651050Y479380D01*
X651065Y479516D01*
X651065Y514259D01*
X651046Y514374D01*
X651029Y514490D01*
X651026Y514495D01*
X651025Y514502D01*
X650971Y514604D01*
X650917Y514709D01*
X650913Y514713D01*
X650910Y514719D01*
X650826Y514799D01*
X650742Y514881D01*
X650735Y514885D01*
X650732Y514888D01*
X650715Y514896D01*
X650595Y514962D01*
X650503Y515000D01*
X647953Y517550D01*
X646573Y520882D01*
X646573Y539568D01*
X647953Y542900D01*
X650503Y545450D01*
X650595Y545488D01*
X650694Y545549D01*
X650794Y545609D01*
X650799Y545614D01*
X650804Y545617D01*
X650878Y545707D01*
X650954Y545796D01*
X650957Y545802D01*
X650961Y545807D01*
X651002Y545915D01*
X651046Y546024D01*
X651047Y546032D01*
X651049Y546036D01*
X651050Y546055D01*
X651065Y546191D01*
X651065Y580934D01*
X651046Y581049D01*
X651029Y581165D01*
X651026Y581170D01*
X651025Y581177D01*
X650971Y581279D01*
X650917Y581384D01*
X650913Y581388D01*
X650910Y581394D01*
X650826Y581474D01*
X650742Y581556D01*
X650735Y581560D01*
X650732Y581563D01*
X650715Y581571D01*
X650595Y581637D01*
X650503Y581675D01*
X647953Y584225D01*
X646573Y587557D01*
X646573Y606243D01*
X647953Y609575D01*
X650503Y612125D01*
X650595Y612163D01*
X650695Y612225D01*
X650794Y612284D01*
X650798Y612289D01*
X650804Y612292D01*
X650879Y612383D01*
X650954Y612471D01*
X650957Y612477D01*
X650961Y612482D01*
X651002Y612589D01*
X651046Y612699D01*
X651047Y612707D01*
X651049Y612712D01*
X651050Y612730D01*
X651065Y612866D01*
X651065Y647609D01*
X651046Y647724D01*
X651029Y647840D01*
X651026Y647845D01*
X651025Y647852D01*
X650971Y647954D01*
X650917Y648059D01*
X650913Y648063D01*
X650910Y648069D01*
X650826Y648149D01*
X650742Y648231D01*
X650735Y648235D01*
X650732Y648238D01*
X650715Y648246D01*
X650595Y648312D01*
X650503Y648350D01*
X647953Y650900D01*
X646573Y654232D01*
X646573Y672918D01*
X647953Y676250D01*
X650503Y678800D01*
X650595Y678838D01*
X650695Y678900D01*
X650794Y678959D01*
X650798Y678964D01*
X650804Y678967D01*
X650879Y679058D01*
X650954Y679146D01*
X650957Y679152D01*
X650961Y679157D01*
X651002Y679265D01*
X651046Y679374D01*
X651047Y679382D01*
X651049Y679387D01*
X651050Y679405D01*
X651065Y679541D01*
X651065Y714284D01*
X651046Y714399D01*
X651029Y714515D01*
X651026Y714520D01*
X651025Y714527D01*
X650971Y714629D01*
X650917Y714734D01*
X650913Y714738D01*
X650910Y714744D01*
X650826Y714824D01*
X650742Y714906D01*
X650735Y714910D01*
X650732Y714913D01*
X650715Y714921D01*
X650595Y714987D01*
X650503Y715025D01*
X647953Y717575D01*
X646573Y720907D01*
X646573Y739593D01*
X647953Y742925D01*
X650503Y745475D01*
X653834Y746855D01*
X657441Y746855D01*
X660772Y745475D01*
X663322Y742925D01*
X664702Y739593D01*
X664702Y720907D01*
X663322Y717575D01*
X660772Y715025D01*
X660680Y714987D01*
X660580Y714925D01*
X660481Y714866D01*
X660477Y714861D01*
X660471Y714858D01*
X660396Y714767D01*
X660321Y714679D01*
X660318Y714673D01*
X660314Y714668D01*
X660273Y714560D01*
X660229Y714451D01*
X660228Y714443D01*
X660226Y714438D01*
X660225Y714420D01*
X660210Y714284D01*
X660210Y679541D01*
X660229Y679426D01*
X660246Y679310D01*
X660249Y679305D01*
X660250Y679298D01*
X660304Y679196D01*
X660358Y679091D01*
X660362Y679087D01*
X660365Y679081D01*
X660449Y679001D01*
X660533Y678919D01*
X660540Y678915D01*
X660543Y678912D01*
X660560Y678904D01*
X660680Y678838D01*
X660772Y678800D01*
X663322Y676250D01*
X664702Y672918D01*
X664702Y654232D01*
X663322Y650900D01*
X660772Y648350D01*
X660680Y648312D01*
X660580Y648250D01*
X660481Y648191D01*
X660477Y648186D01*
X660471Y648183D01*
X660396Y648092D01*
X660321Y648004D01*
X660318Y647998D01*
X660314Y647993D01*
X660272Y647883D01*
X660229Y647776D01*
X660228Y647768D01*
X660226Y647763D01*
X660225Y647745D01*
X660210Y647609D01*
X660210Y612866D01*
X660229Y612751D01*
X660246Y612635D01*
X660249Y612630D01*
X660250Y612623D01*
X660304Y612521D01*
X660358Y612416D01*
X660362Y612412D01*
X660365Y612406D01*
X660449Y612326D01*
X660533Y612244D01*
X660540Y612240D01*
X660543Y612237D01*
X660560Y612229D01*
X660680Y612163D01*
X660772Y612125D01*
X663322Y609575D01*
X664702Y606243D01*
X664702Y587557D01*
X663322Y584225D01*
X660772Y581675D01*
X660680Y581637D01*
X660580Y581575D01*
X660481Y581516D01*
X660477Y581511D01*
X660471Y581508D01*
X660396Y581417D01*
X660321Y581329D01*
X660318Y581323D01*
X660314Y581318D01*
X660272Y581209D01*
X660229Y581101D01*
X660228Y581093D01*
X660226Y581088D01*
X660225Y581070D01*
X660210Y580934D01*
X660210Y546191D01*
X660229Y546076D01*
X660246Y545960D01*
X660249Y545955D01*
X660250Y545948D01*
X660305Y545845D01*
X660358Y545741D01*
X660362Y545737D01*
X660365Y545731D01*
X660450Y545650D01*
X660533Y545569D01*
X660540Y545565D01*
X660543Y545562D01*
X660560Y545554D01*
X660680Y545488D01*
X660772Y545450D01*
X663322Y542900D01*
X664702Y539568D01*
X664702Y520882D01*
X663322Y517550D01*
X660772Y515000D01*
X660680Y514962D01*
X660580Y514900D01*
X660481Y514841D01*
X660477Y514836D01*
X660471Y514833D01*
X660396Y514742D01*
X660321Y514654D01*
X660318Y514648D01*
X660314Y514643D01*
X660273Y514535D01*
X660229Y514426D01*
X660228Y514418D01*
X660226Y514413D01*
X660225Y514395D01*
X660210Y514259D01*
X660210Y479516D01*
X660229Y479401D01*
X660246Y479285D01*
X660249Y479280D01*
X660250Y479273D01*
X660304Y479171D01*
X660358Y479066D01*
X660362Y479062D01*
X660365Y479056D01*
X660449Y478976D01*
X660533Y478894D01*
X660540Y478890D01*
X660543Y478887D01*
X660560Y478879D01*
X660680Y478813D01*
X660772Y478775D01*
X663322Y476225D01*
X664702Y472893D01*
X664702Y454207D01*
X663322Y450875D01*
X660772Y448325D01*
X660680Y448287D01*
X660580Y448225D01*
X660481Y448166D01*
X660477Y448161D01*
X660471Y448158D01*
X660396Y448067D01*
X660321Y447979D01*
X660318Y447973D01*
X660314Y447968D01*
X660273Y447860D01*
X660229Y447751D01*
X660228Y447743D01*
X660226Y447738D01*
X660225Y447720D01*
X660210Y447584D01*
X660210Y412841D01*
X660212Y412830D01*
X660211Y412823D01*
X660219Y412785D01*
X660229Y412726D01*
X660246Y412610D01*
X660249Y412605D01*
X660250Y412598D01*
X660304Y412496D01*
X660358Y412391D01*
X660362Y412387D01*
X660365Y412381D01*
X660449Y412301D01*
X660533Y412219D01*
X660540Y412215D01*
X660543Y412212D01*
X660560Y412204D01*
X660680Y412138D01*
X660772Y412100D01*
X663322Y409550D01*
X664702Y406218D01*
X664702Y387532D01*
X663322Y384200D01*
X660772Y381650D01*
X660680Y381612D01*
X660580Y381550D01*
X660481Y381491D01*
X660477Y381486D01*
X660471Y381483D01*
X660396Y381392D01*
X660321Y381304D01*
X660318Y381298D01*
X660314Y381293D01*
X660273Y381185D01*
X660229Y381076D01*
X660228Y381068D01*
X660226Y381063D01*
X660225Y381045D01*
X660210Y380909D01*
X660210Y346166D01*
X660229Y346051D01*
X660246Y345935D01*
X660249Y345930D01*
X660250Y345923D01*
X660304Y345821D01*
X660358Y345716D01*
X660362Y345712D01*
X660365Y345706D01*
X660449Y345626D01*
X660533Y345544D01*
X660540Y345540D01*
X660543Y345537D01*
X660560Y345529D01*
X660680Y345463D01*
X660772Y345425D01*
X663322Y342875D01*
X664702Y339543D01*
X664702Y320857D01*
X663322Y317525D01*
X660772Y314975D01*
X660680Y314937D01*
X660580Y314875D01*
X660481Y314816D01*
X660477Y314811D01*
X660471Y314808D01*
X660396Y314717D01*
X660321Y314629D01*
X660318Y314623D01*
X660314Y314618D01*
X660273Y314510D01*
X660229Y314401D01*
X660228Y314393D01*
X660226Y314388D01*
X660225Y314370D01*
X660210Y314234D01*
X660210Y279491D01*
X660229Y279376D01*
X660246Y279260D01*
X660249Y279255D01*
X660250Y279248D01*
X660304Y279146D01*
X660358Y279041D01*
X660362Y279037D01*
X660365Y279031D01*
X660449Y278951D01*
X660533Y278869D01*
X660540Y278865D01*
X660543Y278862D01*
X660560Y278854D01*
X660680Y278788D01*
X660772Y278750D01*
X663322Y276200D01*
X664702Y272868D01*
X664702Y254182D01*
X663322Y250850D01*
X660858Y248386D01*
X660846Y248370D01*
X660830Y248357D01*
X660774Y248270D01*
X660714Y248186D01*
X660708Y248167D01*
X660697Y248150D01*
X660672Y248050D01*
X660642Y247951D01*
X660642Y247931D01*
X660637Y247912D01*
X660645Y247809D01*
X660648Y247705D01*
X660655Y247686D01*
X660657Y247666D01*
X660697Y247572D01*
X660733Y247474D01*
X660745Y247458D01*
X660753Y247440D01*
X660858Y247309D01*
X678800Y229367D01*
X678874Y229314D01*
X678943Y229255D01*
X678973Y229242D01*
X678999Y229224D01*
X679086Y229197D01*
X679171Y229163D01*
X679212Y229158D01*
X679234Y229151D01*
X679267Y229152D01*
X679338Y229144D01*
X680061Y229144D01*
X683169Y226036D01*
X683169Y221639D01*
X680061Y218531D01*
X675664Y218531D01*
G37*
%LPD*%
%LPC*%
G36*
X529614Y218531D02*
X529614Y218531D01*
X526506Y221639D01*
X526506Y222362D01*
X526491Y222452D01*
X526484Y222543D01*
X526471Y222573D01*
X526466Y222605D01*
X526423Y222686D01*
X526388Y222769D01*
X526362Y222802D01*
X526351Y222822D01*
X526328Y222844D01*
X526283Y222900D01*
X505015Y244168D01*
X505015Y247559D01*
X504996Y247674D01*
X504979Y247790D01*
X504976Y247795D01*
X504975Y247802D01*
X504921Y247904D01*
X504867Y248009D01*
X504863Y248013D01*
X504860Y248019D01*
X504776Y248099D01*
X504692Y248181D01*
X504685Y248185D01*
X504682Y248188D01*
X504665Y248196D01*
X504545Y248262D01*
X504453Y248300D01*
X501903Y250850D01*
X500523Y254182D01*
X500523Y272868D01*
X501903Y276200D01*
X504453Y278750D01*
X504545Y278788D01*
X504645Y278850D01*
X504744Y278909D01*
X504748Y278914D01*
X504754Y278917D01*
X504829Y279008D01*
X504904Y279096D01*
X504907Y279102D01*
X504911Y279107D01*
X504952Y279215D01*
X504996Y279324D01*
X504997Y279332D01*
X504999Y279337D01*
X505000Y279355D01*
X505015Y279491D01*
X505015Y314234D01*
X504996Y314349D01*
X504979Y314465D01*
X504976Y314470D01*
X504975Y314477D01*
X504921Y314579D01*
X504867Y314684D01*
X504863Y314688D01*
X504860Y314694D01*
X504776Y314774D01*
X504692Y314856D01*
X504685Y314860D01*
X504682Y314863D01*
X504665Y314871D01*
X504545Y314937D01*
X504453Y314975D01*
X501903Y317525D01*
X500523Y320857D01*
X500523Y339543D01*
X501903Y342875D01*
X504453Y345425D01*
X504545Y345463D01*
X504645Y345525D01*
X504744Y345584D01*
X504748Y345589D01*
X504754Y345592D01*
X504829Y345683D01*
X504904Y345771D01*
X504907Y345777D01*
X504911Y345782D01*
X504952Y345890D01*
X504996Y345999D01*
X504997Y346007D01*
X504999Y346012D01*
X505000Y346030D01*
X505015Y346166D01*
X505015Y380909D01*
X505013Y380921D01*
X505014Y380929D01*
X505005Y380971D01*
X504996Y381024D01*
X504979Y381140D01*
X504976Y381145D01*
X504975Y381152D01*
X504920Y381255D01*
X504867Y381359D01*
X504863Y381363D01*
X504860Y381369D01*
X504775Y381450D01*
X504692Y381531D01*
X504685Y381535D01*
X504682Y381538D01*
X504665Y381546D01*
X504545Y381612D01*
X504453Y381650D01*
X501903Y384200D01*
X500523Y387532D01*
X500523Y406218D01*
X501903Y409550D01*
X504453Y412100D01*
X504545Y412138D01*
X504645Y412200D01*
X504744Y412259D01*
X504748Y412264D01*
X504754Y412267D01*
X504829Y412358D01*
X504904Y412446D01*
X504907Y412452D01*
X504911Y412457D01*
X504952Y412565D01*
X504996Y412674D01*
X504997Y412682D01*
X504999Y412687D01*
X505000Y412705D01*
X505015Y412841D01*
X505015Y447584D01*
X504996Y447699D01*
X504979Y447815D01*
X504976Y447820D01*
X504975Y447827D01*
X504921Y447929D01*
X504867Y448034D01*
X504863Y448038D01*
X504860Y448044D01*
X504776Y448124D01*
X504692Y448206D01*
X504685Y448210D01*
X504682Y448213D01*
X504665Y448221D01*
X504545Y448287D01*
X504453Y448325D01*
X501903Y450875D01*
X500523Y454207D01*
X500523Y472893D01*
X501903Y476225D01*
X504453Y478775D01*
X504545Y478813D01*
X504645Y478875D01*
X504744Y478934D01*
X504748Y478939D01*
X504754Y478942D01*
X504829Y479033D01*
X504904Y479121D01*
X504907Y479127D01*
X504911Y479132D01*
X504952Y479240D01*
X504996Y479349D01*
X504997Y479357D01*
X504999Y479362D01*
X505000Y479380D01*
X505015Y479516D01*
X505015Y514259D01*
X504996Y514374D01*
X504979Y514490D01*
X504976Y514495D01*
X504975Y514502D01*
X504921Y514604D01*
X504867Y514709D01*
X504863Y514713D01*
X504860Y514719D01*
X504776Y514799D01*
X504692Y514881D01*
X504685Y514885D01*
X504682Y514888D01*
X504665Y514896D01*
X504545Y514962D01*
X504453Y515000D01*
X501903Y517550D01*
X500523Y520882D01*
X500523Y539568D01*
X501903Y542900D01*
X504453Y545450D01*
X504545Y545488D01*
X504645Y545550D01*
X504744Y545609D01*
X504748Y545614D01*
X504754Y545617D01*
X504829Y545708D01*
X504904Y545796D01*
X504907Y545802D01*
X504911Y545807D01*
X504952Y545915D01*
X504996Y546024D01*
X504997Y546032D01*
X504999Y546037D01*
X505000Y546055D01*
X505015Y546191D01*
X505015Y580934D01*
X504996Y581049D01*
X504979Y581165D01*
X504976Y581170D01*
X504975Y581177D01*
X504921Y581279D01*
X504867Y581384D01*
X504863Y581388D01*
X504860Y581394D01*
X504776Y581474D01*
X504692Y581556D01*
X504685Y581560D01*
X504682Y581563D01*
X504665Y581571D01*
X504545Y581637D01*
X504453Y581675D01*
X501903Y584225D01*
X500523Y587557D01*
X500523Y606243D01*
X501903Y609575D01*
X504453Y612125D01*
X504545Y612163D01*
X504645Y612225D01*
X504744Y612284D01*
X504748Y612289D01*
X504754Y612292D01*
X504829Y612383D01*
X504904Y612471D01*
X504907Y612477D01*
X504911Y612482D01*
X504952Y612589D01*
X504996Y612699D01*
X504997Y612707D01*
X504999Y612712D01*
X505000Y612730D01*
X505015Y612866D01*
X505015Y647609D01*
X504996Y647724D01*
X504979Y647840D01*
X504976Y647845D01*
X504975Y647852D01*
X504921Y647954D01*
X504867Y648059D01*
X504863Y648063D01*
X504860Y648069D01*
X504776Y648149D01*
X504692Y648231D01*
X504685Y648235D01*
X504682Y648238D01*
X504665Y648246D01*
X504545Y648312D01*
X504453Y648350D01*
X501903Y650900D01*
X500523Y654232D01*
X500523Y672918D01*
X501903Y676250D01*
X504453Y678800D01*
X504545Y678838D01*
X504645Y678900D01*
X504744Y678959D01*
X504748Y678964D01*
X504754Y678967D01*
X504829Y679058D01*
X504904Y679146D01*
X504907Y679152D01*
X504911Y679157D01*
X504952Y679265D01*
X504996Y679374D01*
X504997Y679382D01*
X504999Y679387D01*
X505000Y679405D01*
X505015Y679541D01*
X505015Y714284D01*
X504996Y714399D01*
X504979Y714515D01*
X504976Y714520D01*
X504975Y714527D01*
X504921Y714629D01*
X504867Y714734D01*
X504863Y714738D01*
X504860Y714744D01*
X504776Y714824D01*
X504692Y714906D01*
X504685Y714910D01*
X504682Y714913D01*
X504665Y714921D01*
X504545Y714987D01*
X504453Y715025D01*
X501903Y717575D01*
X500523Y720907D01*
X500523Y739593D01*
X501903Y742925D01*
X504453Y745475D01*
X507784Y746855D01*
X511391Y746855D01*
X514722Y745475D01*
X517272Y742925D01*
X518652Y739593D01*
X518652Y720907D01*
X517272Y717575D01*
X514722Y715025D01*
X514630Y714987D01*
X514530Y714925D01*
X514431Y714866D01*
X514427Y714861D01*
X514421Y714858D01*
X514346Y714767D01*
X514271Y714679D01*
X514268Y714673D01*
X514264Y714668D01*
X514223Y714560D01*
X514179Y714451D01*
X514178Y714443D01*
X514176Y714438D01*
X514175Y714420D01*
X514160Y714284D01*
X514160Y679541D01*
X514179Y679426D01*
X514196Y679310D01*
X514199Y679305D01*
X514200Y679298D01*
X514254Y679196D01*
X514308Y679091D01*
X514312Y679087D01*
X514315Y679081D01*
X514399Y679001D01*
X514483Y678919D01*
X514490Y678915D01*
X514493Y678912D01*
X514510Y678904D01*
X514630Y678838D01*
X514722Y678800D01*
X517272Y676250D01*
X518652Y672918D01*
X518652Y654232D01*
X517272Y650900D01*
X514722Y648350D01*
X514630Y648312D01*
X514530Y648250D01*
X514431Y648191D01*
X514427Y648186D01*
X514421Y648183D01*
X514346Y648092D01*
X514271Y648004D01*
X514268Y647998D01*
X514264Y647993D01*
X514222Y647883D01*
X514179Y647776D01*
X514178Y647768D01*
X514176Y647763D01*
X514175Y647745D01*
X514160Y647609D01*
X514160Y612866D01*
X514179Y612751D01*
X514196Y612635D01*
X514199Y612630D01*
X514200Y612623D01*
X514254Y612521D01*
X514308Y612416D01*
X514312Y612412D01*
X514315Y612406D01*
X514399Y612326D01*
X514483Y612244D01*
X514490Y612240D01*
X514493Y612237D01*
X514510Y612229D01*
X514630Y612163D01*
X514722Y612125D01*
X517272Y609575D01*
X518652Y606243D01*
X518652Y587557D01*
X517272Y584225D01*
X514722Y581675D01*
X514630Y581637D01*
X514530Y581575D01*
X514431Y581516D01*
X514427Y581511D01*
X514421Y581508D01*
X514346Y581417D01*
X514271Y581329D01*
X514268Y581323D01*
X514264Y581318D01*
X514222Y581209D01*
X514179Y581101D01*
X514178Y581093D01*
X514176Y581088D01*
X514175Y581070D01*
X514160Y580934D01*
X514160Y546191D01*
X514179Y546076D01*
X514196Y545960D01*
X514199Y545955D01*
X514200Y545948D01*
X514254Y545846D01*
X514308Y545741D01*
X514312Y545737D01*
X514315Y545731D01*
X514399Y545651D01*
X514483Y545569D01*
X514490Y545565D01*
X514493Y545562D01*
X514510Y545554D01*
X514630Y545488D01*
X514722Y545450D01*
X517272Y542900D01*
X518652Y539568D01*
X518652Y520882D01*
X517272Y517550D01*
X514722Y515000D01*
X514630Y514962D01*
X514530Y514900D01*
X514431Y514841D01*
X514427Y514836D01*
X514421Y514833D01*
X514346Y514742D01*
X514271Y514654D01*
X514268Y514648D01*
X514264Y514643D01*
X514223Y514535D01*
X514179Y514426D01*
X514178Y514418D01*
X514176Y514413D01*
X514175Y514395D01*
X514160Y514259D01*
X514160Y479516D01*
X514179Y479401D01*
X514196Y479285D01*
X514199Y479280D01*
X514200Y479273D01*
X514254Y479171D01*
X514308Y479066D01*
X514312Y479062D01*
X514315Y479056D01*
X514399Y478976D01*
X514483Y478894D01*
X514490Y478890D01*
X514493Y478887D01*
X514510Y478879D01*
X514630Y478813D01*
X514722Y478775D01*
X517272Y476225D01*
X518652Y472893D01*
X518652Y454207D01*
X517272Y450875D01*
X514722Y448325D01*
X514630Y448287D01*
X514530Y448225D01*
X514431Y448166D01*
X514427Y448161D01*
X514421Y448158D01*
X514346Y448067D01*
X514271Y447979D01*
X514268Y447973D01*
X514264Y447968D01*
X514223Y447860D01*
X514179Y447751D01*
X514178Y447743D01*
X514176Y447738D01*
X514175Y447720D01*
X514160Y447584D01*
X514160Y412841D01*
X514162Y412830D01*
X514161Y412823D01*
X514169Y412785D01*
X514179Y412726D01*
X514196Y412610D01*
X514199Y412605D01*
X514200Y412598D01*
X514254Y412496D01*
X514308Y412391D01*
X514312Y412387D01*
X514315Y412381D01*
X514399Y412301D01*
X514483Y412219D01*
X514490Y412215D01*
X514493Y412212D01*
X514510Y412204D01*
X514630Y412138D01*
X514722Y412100D01*
X517272Y409550D01*
X518652Y406218D01*
X518652Y387532D01*
X517272Y384200D01*
X514722Y381650D01*
X514630Y381612D01*
X514531Y381551D01*
X514431Y381491D01*
X514426Y381486D01*
X514421Y381483D01*
X514347Y381393D01*
X514271Y381304D01*
X514268Y381298D01*
X514264Y381293D01*
X514223Y381185D01*
X514179Y381076D01*
X514178Y381068D01*
X514176Y381064D01*
X514175Y381045D01*
X514160Y380909D01*
X514160Y346166D01*
X514179Y346051D01*
X514196Y345935D01*
X514199Y345930D01*
X514200Y345923D01*
X514254Y345821D01*
X514308Y345716D01*
X514312Y345712D01*
X514315Y345706D01*
X514399Y345626D01*
X514483Y345544D01*
X514490Y345540D01*
X514493Y345537D01*
X514510Y345529D01*
X514630Y345463D01*
X514722Y345425D01*
X517272Y342875D01*
X518652Y339543D01*
X518652Y320857D01*
X517272Y317525D01*
X514722Y314975D01*
X514630Y314937D01*
X514530Y314875D01*
X514431Y314816D01*
X514427Y314811D01*
X514421Y314808D01*
X514346Y314717D01*
X514271Y314629D01*
X514268Y314623D01*
X514264Y314618D01*
X514223Y314510D01*
X514179Y314401D01*
X514178Y314393D01*
X514176Y314388D01*
X514175Y314370D01*
X514160Y314234D01*
X514160Y279491D01*
X514179Y279376D01*
X514196Y279260D01*
X514199Y279255D01*
X514200Y279248D01*
X514254Y279146D01*
X514308Y279041D01*
X514312Y279037D01*
X514315Y279031D01*
X514399Y278951D01*
X514483Y278869D01*
X514490Y278865D01*
X514493Y278862D01*
X514510Y278854D01*
X514630Y278788D01*
X514722Y278750D01*
X517272Y276200D01*
X518652Y272868D01*
X518652Y254182D01*
X517272Y250850D01*
X514808Y248386D01*
X514796Y248370D01*
X514780Y248357D01*
X514724Y248270D01*
X514664Y248186D01*
X514658Y248167D01*
X514647Y248150D01*
X514622Y248050D01*
X514592Y247951D01*
X514592Y247931D01*
X514587Y247912D01*
X514595Y247809D01*
X514598Y247705D01*
X514605Y247686D01*
X514607Y247666D01*
X514647Y247572D01*
X514683Y247474D01*
X514695Y247458D01*
X514703Y247440D01*
X514808Y247309D01*
X532750Y229367D01*
X532824Y229314D01*
X532893Y229255D01*
X532923Y229242D01*
X532949Y229224D01*
X533036Y229197D01*
X533121Y229163D01*
X533162Y229158D01*
X533184Y229151D01*
X533217Y229152D01*
X533288Y229144D01*
X534011Y229144D01*
X537119Y226036D01*
X537119Y221639D01*
X534011Y218531D01*
X529614Y218531D01*
G37*
%LPD*%
%LPC*%
G36*
X383564Y218531D02*
X383564Y218531D01*
X380456Y221639D01*
X380456Y222362D01*
X380441Y222452D01*
X380434Y222543D01*
X380421Y222573D01*
X380416Y222605D01*
X380373Y222686D01*
X380338Y222769D01*
X380312Y222802D01*
X380301Y222822D01*
X380278Y222844D01*
X380233Y222900D01*
X361866Y241267D01*
X358965Y244168D01*
X358965Y247559D01*
X358946Y247674D01*
X358929Y247790D01*
X358926Y247795D01*
X358925Y247802D01*
X358871Y247904D01*
X358817Y248009D01*
X358813Y248013D01*
X358810Y248019D01*
X358726Y248099D01*
X358642Y248181D01*
X358635Y248185D01*
X358632Y248188D01*
X358615Y248196D01*
X358495Y248262D01*
X358403Y248300D01*
X355853Y250850D01*
X354473Y254182D01*
X354473Y272868D01*
X355853Y276200D01*
X358403Y278750D01*
X358495Y278788D01*
X358595Y278850D01*
X358694Y278909D01*
X358698Y278914D01*
X358704Y278917D01*
X358779Y279008D01*
X358854Y279096D01*
X358857Y279102D01*
X358861Y279107D01*
X358902Y279215D01*
X358946Y279324D01*
X358947Y279332D01*
X358949Y279337D01*
X358950Y279355D01*
X358965Y279491D01*
X358965Y314234D01*
X358946Y314349D01*
X358929Y314465D01*
X358926Y314470D01*
X358925Y314477D01*
X358871Y314579D01*
X358817Y314684D01*
X358813Y314688D01*
X358810Y314694D01*
X358726Y314774D01*
X358642Y314856D01*
X358635Y314860D01*
X358632Y314863D01*
X358615Y314871D01*
X358495Y314937D01*
X358403Y314975D01*
X355853Y317525D01*
X354473Y320857D01*
X354473Y339543D01*
X355853Y342875D01*
X358403Y345425D01*
X358495Y345463D01*
X358595Y345525D01*
X358694Y345584D01*
X358698Y345589D01*
X358704Y345592D01*
X358779Y345683D01*
X358854Y345771D01*
X358857Y345777D01*
X358861Y345782D01*
X358902Y345890D01*
X358946Y345999D01*
X358947Y346007D01*
X358949Y346012D01*
X358950Y346030D01*
X358965Y346166D01*
X358965Y380909D01*
X358963Y380921D01*
X358964Y380929D01*
X358955Y380971D01*
X358946Y381024D01*
X358929Y381140D01*
X358926Y381145D01*
X358925Y381152D01*
X358871Y381254D01*
X358817Y381359D01*
X358813Y381363D01*
X358810Y381369D01*
X358726Y381449D01*
X358642Y381531D01*
X358635Y381535D01*
X358632Y381538D01*
X358615Y381546D01*
X358495Y381612D01*
X358403Y381650D01*
X355853Y384200D01*
X354473Y387532D01*
X354473Y406218D01*
X355853Y409550D01*
X358403Y412100D01*
X358495Y412138D01*
X358595Y412200D01*
X358694Y412259D01*
X358698Y412264D01*
X358704Y412267D01*
X358779Y412358D01*
X358854Y412446D01*
X358857Y412452D01*
X358861Y412457D01*
X358902Y412565D01*
X358946Y412674D01*
X358947Y412682D01*
X358949Y412687D01*
X358950Y412705D01*
X358965Y412841D01*
X358965Y447584D01*
X358946Y447699D01*
X358929Y447815D01*
X358926Y447820D01*
X358925Y447827D01*
X358871Y447929D01*
X358817Y448034D01*
X358813Y448038D01*
X358810Y448044D01*
X358726Y448124D01*
X358642Y448206D01*
X358635Y448210D01*
X358632Y448213D01*
X358615Y448221D01*
X358495Y448287D01*
X358403Y448325D01*
X355853Y450875D01*
X354473Y454207D01*
X354473Y472893D01*
X355853Y476225D01*
X358403Y478775D01*
X358495Y478813D01*
X358595Y478875D01*
X358694Y478934D01*
X358698Y478939D01*
X358704Y478942D01*
X358779Y479033D01*
X358854Y479121D01*
X358857Y479127D01*
X358861Y479132D01*
X358902Y479240D01*
X358946Y479349D01*
X358947Y479357D01*
X358949Y479362D01*
X358950Y479380D01*
X358965Y479516D01*
X358965Y514259D01*
X358946Y514374D01*
X358929Y514490D01*
X358926Y514495D01*
X358925Y514502D01*
X358871Y514604D01*
X358817Y514709D01*
X358813Y514713D01*
X358810Y514719D01*
X358726Y514799D01*
X358642Y514881D01*
X358635Y514885D01*
X358632Y514888D01*
X358615Y514896D01*
X358495Y514962D01*
X358403Y515000D01*
X355853Y517550D01*
X354473Y520882D01*
X354473Y539568D01*
X355853Y542900D01*
X358403Y545450D01*
X358495Y545488D01*
X358595Y545550D01*
X358694Y545609D01*
X358698Y545614D01*
X358704Y545617D01*
X358779Y545708D01*
X358854Y545796D01*
X358857Y545802D01*
X358861Y545807D01*
X358902Y545915D01*
X358946Y546024D01*
X358947Y546032D01*
X358949Y546037D01*
X358950Y546055D01*
X358965Y546191D01*
X358965Y580934D01*
X358946Y581049D01*
X358929Y581165D01*
X358926Y581170D01*
X358925Y581177D01*
X358871Y581279D01*
X358817Y581384D01*
X358813Y581388D01*
X358810Y581394D01*
X358726Y581474D01*
X358642Y581556D01*
X358635Y581560D01*
X358632Y581563D01*
X358615Y581571D01*
X358495Y581637D01*
X358403Y581675D01*
X355853Y584225D01*
X354473Y587557D01*
X354473Y606243D01*
X355853Y609575D01*
X358403Y612125D01*
X358495Y612163D01*
X358595Y612225D01*
X358694Y612284D01*
X358698Y612289D01*
X358704Y612292D01*
X358779Y612383D01*
X358854Y612471D01*
X358857Y612477D01*
X358861Y612482D01*
X358902Y612589D01*
X358946Y612699D01*
X358947Y612707D01*
X358949Y612712D01*
X358950Y612730D01*
X358965Y612866D01*
X358965Y647609D01*
X358946Y647724D01*
X358929Y647840D01*
X358926Y647845D01*
X358925Y647852D01*
X358871Y647954D01*
X358817Y648059D01*
X358813Y648063D01*
X358810Y648069D01*
X358726Y648149D01*
X358642Y648231D01*
X358635Y648235D01*
X358632Y648238D01*
X358615Y648246D01*
X358495Y648312D01*
X358403Y648350D01*
X355853Y650900D01*
X354473Y654232D01*
X354473Y672918D01*
X355853Y676250D01*
X358403Y678800D01*
X358495Y678838D01*
X358595Y678900D01*
X358694Y678959D01*
X358698Y678964D01*
X358704Y678967D01*
X358779Y679058D01*
X358854Y679146D01*
X358857Y679152D01*
X358861Y679157D01*
X358902Y679265D01*
X358946Y679374D01*
X358947Y679382D01*
X358949Y679387D01*
X358950Y679405D01*
X358965Y679541D01*
X358965Y714284D01*
X358946Y714399D01*
X358929Y714515D01*
X358926Y714520D01*
X358925Y714527D01*
X358871Y714629D01*
X358817Y714734D01*
X358813Y714738D01*
X358810Y714744D01*
X358726Y714824D01*
X358642Y714906D01*
X358635Y714910D01*
X358632Y714913D01*
X358615Y714921D01*
X358495Y714987D01*
X358403Y715025D01*
X355853Y717575D01*
X354473Y720907D01*
X354473Y739593D01*
X355853Y742925D01*
X358403Y745475D01*
X361734Y746855D01*
X365341Y746855D01*
X368672Y745475D01*
X371222Y742925D01*
X372602Y739593D01*
X372602Y720907D01*
X371222Y717575D01*
X368672Y715025D01*
X368580Y714987D01*
X368480Y714925D01*
X368381Y714866D01*
X368377Y714861D01*
X368371Y714858D01*
X368296Y714767D01*
X368221Y714679D01*
X368218Y714673D01*
X368214Y714668D01*
X368173Y714560D01*
X368129Y714451D01*
X368128Y714443D01*
X368126Y714438D01*
X368125Y714420D01*
X368110Y714284D01*
X368110Y679541D01*
X368129Y679426D01*
X368146Y679310D01*
X368149Y679305D01*
X368150Y679298D01*
X368204Y679196D01*
X368258Y679091D01*
X368262Y679087D01*
X368265Y679081D01*
X368349Y679001D01*
X368433Y678919D01*
X368440Y678915D01*
X368443Y678912D01*
X368460Y678904D01*
X368580Y678838D01*
X368672Y678800D01*
X371222Y676250D01*
X372602Y672918D01*
X372602Y654232D01*
X371222Y650900D01*
X368672Y648350D01*
X368580Y648312D01*
X368480Y648250D01*
X368381Y648191D01*
X368377Y648186D01*
X368371Y648183D01*
X368296Y648092D01*
X368221Y648004D01*
X368218Y647998D01*
X368214Y647993D01*
X368172Y647883D01*
X368129Y647776D01*
X368128Y647768D01*
X368126Y647763D01*
X368125Y647745D01*
X368110Y647609D01*
X368110Y612866D01*
X368129Y612751D01*
X368146Y612635D01*
X368149Y612630D01*
X368150Y612623D01*
X368204Y612521D01*
X368258Y612416D01*
X368262Y612412D01*
X368265Y612406D01*
X368349Y612326D01*
X368433Y612244D01*
X368440Y612240D01*
X368443Y612237D01*
X368460Y612229D01*
X368580Y612163D01*
X368672Y612125D01*
X371222Y609575D01*
X372602Y606243D01*
X372602Y587557D01*
X371222Y584225D01*
X368672Y581675D01*
X368580Y581637D01*
X368480Y581575D01*
X368381Y581516D01*
X368377Y581511D01*
X368371Y581508D01*
X368296Y581417D01*
X368221Y581329D01*
X368218Y581323D01*
X368214Y581318D01*
X368172Y581209D01*
X368129Y581101D01*
X368128Y581093D01*
X368126Y581088D01*
X368125Y581070D01*
X368110Y580934D01*
X368110Y546191D01*
X368129Y546076D01*
X368146Y545960D01*
X368149Y545955D01*
X368150Y545948D01*
X368204Y545846D01*
X368258Y545741D01*
X368262Y545737D01*
X368265Y545731D01*
X368349Y545651D01*
X368433Y545569D01*
X368440Y545565D01*
X368443Y545562D01*
X368460Y545554D01*
X368580Y545488D01*
X368672Y545450D01*
X371222Y542900D01*
X372602Y539568D01*
X372602Y520882D01*
X371222Y517550D01*
X368672Y515000D01*
X368580Y514962D01*
X368480Y514900D01*
X368381Y514841D01*
X368377Y514836D01*
X368371Y514833D01*
X368296Y514742D01*
X368221Y514654D01*
X368218Y514648D01*
X368214Y514643D01*
X368173Y514535D01*
X368129Y514426D01*
X368128Y514418D01*
X368126Y514413D01*
X368125Y514395D01*
X368110Y514259D01*
X368110Y479516D01*
X368129Y479401D01*
X368146Y479285D01*
X368149Y479280D01*
X368150Y479273D01*
X368204Y479171D01*
X368258Y479066D01*
X368262Y479062D01*
X368265Y479056D01*
X368349Y478976D01*
X368433Y478894D01*
X368440Y478890D01*
X368443Y478887D01*
X368460Y478879D01*
X368580Y478813D01*
X368672Y478775D01*
X371222Y476225D01*
X372602Y472893D01*
X372602Y454207D01*
X371222Y450875D01*
X368672Y448325D01*
X368580Y448287D01*
X368480Y448225D01*
X368381Y448166D01*
X368377Y448161D01*
X368371Y448158D01*
X368296Y448067D01*
X368221Y447979D01*
X368218Y447973D01*
X368214Y447968D01*
X368173Y447860D01*
X368129Y447751D01*
X368128Y447743D01*
X368126Y447738D01*
X368125Y447720D01*
X368110Y447584D01*
X368110Y412841D01*
X368112Y412830D01*
X368111Y412823D01*
X368119Y412785D01*
X368129Y412726D01*
X368146Y412610D01*
X368149Y412605D01*
X368150Y412598D01*
X368204Y412496D01*
X368258Y412391D01*
X368262Y412387D01*
X368265Y412381D01*
X368349Y412301D01*
X368433Y412219D01*
X368440Y412215D01*
X368443Y412212D01*
X368460Y412204D01*
X368580Y412138D01*
X368672Y412100D01*
X371222Y409550D01*
X372602Y406218D01*
X372602Y387532D01*
X371222Y384200D01*
X368672Y381650D01*
X368580Y381612D01*
X368480Y381550D01*
X368381Y381491D01*
X368377Y381486D01*
X368371Y381483D01*
X368296Y381392D01*
X368221Y381304D01*
X368218Y381298D01*
X368214Y381293D01*
X368173Y381185D01*
X368129Y381076D01*
X368128Y381068D01*
X368126Y381063D01*
X368125Y381045D01*
X368110Y380909D01*
X368110Y346166D01*
X368129Y346051D01*
X368146Y345935D01*
X368149Y345930D01*
X368150Y345923D01*
X368204Y345821D01*
X368258Y345716D01*
X368262Y345712D01*
X368265Y345706D01*
X368349Y345626D01*
X368433Y345544D01*
X368440Y345540D01*
X368443Y345537D01*
X368460Y345529D01*
X368580Y345463D01*
X368672Y345425D01*
X371222Y342875D01*
X372602Y339543D01*
X372602Y320857D01*
X371222Y317525D01*
X368672Y314975D01*
X368580Y314937D01*
X368480Y314875D01*
X368381Y314816D01*
X368377Y314811D01*
X368371Y314808D01*
X368296Y314717D01*
X368221Y314629D01*
X368218Y314623D01*
X368214Y314618D01*
X368173Y314510D01*
X368129Y314401D01*
X368128Y314393D01*
X368126Y314388D01*
X368125Y314370D01*
X368110Y314234D01*
X368110Y279491D01*
X368129Y279376D01*
X368146Y279260D01*
X368149Y279255D01*
X368150Y279248D01*
X368204Y279146D01*
X368258Y279041D01*
X368262Y279037D01*
X368265Y279031D01*
X368349Y278951D01*
X368433Y278869D01*
X368440Y278865D01*
X368443Y278862D01*
X368460Y278854D01*
X368580Y278788D01*
X368672Y278750D01*
X371222Y276200D01*
X372602Y272868D01*
X372602Y254182D01*
X371222Y250850D01*
X368758Y248386D01*
X368746Y248370D01*
X368730Y248357D01*
X368674Y248270D01*
X368614Y248186D01*
X368608Y248167D01*
X368597Y248150D01*
X368572Y248050D01*
X368542Y247951D01*
X368542Y247931D01*
X368537Y247912D01*
X368545Y247809D01*
X368548Y247705D01*
X368555Y247686D01*
X368557Y247666D01*
X368597Y247572D01*
X368633Y247474D01*
X368645Y247458D01*
X368653Y247440D01*
X368758Y247309D01*
X386700Y229367D01*
X386774Y229314D01*
X386843Y229255D01*
X386873Y229242D01*
X386899Y229224D01*
X386986Y229197D01*
X387071Y229163D01*
X387112Y229158D01*
X387134Y229151D01*
X387167Y229152D01*
X387238Y229144D01*
X387961Y229144D01*
X391069Y226036D01*
X391069Y221639D01*
X387961Y218531D01*
X383564Y218531D01*
G37*
%LPD*%
%LPC*%
G36*
X726859Y246920D02*
X726859Y246920D01*
X723528Y248300D01*
X720978Y250850D01*
X719598Y254182D01*
X719598Y272868D01*
X720978Y276200D01*
X723528Y278750D01*
X723620Y278788D01*
X723720Y278850D01*
X723819Y278909D01*
X723823Y278914D01*
X723829Y278917D01*
X723904Y279008D01*
X723979Y279096D01*
X723982Y279102D01*
X723986Y279107D01*
X724027Y279215D01*
X724071Y279324D01*
X724072Y279332D01*
X724074Y279337D01*
X724075Y279355D01*
X724090Y279491D01*
X724090Y314234D01*
X724071Y314349D01*
X724054Y314465D01*
X724051Y314470D01*
X724050Y314477D01*
X723996Y314579D01*
X723942Y314684D01*
X723938Y314688D01*
X723935Y314694D01*
X723851Y314774D01*
X723767Y314856D01*
X723760Y314860D01*
X723757Y314863D01*
X723740Y314871D01*
X723620Y314937D01*
X723528Y314975D01*
X720978Y317525D01*
X719598Y320857D01*
X719598Y339543D01*
X720978Y342875D01*
X723528Y345425D01*
X723620Y345463D01*
X723720Y345525D01*
X723819Y345584D01*
X723823Y345589D01*
X723829Y345592D01*
X723904Y345683D01*
X723979Y345771D01*
X723982Y345777D01*
X723986Y345782D01*
X724027Y345890D01*
X724071Y345999D01*
X724072Y346007D01*
X724074Y346012D01*
X724075Y346030D01*
X724090Y346166D01*
X724090Y380909D01*
X724088Y380921D01*
X724089Y380929D01*
X724080Y380971D01*
X724071Y381024D01*
X724054Y381140D01*
X724051Y381145D01*
X724050Y381152D01*
X723996Y381254D01*
X723942Y381359D01*
X723938Y381363D01*
X723935Y381369D01*
X723851Y381449D01*
X723767Y381531D01*
X723760Y381535D01*
X723757Y381538D01*
X723740Y381546D01*
X723620Y381612D01*
X723528Y381650D01*
X720978Y384200D01*
X719598Y387532D01*
X719598Y406218D01*
X720978Y409550D01*
X723528Y412100D01*
X723620Y412138D01*
X723720Y412200D01*
X723819Y412259D01*
X723823Y412264D01*
X723829Y412267D01*
X723904Y412358D01*
X723979Y412446D01*
X723982Y412452D01*
X723986Y412457D01*
X724027Y412565D01*
X724071Y412674D01*
X724072Y412682D01*
X724074Y412687D01*
X724075Y412705D01*
X724090Y412841D01*
X724090Y447584D01*
X724071Y447699D01*
X724054Y447815D01*
X724051Y447820D01*
X724050Y447827D01*
X723996Y447929D01*
X723942Y448034D01*
X723938Y448038D01*
X723935Y448044D01*
X723851Y448124D01*
X723767Y448206D01*
X723760Y448210D01*
X723757Y448213D01*
X723740Y448221D01*
X723620Y448287D01*
X723528Y448325D01*
X720978Y450875D01*
X719598Y454207D01*
X719598Y472893D01*
X720978Y476225D01*
X723528Y478775D01*
X723620Y478813D01*
X723720Y478875D01*
X723819Y478934D01*
X723823Y478939D01*
X723829Y478942D01*
X723904Y479033D01*
X723979Y479121D01*
X723982Y479127D01*
X723986Y479132D01*
X724027Y479240D01*
X724071Y479349D01*
X724072Y479357D01*
X724074Y479362D01*
X724075Y479380D01*
X724090Y479516D01*
X724090Y514259D01*
X724071Y514374D01*
X724054Y514490D01*
X724051Y514495D01*
X724050Y514502D01*
X723996Y514604D01*
X723942Y514709D01*
X723938Y514713D01*
X723935Y514719D01*
X723851Y514799D01*
X723767Y514881D01*
X723760Y514885D01*
X723757Y514888D01*
X723740Y514896D01*
X723620Y514962D01*
X723528Y515000D01*
X720978Y517550D01*
X719598Y520882D01*
X719598Y539568D01*
X720978Y542900D01*
X723528Y545450D01*
X723620Y545488D01*
X723720Y545550D01*
X723819Y545609D01*
X723823Y545614D01*
X723829Y545617D01*
X723904Y545708D01*
X723979Y545796D01*
X723982Y545802D01*
X723986Y545807D01*
X724027Y545915D01*
X724071Y546024D01*
X724072Y546032D01*
X724074Y546037D01*
X724075Y546055D01*
X724090Y546191D01*
X724090Y580934D01*
X724071Y581049D01*
X724054Y581165D01*
X724051Y581170D01*
X724050Y581177D01*
X723996Y581279D01*
X723942Y581384D01*
X723938Y581388D01*
X723935Y581394D01*
X723851Y581474D01*
X723767Y581556D01*
X723760Y581560D01*
X723757Y581563D01*
X723740Y581571D01*
X723620Y581637D01*
X723528Y581675D01*
X720978Y584225D01*
X719598Y587557D01*
X719598Y606243D01*
X720978Y609575D01*
X723528Y612125D01*
X723620Y612163D01*
X723720Y612225D01*
X723819Y612284D01*
X723823Y612289D01*
X723829Y612292D01*
X723904Y612383D01*
X723979Y612471D01*
X723982Y612477D01*
X723986Y612482D01*
X724027Y612589D01*
X724071Y612699D01*
X724072Y612707D01*
X724074Y612712D01*
X724075Y612730D01*
X724090Y612866D01*
X724090Y647609D01*
X724071Y647724D01*
X724054Y647840D01*
X724051Y647845D01*
X724050Y647852D01*
X723996Y647954D01*
X723942Y648059D01*
X723938Y648063D01*
X723935Y648069D01*
X723851Y648149D01*
X723767Y648231D01*
X723760Y648235D01*
X723757Y648238D01*
X723740Y648246D01*
X723620Y648312D01*
X723528Y648350D01*
X720978Y650900D01*
X719598Y654232D01*
X719598Y672918D01*
X720978Y676250D01*
X723528Y678800D01*
X723620Y678838D01*
X723720Y678900D01*
X723819Y678959D01*
X723823Y678964D01*
X723829Y678967D01*
X723904Y679058D01*
X723979Y679146D01*
X723982Y679152D01*
X723986Y679157D01*
X724027Y679265D01*
X724071Y679374D01*
X724072Y679382D01*
X724074Y679387D01*
X724075Y679405D01*
X724090Y679541D01*
X724090Y714284D01*
X724071Y714399D01*
X724054Y714515D01*
X724051Y714520D01*
X724050Y714527D01*
X723996Y714629D01*
X723942Y714734D01*
X723938Y714738D01*
X723935Y714744D01*
X723851Y714824D01*
X723767Y714906D01*
X723760Y714910D01*
X723757Y714913D01*
X723740Y714921D01*
X723620Y714987D01*
X723528Y715025D01*
X720978Y717575D01*
X719598Y720907D01*
X719598Y739593D01*
X720978Y742925D01*
X723528Y745475D01*
X726859Y746855D01*
X730466Y746855D01*
X733797Y745475D01*
X736347Y742925D01*
X737727Y739593D01*
X737727Y720907D01*
X736347Y717575D01*
X733797Y715025D01*
X733705Y714987D01*
X733605Y714925D01*
X733506Y714866D01*
X733502Y714861D01*
X733496Y714858D01*
X733421Y714767D01*
X733346Y714679D01*
X733343Y714673D01*
X733339Y714668D01*
X733298Y714560D01*
X733254Y714451D01*
X733253Y714443D01*
X733251Y714438D01*
X733250Y714420D01*
X733235Y714284D01*
X733235Y679541D01*
X733254Y679426D01*
X733271Y679310D01*
X733274Y679305D01*
X733275Y679298D01*
X733329Y679196D01*
X733383Y679091D01*
X733387Y679087D01*
X733390Y679081D01*
X733474Y679001D01*
X733558Y678919D01*
X733565Y678915D01*
X733568Y678912D01*
X733585Y678904D01*
X733705Y678838D01*
X733797Y678800D01*
X736347Y676250D01*
X737727Y672918D01*
X737727Y654232D01*
X736347Y650900D01*
X733797Y648350D01*
X733705Y648312D01*
X733605Y648250D01*
X733506Y648191D01*
X733502Y648186D01*
X733496Y648183D01*
X733421Y648092D01*
X733346Y648004D01*
X733343Y647998D01*
X733339Y647993D01*
X733297Y647883D01*
X733254Y647776D01*
X733253Y647768D01*
X733251Y647763D01*
X733250Y647745D01*
X733235Y647609D01*
X733235Y612866D01*
X733254Y612751D01*
X733271Y612635D01*
X733274Y612630D01*
X733275Y612623D01*
X733329Y612521D01*
X733383Y612416D01*
X733387Y612412D01*
X733390Y612406D01*
X733474Y612326D01*
X733558Y612244D01*
X733565Y612240D01*
X733568Y612237D01*
X733585Y612229D01*
X733705Y612163D01*
X733797Y612125D01*
X736347Y609575D01*
X737727Y606243D01*
X737727Y587557D01*
X736347Y584225D01*
X733797Y581675D01*
X733705Y581637D01*
X733605Y581575D01*
X733506Y581516D01*
X733502Y581511D01*
X733496Y581508D01*
X733421Y581417D01*
X733346Y581329D01*
X733343Y581323D01*
X733339Y581318D01*
X733297Y581209D01*
X733254Y581101D01*
X733253Y581093D01*
X733251Y581088D01*
X733250Y581070D01*
X733235Y580934D01*
X733235Y546191D01*
X733254Y546076D01*
X733271Y545960D01*
X733274Y545955D01*
X733275Y545948D01*
X733329Y545846D01*
X733383Y545741D01*
X733387Y545737D01*
X733390Y545731D01*
X733474Y545651D01*
X733558Y545569D01*
X733565Y545565D01*
X733568Y545562D01*
X733585Y545554D01*
X733705Y545488D01*
X733797Y545450D01*
X736347Y542900D01*
X737727Y539568D01*
X737727Y520882D01*
X736347Y517550D01*
X733797Y515000D01*
X733705Y514962D01*
X733605Y514900D01*
X733506Y514841D01*
X733502Y514836D01*
X733496Y514833D01*
X733421Y514742D01*
X733346Y514654D01*
X733343Y514648D01*
X733339Y514643D01*
X733298Y514535D01*
X733254Y514426D01*
X733253Y514418D01*
X733251Y514413D01*
X733250Y514395D01*
X733235Y514259D01*
X733235Y479516D01*
X733254Y479401D01*
X733271Y479285D01*
X733274Y479280D01*
X733275Y479273D01*
X733329Y479171D01*
X733383Y479066D01*
X733387Y479062D01*
X733390Y479056D01*
X733474Y478976D01*
X733558Y478894D01*
X733565Y478890D01*
X733568Y478887D01*
X733585Y478879D01*
X733705Y478813D01*
X733797Y478775D01*
X736347Y476225D01*
X737727Y472893D01*
X737727Y454207D01*
X736347Y450875D01*
X733797Y448325D01*
X733705Y448287D01*
X733605Y448225D01*
X733506Y448166D01*
X733502Y448161D01*
X733496Y448158D01*
X733421Y448067D01*
X733346Y447979D01*
X733343Y447973D01*
X733339Y447968D01*
X733298Y447860D01*
X733254Y447751D01*
X733253Y447743D01*
X733251Y447738D01*
X733250Y447720D01*
X733235Y447584D01*
X733235Y412841D01*
X733237Y412830D01*
X733236Y412823D01*
X733244Y412785D01*
X733254Y412726D01*
X733271Y412610D01*
X733274Y412605D01*
X733275Y412598D01*
X733329Y412496D01*
X733383Y412391D01*
X733387Y412387D01*
X733390Y412381D01*
X733474Y412301D01*
X733558Y412219D01*
X733565Y412215D01*
X733568Y412212D01*
X733585Y412204D01*
X733705Y412138D01*
X733797Y412100D01*
X736347Y409550D01*
X737727Y406218D01*
X737727Y387532D01*
X736347Y384200D01*
X733797Y381650D01*
X733705Y381612D01*
X733605Y381550D01*
X733506Y381491D01*
X733502Y381486D01*
X733496Y381483D01*
X733421Y381392D01*
X733346Y381304D01*
X733343Y381298D01*
X733339Y381293D01*
X733298Y381185D01*
X733254Y381076D01*
X733253Y381068D01*
X733251Y381063D01*
X733250Y381045D01*
X733235Y380909D01*
X733235Y346166D01*
X733254Y346051D01*
X733271Y345935D01*
X733274Y345930D01*
X733275Y345923D01*
X733329Y345821D01*
X733383Y345716D01*
X733387Y345712D01*
X733390Y345706D01*
X733474Y345626D01*
X733558Y345544D01*
X733565Y345540D01*
X733568Y345537D01*
X733585Y345529D01*
X733705Y345463D01*
X733797Y345425D01*
X736347Y342875D01*
X737727Y339543D01*
X737727Y320857D01*
X736347Y317525D01*
X733797Y314975D01*
X733705Y314937D01*
X733605Y314875D01*
X733506Y314816D01*
X733502Y314811D01*
X733496Y314808D01*
X733421Y314717D01*
X733346Y314629D01*
X733343Y314623D01*
X733339Y314618D01*
X733298Y314510D01*
X733254Y314401D01*
X733253Y314393D01*
X733251Y314388D01*
X733250Y314370D01*
X733235Y314234D01*
X733235Y279491D01*
X733254Y279376D01*
X733271Y279260D01*
X733274Y279255D01*
X733275Y279248D01*
X733329Y279146D01*
X733383Y279041D01*
X733387Y279037D01*
X733390Y279031D01*
X733474Y278951D01*
X733558Y278869D01*
X733565Y278865D01*
X733568Y278862D01*
X733585Y278854D01*
X733705Y278788D01*
X733797Y278750D01*
X736347Y276200D01*
X737727Y272868D01*
X737727Y254182D01*
X736347Y250850D01*
X733797Y248300D01*
X730466Y246920D01*
X726859Y246920D01*
G37*
%LPD*%
%LPC*%
G36*
X279145Y49880D02*
X279145Y49880D01*
X263272Y65753D01*
X263198Y65806D01*
X263129Y65865D01*
X263099Y65878D01*
X263072Y65896D01*
X262986Y65923D01*
X262901Y65957D01*
X262860Y65962D01*
X262837Y65969D01*
X262805Y65968D01*
X262734Y65976D01*
X260867Y65976D01*
X260796Y65964D01*
X260724Y65962D01*
X260675Y65944D01*
X260624Y65936D01*
X260561Y65902D01*
X260493Y65878D01*
X260453Y65845D01*
X260407Y65821D01*
X260357Y65769D01*
X260301Y65724D01*
X260273Y65680D01*
X260237Y65643D01*
X260207Y65578D01*
X260168Y65517D01*
X260156Y65467D01*
X260134Y65420D01*
X260126Y65348D01*
X260108Y65279D01*
X260112Y65227D01*
X260107Y65175D01*
X260122Y65105D01*
X260127Y65034D01*
X260148Y64986D01*
X260159Y64935D01*
X260196Y64873D01*
X260224Y64807D01*
X260269Y64751D01*
X260285Y64724D01*
X260303Y64708D01*
X260329Y64676D01*
X260894Y64111D01*
X260894Y59714D01*
X257786Y56606D01*
X253830Y56606D01*
X253740Y56591D01*
X253649Y56584D01*
X253619Y56571D01*
X253587Y56566D01*
X253507Y56523D01*
X253423Y56488D01*
X253391Y56462D01*
X253370Y56451D01*
X253362Y56443D01*
X253361Y56442D01*
X253346Y56426D01*
X253292Y56383D01*
X250185Y53276D01*
X116528Y53276D01*
X113799Y56005D01*
X113783Y56016D01*
X113770Y56032D01*
X113683Y56088D01*
X113599Y56148D01*
X113580Y56154D01*
X113563Y56165D01*
X113463Y56190D01*
X113364Y56221D01*
X113344Y56220D01*
X113325Y56225D01*
X113222Y56217D01*
X113118Y56214D01*
X113099Y56207D01*
X113079Y56206D01*
X112985Y56166D01*
X112887Y56130D01*
X112871Y56117D01*
X112853Y56110D01*
X112722Y56005D01*
X111736Y55018D01*
X107339Y55018D01*
X104231Y58127D01*
X104231Y62523D01*
X107339Y65632D01*
X111736Y65632D01*
X114844Y62523D01*
X114844Y61743D01*
X114859Y61652D01*
X114866Y61562D01*
X114879Y61532D01*
X114884Y61500D01*
X114927Y61419D01*
X114962Y61335D01*
X114988Y61303D01*
X114999Y61282D01*
X115022Y61260D01*
X115067Y61204D01*
X118199Y58072D01*
X118273Y58019D01*
X118343Y57960D01*
X118373Y57947D01*
X118399Y57929D01*
X118486Y57902D01*
X118571Y57868D01*
X118612Y57863D01*
X118634Y57856D01*
X118666Y57857D01*
X118738Y57849D01*
X247975Y57849D01*
X248065Y57864D01*
X248156Y57871D01*
X248186Y57884D01*
X248218Y57889D01*
X248298Y57932D01*
X248382Y57967D01*
X248414Y57993D01*
X248435Y58004D01*
X248457Y58027D01*
X248513Y58072D01*
X250058Y59617D01*
X250111Y59691D01*
X250170Y59760D01*
X250183Y59790D01*
X250201Y59816D01*
X250228Y59903D01*
X250262Y59988D01*
X250267Y60029D01*
X250274Y60052D01*
X250273Y60084D01*
X250281Y60155D01*
X250281Y64111D01*
X250846Y64676D01*
X250888Y64734D01*
X250938Y64786D01*
X250960Y64834D01*
X250990Y64876D01*
X251011Y64944D01*
X251041Y65010D01*
X251047Y65061D01*
X251062Y65111D01*
X251060Y65183D01*
X251068Y65254D01*
X251057Y65305D01*
X251056Y65357D01*
X251031Y65424D01*
X251016Y65494D01*
X250989Y65539D01*
X250971Y65588D01*
X250927Y65644D01*
X250890Y65705D01*
X250850Y65739D01*
X250818Y65780D01*
X250757Y65819D01*
X250703Y65865D01*
X250655Y65885D01*
X250611Y65913D01*
X250541Y65930D01*
X250475Y65957D01*
X250404Y65965D01*
X250372Y65973D01*
X250349Y65971D01*
X250308Y65976D01*
X137788Y65976D01*
X137697Y65961D01*
X137607Y65954D01*
X137577Y65941D01*
X137545Y65936D01*
X137464Y65893D01*
X137380Y65858D01*
X137348Y65832D01*
X137327Y65821D01*
X137305Y65798D01*
X137249Y65753D01*
X131122Y59626D01*
X121290Y59626D01*
X115008Y65908D01*
X114934Y65961D01*
X114865Y66020D01*
X114835Y66033D01*
X114809Y66051D01*
X114722Y66078D01*
X114637Y66112D01*
X114596Y66117D01*
X114573Y66124D01*
X114541Y66123D01*
X114470Y66131D01*
X113689Y66131D01*
X110581Y69239D01*
X110581Y73636D01*
X113689Y76744D01*
X118086Y76744D01*
X120716Y74114D01*
X120732Y74103D01*
X120744Y74087D01*
X120832Y74031D01*
X120915Y73971D01*
X120934Y73965D01*
X120951Y73954D01*
X121052Y73929D01*
X121151Y73898D01*
X121170Y73899D01*
X121190Y73894D01*
X121293Y73902D01*
X121396Y73905D01*
X121415Y73911D01*
X121435Y73913D01*
X121530Y73953D01*
X121627Y73989D01*
X121643Y74002D01*
X121661Y74009D01*
X121792Y74114D01*
X124140Y76462D01*
X127786Y76462D01*
X127876Y76477D01*
X127967Y76484D01*
X127997Y76497D01*
X128029Y76502D01*
X128109Y76545D01*
X128193Y76580D01*
X128225Y76606D01*
X128246Y76617D01*
X128268Y76640D01*
X128324Y76685D01*
X128411Y76772D01*
X267794Y76772D01*
X283667Y60899D01*
X283741Y60846D01*
X283810Y60787D01*
X283840Y60774D01*
X283866Y60756D01*
X283953Y60729D01*
X284038Y60695D01*
X284079Y60690D01*
X284102Y60683D01*
X284134Y60684D01*
X284205Y60676D01*
X367959Y60676D01*
X368050Y60691D01*
X368140Y60698D01*
X368170Y60711D01*
X368202Y60716D01*
X368283Y60759D01*
X368367Y60794D01*
X368399Y60820D01*
X368420Y60831D01*
X368442Y60854D01*
X368498Y60899D01*
X374221Y66623D01*
X374233Y66639D01*
X374248Y66651D01*
X374305Y66739D01*
X374365Y66822D01*
X374371Y66841D01*
X374381Y66858D01*
X374407Y66959D01*
X374437Y67057D01*
X374437Y67077D01*
X374442Y67097D01*
X374433Y67200D01*
X374431Y67303D01*
X374424Y67322D01*
X374422Y67342D01*
X374382Y67437D01*
X374346Y67534D01*
X374334Y67550D01*
X374326Y67568D01*
X374221Y67699D01*
X373315Y68605D01*
X371935Y71937D01*
X371935Y90623D01*
X373315Y93955D01*
X375865Y96505D01*
X379197Y97885D01*
X382803Y97885D01*
X386135Y96505D01*
X388685Y93955D01*
X390065Y90623D01*
X390065Y71937D01*
X388685Y68605D01*
X386135Y66055D01*
X382803Y64675D01*
X379057Y64675D01*
X378967Y64661D01*
X378876Y64653D01*
X378846Y64641D01*
X378814Y64636D01*
X378734Y64593D01*
X378650Y64557D01*
X378618Y64531D01*
X378597Y64520D01*
X378575Y64497D01*
X378519Y64452D01*
X370169Y56103D01*
X281995Y56103D01*
X266122Y71976D01*
X266048Y72029D01*
X265979Y72088D01*
X265949Y72101D01*
X265923Y72119D01*
X265836Y72146D01*
X265751Y72180D01*
X265710Y72185D01*
X265687Y72192D01*
X265655Y72191D01*
X265584Y72199D01*
X132406Y72199D01*
X132387Y72196D01*
X132367Y72198D01*
X132266Y72176D01*
X132164Y72159D01*
X132146Y72150D01*
X132127Y72145D01*
X132038Y72092D01*
X131946Y72044D01*
X131933Y72030D01*
X131916Y72019D01*
X131848Y71941D01*
X131777Y71866D01*
X131769Y71848D01*
X131756Y71832D01*
X131717Y71736D01*
X131673Y71643D01*
X131671Y71623D01*
X131664Y71604D01*
X131645Y71438D01*
X131645Y68957D01*
X128537Y65849D01*
X124140Y65849D01*
X121510Y68479D01*
X121494Y68490D01*
X121482Y68506D01*
X121395Y68562D01*
X121311Y68622D01*
X121292Y68628D01*
X121275Y68639D01*
X121174Y68664D01*
X121075Y68695D01*
X121056Y68694D01*
X121036Y68699D01*
X120933Y68691D01*
X120830Y68688D01*
X120811Y68682D01*
X120791Y68680D01*
X120696Y68640D01*
X120599Y68604D01*
X120583Y68591D01*
X120565Y68584D01*
X120434Y68479D01*
X120208Y68253D01*
X120196Y68237D01*
X120180Y68224D01*
X120125Y68137D01*
X120064Y68053D01*
X120058Y68034D01*
X120047Y68017D01*
X120022Y67917D01*
X119992Y67818D01*
X119992Y67798D01*
X119987Y67779D01*
X119995Y67676D01*
X119998Y67572D01*
X120005Y67553D01*
X120007Y67534D01*
X120047Y67439D01*
X120083Y67341D01*
X120095Y67326D01*
X120103Y67307D01*
X120208Y67176D01*
X122962Y64422D01*
X123036Y64369D01*
X123105Y64310D01*
X123135Y64297D01*
X123161Y64279D01*
X123248Y64252D01*
X123333Y64218D01*
X123374Y64213D01*
X123397Y64206D01*
X123429Y64207D01*
X123500Y64199D01*
X128912Y64199D01*
X129003Y64214D01*
X129093Y64221D01*
X129123Y64234D01*
X129155Y64239D01*
X129236Y64282D01*
X129320Y64317D01*
X129352Y64343D01*
X129373Y64354D01*
X129382Y64364D01*
X129383Y64364D01*
X129397Y64379D01*
X129451Y64422D01*
X135578Y70549D01*
X264944Y70549D01*
X280817Y54676D01*
X280891Y54623D01*
X280960Y54564D01*
X280990Y54551D01*
X281016Y54533D01*
X281103Y54506D01*
X281188Y54472D01*
X281229Y54467D01*
X281251Y54460D01*
X281284Y54461D01*
X281355Y54453D01*
X391899Y54453D01*
X391989Y54468D01*
X392080Y54475D01*
X392110Y54488D01*
X392142Y54493D01*
X392222Y54536D01*
X392306Y54571D01*
X392338Y54597D01*
X392359Y54608D01*
X392381Y54631D01*
X392437Y54676D01*
X402264Y64502D01*
X402290Y64540D01*
X402324Y64571D01*
X402362Y64639D01*
X402407Y64702D01*
X402421Y64746D01*
X402443Y64786D01*
X402457Y64863D01*
X402479Y64937D01*
X402478Y64983D01*
X402486Y65028D01*
X402475Y65105D01*
X402473Y65183D01*
X402457Y65226D01*
X402451Y65272D01*
X402415Y65341D01*
X402389Y65414D01*
X402360Y65450D01*
X402339Y65491D01*
X402284Y65545D01*
X402235Y65606D01*
X402196Y65631D01*
X402164Y65663D01*
X402044Y65729D01*
X402028Y65739D01*
X402023Y65740D01*
X402017Y65744D01*
X401265Y66055D01*
X398715Y68605D01*
X397335Y71937D01*
X397335Y90623D01*
X398715Y93955D01*
X401265Y96505D01*
X404597Y97885D01*
X408203Y97885D01*
X411535Y96505D01*
X414085Y93955D01*
X415465Y90623D01*
X415465Y71937D01*
X414085Y68605D01*
X411535Y66055D01*
X409157Y65070D01*
X409057Y65008D01*
X408957Y64949D01*
X408953Y64944D01*
X408948Y64941D01*
X408873Y64850D01*
X408797Y64762D01*
X408795Y64756D01*
X408791Y64751D01*
X408749Y64643D01*
X408705Y64534D01*
X408704Y64526D01*
X408703Y64522D01*
X408702Y64503D01*
X408698Y64469D01*
X394109Y49880D01*
X279145Y49880D01*
G37*
%LPD*%
%LPC*%
G36*
X504214Y123563D02*
X504214Y123563D01*
X501106Y126671D01*
X501106Y131068D01*
X504214Y134176D01*
X508611Y134176D01*
X511408Y131379D01*
X511482Y131326D01*
X511551Y131267D01*
X511581Y131254D01*
X511607Y131236D01*
X511694Y131209D01*
X511779Y131175D01*
X511820Y131170D01*
X511842Y131163D01*
X511875Y131164D01*
X511946Y131156D01*
X634813Y131156D01*
X634903Y131171D01*
X634994Y131178D01*
X635024Y131191D01*
X635056Y131196D01*
X635137Y131239D01*
X635221Y131274D01*
X635253Y131300D01*
X635273Y131311D01*
X635296Y131334D01*
X635352Y131379D01*
X719958Y215985D01*
X720011Y216059D01*
X720070Y216129D01*
X720083Y216159D01*
X720101Y216185D01*
X720128Y216272D01*
X720162Y216357D01*
X720167Y216398D01*
X720174Y216420D01*
X720173Y216452D01*
X720181Y216524D01*
X720181Y220479D01*
X723289Y223588D01*
X727686Y223588D01*
X730794Y220479D01*
X730794Y216083D01*
X727686Y212975D01*
X723730Y212975D01*
X723640Y212960D01*
X723549Y212953D01*
X723519Y212940D01*
X723487Y212935D01*
X723407Y212892D01*
X723323Y212856D01*
X723291Y212831D01*
X723270Y212820D01*
X723248Y212796D01*
X723192Y212752D01*
X637023Y126583D01*
X511946Y126583D01*
X511856Y126568D01*
X511765Y126561D01*
X511735Y126548D01*
X511703Y126543D01*
X511623Y126500D01*
X511539Y126465D01*
X511507Y126439D01*
X511486Y126428D01*
X511464Y126405D01*
X511408Y126360D01*
X508611Y123563D01*
X504214Y123563D01*
G37*
%LPD*%
%LPC*%
G36*
X494689Y132806D02*
X494689Y132806D01*
X491581Y135914D01*
X491581Y140311D01*
X494689Y143419D01*
X499086Y143419D01*
X501883Y140622D01*
X501957Y140569D01*
X502026Y140510D01*
X502056Y140497D01*
X502082Y140479D01*
X502169Y140452D01*
X502254Y140418D01*
X502295Y140413D01*
X502317Y140406D01*
X502350Y140407D01*
X502421Y140399D01*
X571825Y140399D01*
X571915Y140414D01*
X572006Y140421D01*
X572036Y140434D01*
X572068Y140439D01*
X572148Y140482D01*
X572232Y140517D01*
X572264Y140543D01*
X572285Y140554D01*
X572307Y140577D01*
X572363Y140622D01*
X647727Y215985D01*
X647780Y216059D01*
X647839Y216129D01*
X647851Y216159D01*
X647870Y216185D01*
X647897Y216272D01*
X647931Y216357D01*
X647936Y216398D01*
X647942Y216420D01*
X647942Y216452D01*
X647950Y216524D01*
X647950Y220479D01*
X651058Y223588D01*
X655454Y223588D01*
X658563Y220479D01*
X658563Y216083D01*
X655454Y212975D01*
X651499Y212975D01*
X651409Y212960D01*
X651318Y212953D01*
X651288Y212940D01*
X651256Y212935D01*
X651175Y212892D01*
X651091Y212856D01*
X651059Y212831D01*
X651039Y212820D01*
X651016Y212796D01*
X650960Y212752D01*
X574035Y135826D01*
X502421Y135826D01*
X502331Y135811D01*
X502240Y135804D01*
X502210Y135791D01*
X502178Y135786D01*
X502098Y135743D01*
X502014Y135708D01*
X501982Y135682D01*
X501961Y135671D01*
X501939Y135648D01*
X501883Y135603D01*
X499086Y132806D01*
X494689Y132806D01*
G37*
%LPD*%
%LPC*%
G36*
X485164Y142331D02*
X485164Y142331D01*
X482056Y145439D01*
X482056Y149836D01*
X485164Y152944D01*
X489561Y152944D01*
X492358Y150147D01*
X492432Y150094D01*
X492501Y150035D01*
X492531Y150023D01*
X492557Y150004D01*
X492644Y149977D01*
X492729Y149943D01*
X492770Y149938D01*
X492792Y149931D01*
X492825Y149932D01*
X492896Y149924D01*
X508325Y149924D01*
X508415Y149939D01*
X508506Y149946D01*
X508536Y149959D01*
X508568Y149964D01*
X508648Y150007D01*
X508732Y150042D01*
X508764Y150068D01*
X508785Y150079D01*
X508807Y150102D01*
X508863Y150147D01*
X574702Y215985D01*
X574755Y216059D01*
X574814Y216129D01*
X574826Y216159D01*
X574845Y216185D01*
X574872Y216272D01*
X574906Y216357D01*
X574911Y216398D01*
X574917Y216420D01*
X574917Y216452D01*
X574925Y216524D01*
X574925Y220479D01*
X578033Y223588D01*
X582429Y223588D01*
X585538Y220479D01*
X585538Y216083D01*
X582429Y212975D01*
X578474Y212975D01*
X578384Y212960D01*
X578293Y212953D01*
X578263Y212940D01*
X578231Y212935D01*
X578150Y212892D01*
X578066Y212856D01*
X578034Y212831D01*
X578014Y212820D01*
X577991Y212796D01*
X577935Y212752D01*
X510535Y145351D01*
X492896Y145351D01*
X492806Y145336D01*
X492715Y145329D01*
X492685Y145316D01*
X492653Y145311D01*
X492573Y145268D01*
X492489Y145233D01*
X492456Y145207D01*
X492436Y145196D01*
X492414Y145173D01*
X492358Y145128D01*
X489561Y142331D01*
X485164Y142331D01*
G37*
%LPD*%
%LPC*%
G36*
X340702Y161381D02*
X340702Y161381D01*
X337593Y164489D01*
X337593Y168886D01*
X340702Y171994D01*
X345098Y171994D01*
X347895Y169197D01*
X347969Y169144D01*
X348039Y169085D01*
X348069Y169072D01*
X348095Y169054D01*
X348182Y169027D01*
X348267Y168993D01*
X348308Y168988D01*
X348330Y168981D01*
X348362Y168982D01*
X348433Y168974D01*
X381325Y168974D01*
X381415Y168989D01*
X381506Y168996D01*
X381536Y169009D01*
X381568Y169014D01*
X381648Y169057D01*
X381732Y169092D01*
X381764Y169118D01*
X381785Y169129D01*
X381807Y169152D01*
X381863Y169197D01*
X428652Y215985D01*
X428705Y216059D01*
X428764Y216129D01*
X428776Y216159D01*
X428795Y216185D01*
X428822Y216272D01*
X428856Y216357D01*
X428861Y216398D01*
X428867Y216420D01*
X428867Y216452D01*
X428875Y216524D01*
X428875Y220479D01*
X431983Y223588D01*
X436379Y223588D01*
X439488Y220479D01*
X439488Y216083D01*
X436379Y212975D01*
X432424Y212975D01*
X432334Y212960D01*
X432243Y212953D01*
X432213Y212940D01*
X432181Y212935D01*
X432100Y212892D01*
X432016Y212856D01*
X431984Y212831D01*
X431964Y212820D01*
X431941Y212796D01*
X431885Y212752D01*
X383535Y164401D01*
X348433Y164401D01*
X348343Y164386D01*
X348252Y164379D01*
X348223Y164366D01*
X348191Y164361D01*
X348110Y164318D01*
X348026Y164283D01*
X347994Y164257D01*
X347973Y164246D01*
X347951Y164223D01*
X347895Y164178D01*
X345098Y161381D01*
X340702Y161381D01*
G37*
%LPD*%
%LPC*%
G36*
X263309Y246920D02*
X263309Y246920D01*
X259978Y248300D01*
X257428Y250850D01*
X256048Y254182D01*
X256048Y272868D01*
X257428Y276200D01*
X259978Y278750D01*
X263309Y280130D01*
X266916Y280130D01*
X270247Y278750D01*
X272797Y276200D01*
X274177Y272868D01*
X274177Y254182D01*
X272797Y250850D01*
X270247Y248300D01*
X266916Y246920D01*
X263309Y246920D01*
G37*
%LPD*%
%LPC*%
G36*
X353797Y64675D02*
X353797Y64675D01*
X350465Y66055D01*
X347915Y68605D01*
X346535Y71937D01*
X346535Y90623D01*
X347915Y93955D01*
X350465Y96505D01*
X353797Y97885D01*
X357403Y97885D01*
X360735Y96505D01*
X363285Y93955D01*
X364665Y90623D01*
X364665Y71937D01*
X363285Y68605D01*
X360735Y66055D01*
X357403Y64675D01*
X353797Y64675D01*
G37*
%LPD*%
%LPC*%
G36*
X455397Y64675D02*
X455397Y64675D01*
X452065Y66055D01*
X449515Y68605D01*
X448135Y71937D01*
X448135Y90623D01*
X449515Y93955D01*
X452065Y96505D01*
X455397Y97885D01*
X459003Y97885D01*
X462335Y96505D01*
X464885Y93955D01*
X466265Y90623D01*
X466265Y71937D01*
X464885Y68605D01*
X462335Y66055D01*
X459003Y64675D01*
X455397Y64675D01*
G37*
%LPD*%
%LPC*%
G36*
X701459Y646970D02*
X701459Y646970D01*
X698128Y648350D01*
X695578Y650900D01*
X694198Y654232D01*
X694198Y672918D01*
X695578Y676250D01*
X698128Y678800D01*
X701459Y680180D01*
X705066Y680180D01*
X708397Y678800D01*
X710947Y676250D01*
X712327Y672918D01*
X712327Y654232D01*
X710947Y650900D01*
X708397Y648350D01*
X705066Y646970D01*
X701459Y646970D01*
G37*
%LPD*%
%LPC*%
G36*
X482384Y646970D02*
X482384Y646970D01*
X479053Y648350D01*
X476503Y650900D01*
X475123Y654232D01*
X475123Y672918D01*
X476503Y676250D01*
X479053Y678800D01*
X482384Y680180D01*
X485991Y680180D01*
X489322Y678800D01*
X491872Y676250D01*
X493252Y672918D01*
X493252Y654232D01*
X491872Y650900D01*
X489322Y648350D01*
X485991Y646970D01*
X482384Y646970D01*
G37*
%LPD*%
%LPC*%
G36*
X628434Y646970D02*
X628434Y646970D01*
X625103Y648350D01*
X622553Y650900D01*
X621173Y654232D01*
X621173Y672918D01*
X622553Y676250D01*
X625103Y678800D01*
X628434Y680180D01*
X632041Y680180D01*
X635372Y678800D01*
X637922Y676250D01*
X639302Y672918D01*
X639302Y654232D01*
X637922Y650900D01*
X635372Y648350D01*
X632041Y646970D01*
X628434Y646970D01*
G37*
%LPD*%
%LPC*%
G36*
X555409Y646970D02*
X555409Y646970D01*
X552078Y648350D01*
X549528Y650900D01*
X548148Y654232D01*
X548148Y672918D01*
X549528Y676250D01*
X552078Y678800D01*
X555409Y680180D01*
X559016Y680180D01*
X562347Y678800D01*
X564897Y676250D01*
X566277Y672918D01*
X566277Y654232D01*
X564897Y650900D01*
X562347Y648350D01*
X559016Y646970D01*
X555409Y646970D01*
G37*
%LPD*%
%LPC*%
G36*
X409359Y646970D02*
X409359Y646970D01*
X406028Y648350D01*
X403478Y650900D01*
X402098Y654232D01*
X402098Y672918D01*
X403478Y676250D01*
X406028Y678800D01*
X409359Y680180D01*
X412966Y680180D01*
X416297Y678800D01*
X418847Y676250D01*
X420227Y672918D01*
X420227Y654232D01*
X418847Y650900D01*
X416297Y648350D01*
X412966Y646970D01*
X409359Y646970D01*
G37*
%LPD*%
%LPC*%
G36*
X336334Y646970D02*
X336334Y646970D01*
X333003Y648350D01*
X330453Y650900D01*
X329073Y654232D01*
X329073Y672918D01*
X330453Y676250D01*
X333003Y678800D01*
X336334Y680180D01*
X339941Y680180D01*
X343272Y678800D01*
X345822Y676250D01*
X347202Y672918D01*
X347202Y654232D01*
X345822Y650900D01*
X343272Y648350D01*
X339941Y646970D01*
X336334Y646970D01*
G37*
%LPD*%
%LPC*%
G36*
X263309Y646970D02*
X263309Y646970D01*
X259978Y648350D01*
X257428Y650900D01*
X256048Y654232D01*
X256048Y672918D01*
X257428Y676250D01*
X259978Y678800D01*
X263309Y680180D01*
X266916Y680180D01*
X270247Y678800D01*
X272797Y676250D01*
X274177Y672918D01*
X274177Y654232D01*
X272797Y650900D01*
X270247Y648350D01*
X266916Y646970D01*
X263309Y646970D01*
G37*
%LPD*%
%LPC*%
G36*
X190284Y646970D02*
X190284Y646970D01*
X186953Y648350D01*
X184403Y650900D01*
X183023Y654232D01*
X183023Y672918D01*
X184403Y676250D01*
X186953Y678800D01*
X190284Y680180D01*
X193891Y680180D01*
X197222Y678800D01*
X199772Y676250D01*
X201152Y672918D01*
X201152Y654232D01*
X199772Y650900D01*
X197222Y648350D01*
X193891Y646970D01*
X190284Y646970D01*
G37*
%LPD*%
%LPC*%
G36*
X482384Y580295D02*
X482384Y580295D01*
X479053Y581675D01*
X476503Y584225D01*
X475123Y587557D01*
X475123Y606243D01*
X476503Y609575D01*
X479053Y612125D01*
X482384Y613505D01*
X485991Y613505D01*
X489322Y612125D01*
X491872Y609575D01*
X493252Y606243D01*
X493252Y587557D01*
X491872Y584225D01*
X489322Y581675D01*
X485991Y580295D01*
X482384Y580295D01*
G37*
%LPD*%
%LPC*%
G36*
X701459Y580295D02*
X701459Y580295D01*
X698128Y581675D01*
X695578Y584225D01*
X694198Y587557D01*
X694198Y606243D01*
X695578Y609575D01*
X698128Y612125D01*
X701459Y613505D01*
X705066Y613505D01*
X708397Y612125D01*
X710947Y609575D01*
X712327Y606243D01*
X712327Y587557D01*
X710947Y584225D01*
X708397Y581675D01*
X705066Y580295D01*
X701459Y580295D01*
G37*
%LPD*%
%LPC*%
G36*
X409359Y580295D02*
X409359Y580295D01*
X406028Y581675D01*
X403478Y584225D01*
X402098Y587557D01*
X402098Y606243D01*
X403478Y609575D01*
X406028Y612125D01*
X409359Y613505D01*
X412966Y613505D01*
X416297Y612125D01*
X418847Y609575D01*
X420227Y606243D01*
X420227Y587557D01*
X418847Y584225D01*
X416297Y581675D01*
X412966Y580295D01*
X409359Y580295D01*
G37*
%LPD*%
%LPC*%
G36*
X263309Y580295D02*
X263309Y580295D01*
X259978Y581675D01*
X257428Y584225D01*
X256048Y587557D01*
X256048Y606243D01*
X257428Y609575D01*
X259978Y612125D01*
X263309Y613505D01*
X266916Y613505D01*
X270247Y612125D01*
X272797Y609575D01*
X274177Y606243D01*
X274177Y587557D01*
X272797Y584225D01*
X270247Y581675D01*
X266916Y580295D01*
X263309Y580295D01*
G37*
%LPD*%
%LPC*%
G36*
X628434Y580295D02*
X628434Y580295D01*
X625103Y581675D01*
X622553Y584225D01*
X621173Y587557D01*
X621173Y606243D01*
X622553Y609575D01*
X625103Y612125D01*
X628434Y613505D01*
X632041Y613505D01*
X635372Y612125D01*
X637922Y609575D01*
X639302Y606243D01*
X639302Y587557D01*
X637922Y584225D01*
X635372Y581675D01*
X632041Y580295D01*
X628434Y580295D01*
G37*
%LPD*%
%LPC*%
G36*
X555409Y580295D02*
X555409Y580295D01*
X552078Y581675D01*
X549528Y584225D01*
X548148Y587557D01*
X548148Y606243D01*
X549528Y609575D01*
X552078Y612125D01*
X555409Y613505D01*
X559016Y613505D01*
X562347Y612125D01*
X564897Y609575D01*
X566277Y606243D01*
X566277Y587557D01*
X564897Y584225D01*
X562347Y581675D01*
X559016Y580295D01*
X555409Y580295D01*
G37*
%LPD*%
%LPC*%
G36*
X190284Y580295D02*
X190284Y580295D01*
X186953Y581675D01*
X184403Y584225D01*
X183023Y587557D01*
X183023Y606243D01*
X184403Y609575D01*
X186953Y612125D01*
X190284Y613505D01*
X193891Y613505D01*
X197222Y612125D01*
X199772Y609575D01*
X201152Y606243D01*
X201152Y587557D01*
X199772Y584225D01*
X197222Y581675D01*
X193891Y580295D01*
X190284Y580295D01*
G37*
%LPD*%
%LPC*%
G36*
X336334Y580295D02*
X336334Y580295D01*
X333003Y581675D01*
X330453Y584225D01*
X329073Y587557D01*
X329073Y606243D01*
X330453Y609575D01*
X333003Y612125D01*
X336334Y613505D01*
X339941Y613505D01*
X343272Y612125D01*
X345822Y609575D01*
X347202Y606243D01*
X347202Y587557D01*
X345822Y584225D01*
X343272Y581675D01*
X339941Y580295D01*
X336334Y580295D01*
G37*
%LPD*%
%LPC*%
G36*
X628434Y513620D02*
X628434Y513620D01*
X625103Y515000D01*
X622553Y517550D01*
X621173Y520882D01*
X621173Y539568D01*
X622553Y542900D01*
X625103Y545450D01*
X628434Y546830D01*
X632041Y546830D01*
X635372Y545450D01*
X637922Y542900D01*
X639302Y539568D01*
X639302Y520882D01*
X637922Y517550D01*
X635372Y515000D01*
X632041Y513620D01*
X628434Y513620D01*
G37*
%LPD*%
%LPC*%
G36*
X555409Y513620D02*
X555409Y513620D01*
X552078Y515000D01*
X549528Y517550D01*
X548148Y520882D01*
X548148Y539568D01*
X549528Y542900D01*
X552078Y545450D01*
X555409Y546830D01*
X559016Y546830D01*
X562347Y545450D01*
X564897Y542900D01*
X566277Y539568D01*
X566277Y520882D01*
X564897Y517550D01*
X562347Y515000D01*
X559016Y513620D01*
X555409Y513620D01*
G37*
%LPD*%
%LPC*%
G36*
X482384Y513620D02*
X482384Y513620D01*
X479053Y515000D01*
X476503Y517550D01*
X475123Y520882D01*
X475123Y539568D01*
X476503Y542900D01*
X479053Y545450D01*
X482384Y546830D01*
X485991Y546830D01*
X489322Y545450D01*
X491872Y542900D01*
X493252Y539568D01*
X493252Y520882D01*
X491872Y517550D01*
X489322Y515000D01*
X485991Y513620D01*
X482384Y513620D01*
G37*
%LPD*%
%LPC*%
G36*
X336334Y513620D02*
X336334Y513620D01*
X333003Y515000D01*
X330453Y517550D01*
X329073Y520882D01*
X329073Y539568D01*
X330453Y542900D01*
X333003Y545450D01*
X336334Y546830D01*
X339941Y546830D01*
X343272Y545450D01*
X345822Y542900D01*
X347202Y539568D01*
X347202Y520882D01*
X345822Y517550D01*
X343272Y515000D01*
X339941Y513620D01*
X336334Y513620D01*
G37*
%LPD*%
%LPC*%
G36*
X701459Y513620D02*
X701459Y513620D01*
X698128Y515000D01*
X695578Y517550D01*
X694198Y520882D01*
X694198Y539568D01*
X695578Y542900D01*
X698128Y545450D01*
X701459Y546830D01*
X705066Y546830D01*
X708397Y545450D01*
X710947Y542900D01*
X712327Y539568D01*
X712327Y520882D01*
X710947Y517550D01*
X708397Y515000D01*
X705066Y513620D01*
X701459Y513620D01*
G37*
%LPD*%
%LPC*%
G36*
X263309Y513620D02*
X263309Y513620D01*
X259978Y515000D01*
X257428Y517550D01*
X256048Y520882D01*
X256048Y539568D01*
X257428Y542900D01*
X259978Y545450D01*
X263309Y546830D01*
X266916Y546830D01*
X270247Y545450D01*
X272797Y542900D01*
X274177Y539568D01*
X274177Y520882D01*
X272797Y517550D01*
X270247Y515000D01*
X266916Y513620D01*
X263309Y513620D01*
G37*
%LPD*%
%LPC*%
G36*
X190284Y513620D02*
X190284Y513620D01*
X186953Y515000D01*
X184403Y517550D01*
X183023Y520882D01*
X183023Y539568D01*
X184403Y542900D01*
X186953Y545450D01*
X190284Y546830D01*
X193891Y546830D01*
X197222Y545450D01*
X199772Y542900D01*
X201152Y539568D01*
X201152Y520882D01*
X199772Y517550D01*
X197222Y515000D01*
X193891Y513620D01*
X190284Y513620D01*
G37*
%LPD*%
%LPC*%
G36*
X409359Y513620D02*
X409359Y513620D01*
X406028Y515000D01*
X403478Y517550D01*
X402098Y520882D01*
X402098Y539568D01*
X403478Y542900D01*
X406028Y545450D01*
X409359Y546830D01*
X412966Y546830D01*
X416297Y545450D01*
X418847Y542900D01*
X420227Y539568D01*
X420227Y520882D01*
X418847Y517550D01*
X416297Y515000D01*
X412966Y513620D01*
X409359Y513620D01*
G37*
%LPD*%
%LPC*%
G36*
X409359Y446945D02*
X409359Y446945D01*
X406028Y448325D01*
X403478Y450875D01*
X402098Y454207D01*
X402098Y472893D01*
X403478Y476225D01*
X406028Y478775D01*
X409359Y480155D01*
X412966Y480155D01*
X416297Y478775D01*
X418847Y476225D01*
X420227Y472893D01*
X420227Y454207D01*
X418847Y450875D01*
X416297Y448325D01*
X412966Y446945D01*
X409359Y446945D01*
G37*
%LPD*%
%LPC*%
G36*
X701459Y446945D02*
X701459Y446945D01*
X698128Y448325D01*
X695578Y450875D01*
X694198Y454207D01*
X694198Y472893D01*
X695578Y476225D01*
X698128Y478775D01*
X701459Y480155D01*
X705066Y480155D01*
X708397Y478775D01*
X710947Y476225D01*
X712327Y472893D01*
X712327Y454207D01*
X710947Y450875D01*
X708397Y448325D01*
X705066Y446945D01*
X701459Y446945D01*
G37*
%LPD*%
%LPC*%
G36*
X628434Y446945D02*
X628434Y446945D01*
X625103Y448325D01*
X622553Y450875D01*
X621173Y454207D01*
X621173Y472893D01*
X622553Y476225D01*
X625103Y478775D01*
X628434Y480155D01*
X632041Y480155D01*
X635372Y478775D01*
X637922Y476225D01*
X639302Y472893D01*
X639302Y454207D01*
X637922Y450875D01*
X635372Y448325D01*
X632041Y446945D01*
X628434Y446945D01*
G37*
%LPD*%
%LPC*%
G36*
X263309Y446945D02*
X263309Y446945D01*
X259978Y448325D01*
X257428Y450875D01*
X256048Y454207D01*
X256048Y472893D01*
X257428Y476225D01*
X259978Y478775D01*
X263309Y480155D01*
X266916Y480155D01*
X270247Y478775D01*
X272797Y476225D01*
X274177Y472893D01*
X274177Y454207D01*
X272797Y450875D01*
X270247Y448325D01*
X266916Y446945D01*
X263309Y446945D01*
G37*
%LPD*%
%LPC*%
G36*
X190284Y446945D02*
X190284Y446945D01*
X186953Y448325D01*
X184403Y450875D01*
X183023Y454207D01*
X183023Y472893D01*
X184403Y476225D01*
X186953Y478775D01*
X190284Y480155D01*
X193891Y480155D01*
X197222Y478775D01*
X199772Y476225D01*
X201152Y472893D01*
X201152Y454207D01*
X199772Y450875D01*
X197222Y448325D01*
X193891Y446945D01*
X190284Y446945D01*
G37*
%LPD*%
%LPC*%
G36*
X336334Y446945D02*
X336334Y446945D01*
X333003Y448325D01*
X330453Y450875D01*
X329073Y454207D01*
X329073Y472893D01*
X330453Y476225D01*
X333003Y478775D01*
X336334Y480155D01*
X339941Y480155D01*
X343272Y478775D01*
X345822Y476225D01*
X347202Y472893D01*
X347202Y454207D01*
X345822Y450875D01*
X343272Y448325D01*
X339941Y446945D01*
X336334Y446945D01*
G37*
%LPD*%
%LPC*%
G36*
X555409Y446945D02*
X555409Y446945D01*
X552078Y448325D01*
X549528Y450875D01*
X548148Y454207D01*
X548148Y472893D01*
X549528Y476225D01*
X552078Y478775D01*
X555409Y480155D01*
X559016Y480155D01*
X562347Y478775D01*
X564897Y476225D01*
X566277Y472893D01*
X566277Y454207D01*
X564897Y450875D01*
X562347Y448325D01*
X559016Y446945D01*
X555409Y446945D01*
G37*
%LPD*%
%LPC*%
G36*
X482384Y446945D02*
X482384Y446945D01*
X479053Y448325D01*
X476503Y450875D01*
X475123Y454207D01*
X475123Y472893D01*
X476503Y476225D01*
X479053Y478775D01*
X482384Y480155D01*
X485991Y480155D01*
X489322Y478775D01*
X491872Y476225D01*
X493252Y472893D01*
X493252Y454207D01*
X491872Y450875D01*
X489322Y448325D01*
X485991Y446945D01*
X482384Y446945D01*
G37*
%LPD*%
%LPC*%
G36*
X190284Y380270D02*
X190284Y380270D01*
X186953Y381650D01*
X184403Y384200D01*
X183023Y387532D01*
X183023Y406218D01*
X184403Y409550D01*
X186953Y412100D01*
X190284Y413480D01*
X193891Y413480D01*
X197222Y412100D01*
X199772Y409550D01*
X201152Y406218D01*
X201152Y387532D01*
X199772Y384200D01*
X197222Y381650D01*
X193891Y380270D01*
X190284Y380270D01*
G37*
%LPD*%
%LPC*%
G36*
X336334Y380270D02*
X336334Y380270D01*
X333003Y381650D01*
X330453Y384200D01*
X329073Y387532D01*
X329073Y406218D01*
X330453Y409550D01*
X333003Y412100D01*
X336334Y413480D01*
X339941Y413480D01*
X343272Y412100D01*
X345822Y409550D01*
X347202Y406218D01*
X347202Y387532D01*
X345822Y384200D01*
X343272Y381650D01*
X339941Y380270D01*
X336334Y380270D01*
G37*
%LPD*%
%LPC*%
G36*
X628434Y380270D02*
X628434Y380270D01*
X625103Y381650D01*
X622553Y384200D01*
X621173Y387532D01*
X621173Y406218D01*
X622553Y409550D01*
X625103Y412100D01*
X628434Y413480D01*
X632041Y413480D01*
X635372Y412100D01*
X637922Y409550D01*
X639302Y406218D01*
X639302Y387532D01*
X637922Y384200D01*
X635372Y381650D01*
X632041Y380270D01*
X628434Y380270D01*
G37*
%LPD*%
%LPC*%
G36*
X555409Y380270D02*
X555409Y380270D01*
X552078Y381650D01*
X549528Y384200D01*
X548148Y387532D01*
X548148Y406218D01*
X549528Y409550D01*
X552078Y412100D01*
X555409Y413480D01*
X559016Y413480D01*
X562347Y412100D01*
X564897Y409550D01*
X566277Y406218D01*
X566277Y387532D01*
X564897Y384200D01*
X562347Y381650D01*
X559016Y380270D01*
X555409Y380270D01*
G37*
%LPD*%
%LPC*%
G36*
X701459Y380270D02*
X701459Y380270D01*
X698128Y381650D01*
X695578Y384200D01*
X694198Y387532D01*
X694198Y406218D01*
X695578Y409550D01*
X698128Y412100D01*
X701459Y413480D01*
X705066Y413480D01*
X708397Y412100D01*
X710947Y409550D01*
X712327Y406218D01*
X712327Y387532D01*
X710947Y384200D01*
X708397Y381650D01*
X705066Y380270D01*
X701459Y380270D01*
G37*
%LPD*%
%LPC*%
G36*
X482384Y380270D02*
X482384Y380270D01*
X479053Y381650D01*
X476503Y384200D01*
X475123Y387532D01*
X475123Y406218D01*
X476503Y409550D01*
X479053Y412100D01*
X482384Y413480D01*
X485991Y413480D01*
X489322Y412100D01*
X491872Y409550D01*
X493252Y406218D01*
X493252Y387532D01*
X491872Y384200D01*
X489322Y381650D01*
X485991Y380270D01*
X482384Y380270D01*
G37*
%LPD*%
%LPC*%
G36*
X409359Y380270D02*
X409359Y380270D01*
X406028Y381650D01*
X403478Y384200D01*
X402098Y387532D01*
X402098Y406218D01*
X403478Y409550D01*
X406028Y412100D01*
X409359Y413480D01*
X412966Y413480D01*
X416297Y412100D01*
X418847Y409550D01*
X420227Y406218D01*
X420227Y387532D01*
X418847Y384200D01*
X416297Y381650D01*
X412966Y380270D01*
X409359Y380270D01*
G37*
%LPD*%
%LPC*%
G36*
X263309Y380270D02*
X263309Y380270D01*
X259978Y381650D01*
X257428Y384200D01*
X256048Y387532D01*
X256048Y406218D01*
X257428Y409550D01*
X259978Y412100D01*
X263309Y413480D01*
X266916Y413480D01*
X270247Y412100D01*
X272797Y409550D01*
X274177Y406218D01*
X274177Y387532D01*
X272797Y384200D01*
X270247Y381650D01*
X266916Y380270D01*
X263309Y380270D01*
G37*
%LPD*%
%LPC*%
G36*
X263309Y313595D02*
X263309Y313595D01*
X259978Y314975D01*
X257428Y317525D01*
X256048Y320857D01*
X256048Y339543D01*
X257428Y342875D01*
X259978Y345425D01*
X263309Y346805D01*
X266916Y346805D01*
X270247Y345425D01*
X272797Y342875D01*
X274177Y339543D01*
X274177Y320857D01*
X272797Y317525D01*
X270247Y314975D01*
X266916Y313595D01*
X263309Y313595D01*
G37*
%LPD*%
%LPC*%
G36*
X336334Y313595D02*
X336334Y313595D01*
X333003Y314975D01*
X330453Y317525D01*
X329073Y320857D01*
X329073Y339543D01*
X330453Y342875D01*
X333003Y345425D01*
X336334Y346805D01*
X339941Y346805D01*
X343272Y345425D01*
X345822Y342875D01*
X347202Y339543D01*
X347202Y320857D01*
X345822Y317525D01*
X343272Y314975D01*
X339941Y313595D01*
X336334Y313595D01*
G37*
%LPD*%
%LPC*%
G36*
X628434Y313595D02*
X628434Y313595D01*
X625103Y314975D01*
X622553Y317525D01*
X621173Y320857D01*
X621173Y339543D01*
X622553Y342875D01*
X625103Y345425D01*
X628434Y346805D01*
X632041Y346805D01*
X635372Y345425D01*
X637922Y342875D01*
X639302Y339543D01*
X639302Y320857D01*
X637922Y317525D01*
X635372Y314975D01*
X632041Y313595D01*
X628434Y313595D01*
G37*
%LPD*%
%LPC*%
G36*
X482384Y313595D02*
X482384Y313595D01*
X479053Y314975D01*
X476503Y317525D01*
X475123Y320857D01*
X475123Y339543D01*
X476503Y342875D01*
X479053Y345425D01*
X482384Y346805D01*
X485991Y346805D01*
X489322Y345425D01*
X491872Y342875D01*
X493252Y339543D01*
X493252Y320857D01*
X491872Y317525D01*
X489322Y314975D01*
X485991Y313595D01*
X482384Y313595D01*
G37*
%LPD*%
%LPC*%
G36*
X555409Y313595D02*
X555409Y313595D01*
X552078Y314975D01*
X549528Y317525D01*
X548148Y320857D01*
X548148Y339543D01*
X549528Y342875D01*
X552078Y345425D01*
X555409Y346805D01*
X559016Y346805D01*
X562347Y345425D01*
X564897Y342875D01*
X566277Y339543D01*
X566277Y320857D01*
X564897Y317525D01*
X562347Y314975D01*
X559016Y313595D01*
X555409Y313595D01*
G37*
%LPD*%
%LPC*%
G36*
X409359Y313595D02*
X409359Y313595D01*
X406028Y314975D01*
X403478Y317525D01*
X402098Y320857D01*
X402098Y339543D01*
X403478Y342875D01*
X406028Y345425D01*
X409359Y346805D01*
X412966Y346805D01*
X416297Y345425D01*
X418847Y342875D01*
X420227Y339543D01*
X420227Y320857D01*
X418847Y317525D01*
X416297Y314975D01*
X412966Y313595D01*
X409359Y313595D01*
G37*
%LPD*%
%LPC*%
G36*
X190284Y313595D02*
X190284Y313595D01*
X186953Y314975D01*
X184403Y317525D01*
X183023Y320857D01*
X183023Y339543D01*
X184403Y342875D01*
X186953Y345425D01*
X190284Y346805D01*
X193891Y346805D01*
X197222Y345425D01*
X199772Y342875D01*
X201152Y339543D01*
X201152Y320857D01*
X199772Y317525D01*
X197222Y314975D01*
X193891Y313595D01*
X190284Y313595D01*
G37*
%LPD*%
%LPC*%
G36*
X701459Y313595D02*
X701459Y313595D01*
X698128Y314975D01*
X695578Y317525D01*
X694198Y320857D01*
X694198Y339543D01*
X695578Y342875D01*
X698128Y345425D01*
X701459Y346805D01*
X705066Y346805D01*
X708397Y345425D01*
X710947Y342875D01*
X712327Y339543D01*
X712327Y320857D01*
X710947Y317525D01*
X708397Y314975D01*
X705066Y313595D01*
X701459Y313595D01*
G37*
%LPD*%
%LPC*%
G36*
X336334Y246920D02*
X336334Y246920D01*
X333003Y248300D01*
X330453Y250850D01*
X329073Y254182D01*
X329073Y272868D01*
X330453Y276200D01*
X333003Y278750D01*
X336334Y280130D01*
X339941Y280130D01*
X343272Y278750D01*
X345822Y276200D01*
X347202Y272868D01*
X347202Y254182D01*
X345822Y250850D01*
X343272Y248300D01*
X339941Y246920D01*
X336334Y246920D01*
G37*
%LPD*%
%LPC*%
G36*
X482384Y246920D02*
X482384Y246920D01*
X479053Y248300D01*
X476503Y250850D01*
X475123Y254182D01*
X475123Y272868D01*
X476503Y276200D01*
X479053Y278750D01*
X482384Y280130D01*
X485991Y280130D01*
X489322Y278750D01*
X491872Y276200D01*
X493252Y272868D01*
X493252Y254182D01*
X491872Y250850D01*
X489322Y248300D01*
X485991Y246920D01*
X482384Y246920D01*
G37*
%LPD*%
%LPC*%
G36*
X555409Y246920D02*
X555409Y246920D01*
X552078Y248300D01*
X549528Y250850D01*
X548148Y254182D01*
X548148Y272868D01*
X549528Y276200D01*
X552078Y278750D01*
X555409Y280130D01*
X559016Y280130D01*
X562347Y278750D01*
X564897Y276200D01*
X566277Y272868D01*
X566277Y254182D01*
X564897Y250850D01*
X562347Y248300D01*
X559016Y246920D01*
X555409Y246920D01*
G37*
%LPD*%
%LPC*%
G36*
X628434Y246920D02*
X628434Y246920D01*
X625103Y248300D01*
X622553Y250850D01*
X621173Y254182D01*
X621173Y272868D01*
X622553Y276200D01*
X625103Y278750D01*
X628434Y280130D01*
X632041Y280130D01*
X635372Y278750D01*
X637922Y276200D01*
X639302Y272868D01*
X639302Y254182D01*
X637922Y250850D01*
X635372Y248300D01*
X632041Y246920D01*
X628434Y246920D01*
G37*
%LPD*%
%LPC*%
G36*
X701459Y246920D02*
X701459Y246920D01*
X698128Y248300D01*
X695578Y250850D01*
X694198Y254182D01*
X694198Y272868D01*
X695578Y276200D01*
X698128Y278750D01*
X701459Y280130D01*
X705066Y280130D01*
X708397Y278750D01*
X710947Y276200D01*
X712327Y272868D01*
X712327Y254182D01*
X710947Y250850D01*
X708397Y248300D01*
X705066Y246920D01*
X701459Y246920D01*
G37*
%LPD*%
%LPC*%
G36*
X190284Y246920D02*
X190284Y246920D01*
X186953Y248300D01*
X184403Y250850D01*
X183023Y254182D01*
X183023Y272868D01*
X184403Y276200D01*
X186953Y278750D01*
X190284Y280130D01*
X193891Y280130D01*
X197222Y278750D01*
X199772Y276200D01*
X201152Y272868D01*
X201152Y254182D01*
X199772Y250850D01*
X197222Y248300D01*
X193891Y246920D01*
X190284Y246920D01*
G37*
%LPD*%
%LPC*%
G36*
X409359Y246920D02*
X409359Y246920D01*
X406028Y248300D01*
X403478Y250850D01*
X402098Y254182D01*
X402098Y272868D01*
X403478Y276200D01*
X406028Y278750D01*
X409359Y280130D01*
X412966Y280130D01*
X416297Y278750D01*
X418847Y276200D01*
X420227Y272868D01*
X420227Y254182D01*
X418847Y250850D01*
X416297Y248300D01*
X412966Y246920D01*
X409359Y246920D01*
G37*
%LPD*%
%LPC*%
G36*
X263309Y713645D02*
X263309Y713645D01*
X259978Y715025D01*
X257428Y717575D01*
X256048Y720907D01*
X256048Y739593D01*
X257428Y742925D01*
X259978Y745475D01*
X263309Y746855D01*
X266916Y746855D01*
X270247Y745475D01*
X272797Y742925D01*
X274177Y739593D01*
X274177Y720907D01*
X272797Y717575D01*
X270247Y715025D01*
X266916Y713645D01*
X263309Y713645D01*
G37*
%LPD*%
%LPC*%
G36*
X701459Y713645D02*
X701459Y713645D01*
X698128Y715025D01*
X695578Y717575D01*
X694198Y720907D01*
X694198Y739593D01*
X695578Y742925D01*
X698128Y745475D01*
X701459Y746855D01*
X705066Y746855D01*
X708397Y745475D01*
X710947Y742925D01*
X712327Y739593D01*
X712327Y720907D01*
X710947Y717575D01*
X708397Y715025D01*
X705066Y713645D01*
X701459Y713645D01*
G37*
%LPD*%
%LPC*%
G36*
X190284Y713645D02*
X190284Y713645D01*
X186953Y715025D01*
X184403Y717575D01*
X183023Y720907D01*
X183023Y739593D01*
X184403Y742925D01*
X186953Y745475D01*
X190284Y746855D01*
X193891Y746855D01*
X197222Y745475D01*
X199772Y742925D01*
X201152Y739593D01*
X201152Y720907D01*
X199772Y717575D01*
X197222Y715025D01*
X193891Y713645D01*
X190284Y713645D01*
G37*
%LPD*%
%LPC*%
G36*
X409359Y713645D02*
X409359Y713645D01*
X406028Y715025D01*
X403478Y717575D01*
X402098Y720907D01*
X402098Y739593D01*
X403478Y742925D01*
X406028Y745475D01*
X409359Y746855D01*
X412966Y746855D01*
X416297Y745475D01*
X418847Y742925D01*
X420227Y739593D01*
X420227Y720907D01*
X418847Y717575D01*
X416297Y715025D01*
X412966Y713645D01*
X409359Y713645D01*
G37*
%LPD*%
%LPC*%
G36*
X555409Y713645D02*
X555409Y713645D01*
X552078Y715025D01*
X549528Y717575D01*
X548148Y720907D01*
X548148Y739593D01*
X549528Y742925D01*
X552078Y745475D01*
X555409Y746855D01*
X559016Y746855D01*
X562347Y745475D01*
X564897Y742925D01*
X566277Y739593D01*
X566277Y720907D01*
X564897Y717575D01*
X562347Y715025D01*
X559016Y713645D01*
X555409Y713645D01*
G37*
%LPD*%
%LPC*%
G36*
X482384Y713645D02*
X482384Y713645D01*
X479053Y715025D01*
X476503Y717575D01*
X475123Y720907D01*
X475123Y739593D01*
X476503Y742925D01*
X479053Y745475D01*
X482384Y746855D01*
X485991Y746855D01*
X489322Y745475D01*
X491872Y742925D01*
X493252Y739593D01*
X493252Y720907D01*
X491872Y717575D01*
X489322Y715025D01*
X485991Y713645D01*
X482384Y713645D01*
G37*
%LPD*%
%LPC*%
G36*
X628434Y713645D02*
X628434Y713645D01*
X625103Y715025D01*
X622553Y717575D01*
X621173Y720907D01*
X621173Y739593D01*
X622553Y742925D01*
X625103Y745475D01*
X628434Y746855D01*
X632041Y746855D01*
X635372Y745475D01*
X637922Y742925D01*
X639302Y739593D01*
X639302Y720907D01*
X637922Y717575D01*
X635372Y715025D01*
X632041Y713645D01*
X628434Y713645D01*
G37*
%LPD*%
%LPC*%
G36*
X336334Y713645D02*
X336334Y713645D01*
X333003Y715025D01*
X330453Y717575D01*
X329073Y720907D01*
X329073Y739593D01*
X330453Y742925D01*
X333003Y745475D01*
X336334Y746855D01*
X339941Y746855D01*
X343272Y745475D01*
X345822Y742925D01*
X347202Y739593D01*
X347202Y720907D01*
X345822Y717575D01*
X343272Y715025D01*
X339941Y713645D01*
X336334Y713645D01*
G37*
%LPD*%
%LPC*%
G36*
X475639Y151856D02*
X475639Y151856D01*
X472531Y154964D01*
X472531Y159361D01*
X475639Y162469D01*
X480070Y162469D01*
X480147Y162414D01*
X480166Y162408D01*
X480183Y162397D01*
X480283Y162372D01*
X480382Y162342D01*
X480402Y162342D01*
X480421Y162337D01*
X480524Y162345D01*
X480628Y162348D01*
X480647Y162355D01*
X480666Y162357D01*
X480761Y162397D01*
X480859Y162433D01*
X480875Y162445D01*
X480893Y162453D01*
X481024Y162558D01*
X503903Y185437D01*
X503956Y185511D01*
X504015Y185580D01*
X504028Y185610D01*
X504046Y185636D01*
X504073Y185723D01*
X504107Y185808D01*
X504112Y185849D01*
X504119Y185872D01*
X504118Y185904D01*
X504126Y185975D01*
X504126Y212748D01*
X504111Y212838D01*
X504104Y212929D01*
X504091Y212959D01*
X504086Y212991D01*
X504043Y213071D01*
X504008Y213155D01*
X503982Y213187D01*
X503971Y213208D01*
X503948Y213230D01*
X503903Y213286D01*
X501106Y216083D01*
X501106Y220479D01*
X504214Y223588D01*
X508611Y223588D01*
X511719Y220479D01*
X511719Y216083D01*
X508922Y213286D01*
X508869Y213212D01*
X508810Y213143D01*
X508797Y213113D01*
X508779Y213086D01*
X508752Y212999D01*
X508718Y212915D01*
X508713Y212874D01*
X508706Y212851D01*
X508707Y212819D01*
X508699Y212748D01*
X508699Y183765D01*
X483367Y158433D01*
X483314Y158359D01*
X483255Y158290D01*
X483242Y158260D01*
X483224Y158234D01*
X483197Y158147D01*
X483163Y158062D01*
X483158Y158021D01*
X483151Y157998D01*
X483152Y157966D01*
X483144Y157895D01*
X483144Y154964D01*
X480036Y151856D01*
X475639Y151856D01*
G37*
%LPD*%
%LPC*%
G36*
X328002Y170906D02*
X328002Y170906D01*
X324893Y174014D01*
X324893Y178411D01*
X328002Y181519D01*
X331957Y181519D01*
X332048Y181534D01*
X332138Y181541D01*
X332168Y181554D01*
X332200Y181559D01*
X332281Y181602D01*
X332365Y181637D01*
X332397Y181663D01*
X332418Y181674D01*
X332440Y181697D01*
X332496Y181742D01*
X358647Y207893D01*
X358700Y207967D01*
X358759Y208036D01*
X358771Y208067D01*
X358790Y208093D01*
X358817Y208180D01*
X358851Y208265D01*
X358856Y208305D01*
X358862Y208328D01*
X358862Y208360D01*
X358870Y208431D01*
X358870Y212748D01*
X358855Y212838D01*
X358848Y212929D01*
X358835Y212959D01*
X358830Y212991D01*
X358787Y213071D01*
X358751Y213155D01*
X358726Y213187D01*
X358715Y213208D01*
X358691Y213230D01*
X358647Y213286D01*
X355850Y216083D01*
X355850Y220479D01*
X358958Y223588D01*
X363354Y223588D01*
X366463Y220479D01*
X366463Y216083D01*
X363666Y213286D01*
X363613Y213212D01*
X363553Y213143D01*
X363541Y213113D01*
X363522Y213086D01*
X363496Y212999D01*
X363461Y212915D01*
X363457Y212874D01*
X363450Y212851D01*
X363451Y212819D01*
X363443Y212748D01*
X363443Y206222D01*
X335730Y178508D01*
X335677Y178434D01*
X335617Y178365D01*
X335605Y178335D01*
X335586Y178309D01*
X335559Y178222D01*
X335525Y178137D01*
X335521Y178096D01*
X335514Y178073D01*
X335515Y178041D01*
X335507Y177970D01*
X335507Y174014D01*
X332398Y170906D01*
X328002Y170906D01*
G37*
%LPD*%
%LPC*%
G36*
X248627Y180431D02*
X248627Y180431D01*
X245518Y183539D01*
X245518Y187936D01*
X248627Y191044D01*
X252582Y191044D01*
X252673Y191059D01*
X252763Y191066D01*
X252793Y191079D01*
X252825Y191084D01*
X252906Y191127D01*
X252990Y191162D01*
X253022Y191188D01*
X253043Y191199D01*
X253065Y191222D01*
X253121Y191267D01*
X282422Y220568D01*
X282598Y220568D01*
X282688Y220583D01*
X282779Y220590D01*
X282809Y220602D01*
X282841Y220608D01*
X282921Y220650D01*
X283005Y220686D01*
X283037Y220712D01*
X283058Y220723D01*
X283080Y220746D01*
X283136Y220791D01*
X285933Y223588D01*
X290329Y223588D01*
X293438Y220479D01*
X293438Y216083D01*
X290329Y212975D01*
X285933Y212975D01*
X284153Y214755D01*
X284137Y214766D01*
X284124Y214782D01*
X284037Y214838D01*
X283953Y214898D01*
X283934Y214904D01*
X283917Y214915D01*
X283817Y214940D01*
X283718Y214971D01*
X283698Y214970D01*
X283679Y214975D01*
X283576Y214967D01*
X283472Y214964D01*
X283453Y214957D01*
X283434Y214956D01*
X283339Y214916D01*
X283241Y214880D01*
X283225Y214867D01*
X283207Y214860D01*
X283076Y214755D01*
X256355Y188033D01*
X256307Y187967D01*
X256300Y187960D01*
X256298Y187956D01*
X256242Y187890D01*
X256230Y187860D01*
X256211Y187834D01*
X256184Y187747D01*
X256150Y187662D01*
X256146Y187621D01*
X256139Y187598D01*
X256140Y187566D01*
X256132Y187495D01*
X256132Y183539D01*
X253023Y180431D01*
X248627Y180431D01*
G37*
%LPD*%
%LPC*%
G36*
X433323Y82803D02*
X433323Y82803D01*
X433323Y98785D01*
X434161Y98653D01*
X435670Y98162D01*
X437083Y97442D01*
X438367Y96509D01*
X439489Y95387D01*
X440422Y94103D01*
X441142Y92690D01*
X441633Y91181D01*
X441881Y89613D01*
X441881Y82803D01*
X433323Y82803D01*
G37*
%LPD*%
%LPC*%
G36*
X484123Y82803D02*
X484123Y82803D01*
X484123Y98785D01*
X484961Y98653D01*
X486470Y98162D01*
X487883Y97442D01*
X489167Y96509D01*
X490289Y95387D01*
X491222Y94103D01*
X491942Y92690D01*
X492433Y91181D01*
X492681Y89613D01*
X492681Y82803D01*
X484123Y82803D01*
G37*
%LPD*%
%LPC*%
G36*
X484123Y79757D02*
X484123Y79757D01*
X492681Y79757D01*
X492681Y72947D01*
X492433Y71379D01*
X491942Y69870D01*
X491222Y68457D01*
X490289Y67173D01*
X489167Y66051D01*
X487883Y65118D01*
X486470Y64398D01*
X484961Y63907D01*
X484123Y63775D01*
X484123Y79757D01*
G37*
%LPD*%
%LPC*%
G36*
X433323Y79757D02*
X433323Y79757D01*
X441881Y79757D01*
X441881Y72947D01*
X441633Y71379D01*
X441142Y69870D01*
X440422Y68457D01*
X439489Y67173D01*
X438367Y66051D01*
X437083Y65118D01*
X435670Y64398D01*
X434161Y63907D01*
X433323Y63775D01*
X433323Y79757D01*
G37*
%LPD*%
%LPC*%
G36*
X421719Y82803D02*
X421719Y82803D01*
X421719Y89613D01*
X421967Y91181D01*
X422458Y92690D01*
X423178Y94103D01*
X424111Y95387D01*
X425233Y96509D01*
X426517Y97442D01*
X427930Y98162D01*
X429439Y98653D01*
X430277Y98785D01*
X430277Y82803D01*
X421719Y82803D01*
G37*
%LPD*%
%LPC*%
G36*
X472519Y82803D02*
X472519Y82803D01*
X472519Y89613D01*
X472767Y91181D01*
X473258Y92690D01*
X473978Y94103D01*
X474911Y95387D01*
X476033Y96509D01*
X477317Y97442D01*
X478730Y98162D01*
X480239Y98653D01*
X481077Y98785D01*
X481077Y82803D01*
X472519Y82803D01*
G37*
%LPD*%
%LPC*%
G36*
X429439Y63907D02*
X429439Y63907D01*
X427930Y64398D01*
X426517Y65118D01*
X425233Y66051D01*
X424111Y67173D01*
X423178Y68457D01*
X422458Y69870D01*
X421967Y71379D01*
X421719Y72947D01*
X421719Y79757D01*
X430277Y79757D01*
X430277Y63775D01*
X429439Y63907D01*
G37*
%LPD*%
%LPC*%
G36*
X480239Y63907D02*
X480239Y63907D01*
X478730Y64398D01*
X477317Y65118D01*
X476033Y66051D01*
X474911Y67173D01*
X473978Y68457D01*
X473258Y69870D01*
X472767Y71379D01*
X472519Y72947D01*
X472519Y79757D01*
X481077Y79757D01*
X481077Y63775D01*
X480239Y63907D01*
G37*
%LPD*%
%LPC*%
G36*
X431799Y81279D02*
X431799Y81279D01*
X431799Y81281D01*
X431801Y81281D01*
X431801Y81279D01*
X431799Y81279D01*
G37*
%LPD*%
%LPC*%
G36*
X482599Y81279D02*
X482599Y81279D01*
X482599Y81281D01*
X482601Y81281D01*
X482601Y81279D01*
X482599Y81279D01*
G37*
%LPD*%
D10*
X192088Y255985D02*
X192088Y271065D01*
X217488Y271065D02*
X217488Y255985D01*
X192088Y322660D02*
X192088Y337740D01*
X217488Y337740D02*
X217488Y322660D01*
X192088Y389335D02*
X192088Y404415D01*
X217488Y404415D02*
X217488Y389335D01*
X192088Y456010D02*
X192088Y471090D01*
X217488Y471090D02*
X217488Y456010D01*
X192088Y522685D02*
X192088Y537765D01*
X217488Y537765D02*
X217488Y522685D01*
X192088Y589360D02*
X192088Y604440D01*
X217488Y604440D02*
X217488Y589360D01*
X192088Y656035D02*
X192088Y671115D01*
X217488Y671115D02*
X217488Y656035D01*
X192088Y722710D02*
X192088Y737790D01*
X217488Y737790D02*
X217488Y722710D01*
X265113Y271065D02*
X265113Y255985D01*
X290513Y255985D02*
X290513Y271065D01*
X265113Y322660D02*
X265113Y337740D01*
X290513Y337740D02*
X290513Y322660D01*
X265113Y389335D02*
X265113Y404415D01*
X290513Y404415D02*
X290513Y389335D01*
X265113Y456010D02*
X265113Y471090D01*
X290513Y471090D02*
X290513Y456010D01*
X265113Y522685D02*
X265113Y537765D01*
X290513Y537765D02*
X290513Y522685D01*
X265113Y589360D02*
X265113Y604440D01*
X290513Y604440D02*
X290513Y589360D01*
X265113Y656035D02*
X265113Y671115D01*
X290513Y671115D02*
X290513Y656035D01*
X265113Y722710D02*
X265113Y737790D01*
X290513Y737790D02*
X290513Y722710D01*
X338138Y271065D02*
X338138Y255985D01*
X363538Y255985D02*
X363538Y271065D01*
X338138Y322660D02*
X338138Y337740D01*
X363538Y337740D02*
X363538Y322660D01*
X338138Y389335D02*
X338138Y404415D01*
X363538Y404415D02*
X363538Y389335D01*
X338138Y456010D02*
X338138Y471090D01*
X363538Y471090D02*
X363538Y456010D01*
X338138Y522685D02*
X338138Y537765D01*
X363538Y537765D02*
X363538Y522685D01*
X338138Y589360D02*
X338138Y604440D01*
X363538Y604440D02*
X363538Y589360D01*
X338138Y656035D02*
X338138Y671115D01*
X363538Y671115D02*
X363538Y656035D01*
X338138Y722710D02*
X338138Y737790D01*
X363538Y737790D02*
X363538Y722710D01*
X411163Y271065D02*
X411163Y255985D01*
X436563Y255985D02*
X436563Y271065D01*
X411163Y322660D02*
X411163Y337740D01*
X436563Y337740D02*
X436563Y322660D01*
X411163Y389335D02*
X411163Y404415D01*
X436563Y404415D02*
X436563Y389335D01*
X411163Y456010D02*
X411163Y471090D01*
X436563Y471090D02*
X436563Y456010D01*
X411163Y522685D02*
X411163Y537765D01*
X436563Y537765D02*
X436563Y522685D01*
X411163Y589360D02*
X411163Y604440D01*
X436563Y604440D02*
X436563Y589360D01*
X411163Y656035D02*
X411163Y671115D01*
X436563Y671115D02*
X436563Y656035D01*
X411163Y722710D02*
X411163Y737790D01*
X436563Y737790D02*
X436563Y722710D01*
X484188Y271065D02*
X484188Y255985D01*
X509588Y255985D02*
X509588Y271065D01*
X484188Y322660D02*
X484188Y337740D01*
X509588Y337740D02*
X509588Y322660D01*
X484188Y389335D02*
X484188Y404415D01*
X509588Y404415D02*
X509588Y389335D01*
X484188Y456010D02*
X484188Y471090D01*
X509588Y471090D02*
X509588Y456010D01*
X484188Y522685D02*
X484188Y537765D01*
X509588Y537765D02*
X509588Y522685D01*
X484188Y589360D02*
X484188Y604440D01*
X509588Y604440D02*
X509588Y589360D01*
X484188Y656035D02*
X484188Y671115D01*
X509588Y671115D02*
X509588Y656035D01*
X484188Y722710D02*
X484188Y737790D01*
X509588Y737790D02*
X509588Y722710D01*
X557213Y271065D02*
X557213Y255985D01*
X582613Y255985D02*
X582613Y271065D01*
X557213Y322660D02*
X557213Y337740D01*
X582613Y337740D02*
X582613Y322660D01*
X557213Y389335D02*
X557213Y404415D01*
X582613Y404415D02*
X582613Y389335D01*
X557213Y456010D02*
X557213Y471090D01*
X582613Y471090D02*
X582613Y456010D01*
X557213Y522685D02*
X557213Y537765D01*
X582613Y537765D02*
X582613Y522685D01*
X557213Y589360D02*
X557213Y604440D01*
X582613Y604440D02*
X582613Y589360D01*
X557213Y656035D02*
X557213Y671115D01*
X582613Y671115D02*
X582613Y656035D01*
X557213Y722710D02*
X557213Y737790D01*
X582613Y737790D02*
X582613Y722710D01*
X630238Y271065D02*
X630238Y255985D01*
X655638Y255985D02*
X655638Y271065D01*
X630238Y322660D02*
X630238Y337740D01*
X655638Y337740D02*
X655638Y322660D01*
X630238Y389335D02*
X630238Y404415D01*
X655638Y404415D02*
X655638Y389335D01*
X630238Y456010D02*
X630238Y471090D01*
X655638Y471090D02*
X655638Y456010D01*
X630238Y522685D02*
X630238Y537765D01*
X655638Y537765D02*
X655638Y522685D01*
X630238Y589360D02*
X630238Y604440D01*
X655638Y604440D02*
X655638Y589360D01*
X630238Y656035D02*
X630238Y671115D01*
X655638Y671115D02*
X655638Y656035D01*
X630238Y722710D02*
X630238Y737790D01*
X655638Y737790D02*
X655638Y722710D01*
X703263Y271065D02*
X703263Y255985D01*
X728663Y255985D02*
X728663Y271065D01*
X703263Y322660D02*
X703263Y337740D01*
X728663Y337740D02*
X728663Y322660D01*
X703263Y389335D02*
X703263Y404415D01*
X728663Y404415D02*
X728663Y389335D01*
X703263Y456010D02*
X703263Y471090D01*
X728663Y471090D02*
X728663Y456010D01*
X703263Y522685D02*
X703263Y537765D01*
X728663Y537765D02*
X728663Y522685D01*
X703263Y589360D02*
X703263Y604440D01*
X728663Y604440D02*
X728663Y589360D01*
X703263Y656035D02*
X703263Y671115D01*
X728663Y671115D02*
X728663Y656035D01*
X703263Y722710D02*
X703263Y737790D01*
X728663Y737790D02*
X728663Y722710D01*
X304800Y88820D02*
X304800Y73740D01*
X330200Y73740D02*
X330200Y88820D01*
X355600Y88820D02*
X355600Y73740D01*
X381000Y73740D02*
X381000Y88820D01*
X406400Y88820D02*
X406400Y73740D01*
X431800Y73740D02*
X431800Y88820D01*
X457200Y88820D02*
X457200Y73740D01*
X482600Y73740D02*
X482600Y88820D01*
X508000Y88820D02*
X508000Y73740D01*
D11*
X25400Y787400D03*
X787400Y787400D03*
X787400Y25400D03*
X25400Y25400D03*
D12*
X239713Y223838D03*
D13*
X217488Y246063D01*
X217488Y263525D01*
X217488Y330200D01*
X217488Y396875D01*
X217488Y463550D01*
X217488Y530225D01*
X217488Y596900D01*
X217488Y663575D01*
X217488Y730250D01*
D12*
X112149Y238125D03*
D14*
X112149Y186699D01*
X108012Y182563D01*
D12*
X108012Y182563D03*
X104493Y307975D03*
X102981Y174625D03*
D14*
X101944Y305426D02*
X104493Y307975D01*
X102981Y179013D02*
X102981Y174625D01*
X102981Y179013D02*
X101944Y180049D01*
X101944Y305426D01*
D12*
X98425Y374650D03*
X95876Y181601D03*
D14*
X95250Y182227D02*
X95250Y371475D01*
X95250Y182227D02*
X95876Y181601D01*
X95250Y371475D02*
X98425Y374650D01*
D12*
X90947Y441325D03*
X90000Y174625D03*
D14*
X87772Y438150D02*
X90947Y441325D01*
X87772Y438150D02*
X87772Y189249D01*
X89488Y187533D01*
X89488Y175137D02*
X90000Y174625D01*
X89488Y175137D02*
X89488Y187533D01*
D12*
X81704Y506413D03*
D14*
X80117Y504825D01*
X80117Y186736D01*
X83420Y183432D02*
X83420Y181845D01*
X83420Y183432D02*
X80117Y186736D01*
D12*
X83420Y181845D03*
X74049Y572332D03*
X77864Y174549D03*
D14*
X72461Y570744D02*
X74049Y572332D01*
X72461Y570744D02*
X72461Y188685D01*
X77352Y183794D01*
X77352Y175061D02*
X77864Y174549D01*
X77352Y175061D02*
X77352Y183794D01*
D12*
X66393Y642938D03*
D14*
X64806Y641350D01*
X64806Y187759D01*
X70720Y181845D01*
D12*
X70720Y181845D03*
X57150Y711200D03*
D14*
X57150Y180975D01*
X63500Y174625D01*
D12*
X63500Y174625D03*
X312738Y223838D03*
D13*
X290513Y246063D01*
X290513Y263525D01*
X290513Y330200D01*
X290513Y396875D01*
X290513Y463550D01*
X290513Y530225D01*
X290513Y596900D01*
X290513Y663575D01*
X290513Y730250D01*
D12*
X250825Y185738D03*
D14*
X283369Y218281D01*
X288131Y218281D01*
D12*
X288131Y218281D03*
X385763Y223838D03*
D13*
X363538Y246063D01*
X363538Y263525D01*
X363538Y330200D01*
X363538Y396875D01*
X363538Y463550D01*
X363538Y530225D01*
X363538Y596900D01*
X363538Y663575D01*
X363538Y730250D01*
D12*
X330200Y176213D03*
D14*
X361156Y207169D02*
X361156Y218281D01*
D12*
X361156Y218281D03*
D14*
X361156Y207169D02*
X330200Y176213D01*
D12*
X458788Y223838D03*
D13*
X436563Y246063D01*
X436563Y263525D01*
X436563Y330200D01*
X436563Y396875D01*
X436563Y463550D01*
X436563Y530225D01*
X436563Y596900D01*
X436563Y663575D01*
X436563Y730250D01*
D12*
X342900Y166688D03*
D14*
X382588Y166688D02*
X434181Y218281D01*
D12*
X434181Y218281D03*
D14*
X382588Y166688D02*
X342900Y166688D01*
D12*
X531813Y223838D03*
D13*
X509588Y246063D01*
X509588Y263525D01*
X509588Y322263D01*
X508000Y323850D01*
X508000Y328613D01*
X509588Y330200D01*
X509588Y396875D01*
X509588Y463550D01*
X509588Y530225D01*
X509588Y596900D01*
X509588Y663575D01*
X509588Y723900D01*
X511175Y725488D01*
X511175Y728663D01*
X509588Y730250D01*
D12*
X604838Y223838D03*
D13*
X582613Y246063D01*
X582613Y263525D01*
X582613Y330200D01*
X582613Y396875D01*
X582613Y463550D01*
X582613Y530225D01*
X582613Y596900D01*
X582613Y663575D01*
X582613Y730250D01*
D12*
X677863Y223838D03*
D13*
X655638Y246063D01*
X655638Y263525D01*
X655638Y330200D01*
X655638Y396875D01*
X655638Y463550D01*
X655638Y530225D01*
X655638Y596900D01*
X655638Y663575D01*
X655638Y730250D01*
X728663Y730250D02*
X728663Y663575D01*
X728663Y596900D01*
X728663Y530225D01*
X728663Y463550D01*
X728663Y396875D01*
X728663Y330200D01*
X728663Y263525D01*
D12*
X477838Y157163D03*
D14*
X478863Y157163D01*
X506413Y184713D02*
X506413Y218281D01*
D12*
X506413Y218281D03*
D14*
X506413Y184713D02*
X478863Y157163D01*
D12*
X487363Y147638D03*
D14*
X509588Y147638D02*
X580231Y218281D01*
D12*
X580231Y218281D03*
D14*
X509588Y147638D02*
X487363Y147638D01*
D12*
X496888Y138113D03*
D14*
X573088Y138113D02*
X653256Y218281D01*
D12*
X653256Y218281D03*
D14*
X573088Y138113D02*
X496888Y138113D01*
D12*
X506413Y128870D03*
D14*
X636076Y128870D02*
X725488Y218281D01*
D12*
X725488Y218281D03*
D14*
X636076Y128870D02*
X506413Y128870D01*
D12*
X126339Y71156D03*
D14*
X126339Y71466D02*
X129359Y74486D01*
X126339Y71466D02*
X126339Y71156D01*
X266847Y74486D02*
X282943Y58390D01*
X266847Y74486D02*
X129359Y74486D01*
X381000Y70168D02*
X381000Y81280D01*
X381000Y70168D02*
X369222Y58390D01*
X282943Y58390D01*
D12*
X115888Y71438D03*
D14*
X263996Y68263D02*
X280092Y52167D01*
X393162Y52167D01*
X406400Y65405D01*
X406400Y81280D01*
X115888Y71438D02*
X115888Y68263D01*
X122238Y61913D01*
X130175Y61913D01*
X136525Y68263D01*
X263996Y68263D01*
D12*
X123825Y244475D03*
X123825Y311150D03*
X123825Y377825D03*
X123825Y444500D03*
X123825Y511175D03*
X123825Y577850D03*
X123825Y644525D03*
X123825Y711200D03*
D13*
X123825Y644525D01*
X123825Y577850D01*
X123825Y511175D01*
X123825Y444500D01*
X123825Y377825D01*
X123825Y311150D01*
X123825Y244475D01*
X508000Y95250D02*
X508000Y81280D01*
X251996Y116304D02*
X123825Y244475D01*
X251996Y116304D02*
X486946Y116304D01*
X508000Y95250D01*
D12*
X109538Y60325D03*
D14*
X112713Y60325D01*
X117475Y55563D01*
X249238Y55563D02*
X255588Y61913D01*
X249238Y55563D02*
X117475Y55563D01*
D12*
X255588Y61913D03*
X122238Y185738D03*
D14*
X204788Y103188D01*
X255588Y103188D01*
D12*
X255588Y103188D03*
D14*
X308293Y103188D02*
X330200Y81280D01*
X308293Y103188D02*
X255588Y103188D01*
D12*
X115981Y174625D03*
D14*
X115981Y150813D02*
X179890Y86904D01*
X115981Y150813D02*
X115981Y174625D01*
X179890Y86904D02*
X255588Y86904D01*
D12*
X255588Y86904D03*
D14*
X261211Y81280D02*
X304800Y81280D01*
X261211Y81280D02*
X255588Y86904D01*
M02*
