G04 EAGLE Gerber RS-274X export*
G75*
%MOMM*%
%FSLAX34Y34*%
%LPD*%
%IN*%
%IPPOS*%
%AMOC8*
5,1,8,0,0,1.08239X$1,22.5*%
G01*
%ADD10C,0.254000*%


D10*
X0Y25400D02*
X97Y23186D01*
X386Y20989D01*
X865Y18826D01*
X1532Y16713D01*
X2380Y14666D01*
X3403Y12700D01*
X4594Y10831D01*
X5942Y9073D01*
X7440Y7440D01*
X9073Y5942D01*
X10831Y4594D01*
X12700Y3403D01*
X14666Y2380D01*
X16713Y1532D01*
X18826Y865D01*
X20989Y386D01*
X23186Y97D01*
X25400Y0D01*
X787400Y0D01*
X789614Y97D01*
X791811Y386D01*
X793974Y865D01*
X796087Y1532D01*
X798135Y2380D01*
X800100Y3403D01*
X801969Y4594D01*
X803727Y5942D01*
X805361Y7440D01*
X806858Y9073D01*
X808206Y10831D01*
X809397Y12700D01*
X810420Y14666D01*
X811268Y16713D01*
X811935Y18826D01*
X812414Y20989D01*
X812703Y23186D01*
X812800Y25400D01*
X812800Y787400D01*
X812703Y789614D01*
X812414Y791811D01*
X811935Y793974D01*
X811268Y796087D01*
X810420Y798135D01*
X809397Y800100D01*
X808206Y801969D01*
X806858Y803727D01*
X805361Y805361D01*
X803727Y806858D01*
X801969Y808206D01*
X800100Y809397D01*
X798135Y810420D01*
X796087Y811268D01*
X793974Y811935D01*
X791811Y812414D01*
X789614Y812703D01*
X787400Y812800D01*
X25400Y812800D01*
X23186Y812703D01*
X20989Y812414D01*
X18826Y811935D01*
X16713Y811268D01*
X14666Y810420D01*
X12700Y809397D01*
X10831Y808206D01*
X9073Y806858D01*
X7440Y805361D01*
X5942Y803727D01*
X4594Y801969D01*
X3403Y800100D01*
X2380Y798135D01*
X1532Y796087D01*
X865Y793974D01*
X386Y791811D01*
X97Y789614D01*
X0Y787400D01*
X0Y25400D01*
M02*
