G04 EAGLE Gerber RS-274X export*
G75*
%MOMM*%
%FSLAX34Y34*%
%LPD*%
%INSoldermask Bottom*%
%IPPOS*%
%AMOC8*
5,1,8,0,0,1.08239X$1,22.5*%
G01*
%ADD10C,1.711200*%
%ADD11C,4.419200*%
%ADD12C,0.959600*%


D10*
X192088Y255985D02*
X192088Y271065D01*
X217488Y271065D02*
X217488Y255985D01*
X192088Y322660D02*
X192088Y337740D01*
X217488Y337740D02*
X217488Y322660D01*
X192088Y389335D02*
X192088Y404415D01*
X217488Y404415D02*
X217488Y389335D01*
X192088Y456010D02*
X192088Y471090D01*
X217488Y471090D02*
X217488Y456010D01*
X192088Y522685D02*
X192088Y537765D01*
X217488Y537765D02*
X217488Y522685D01*
X192088Y589360D02*
X192088Y604440D01*
X217488Y604440D02*
X217488Y589360D01*
X192088Y656035D02*
X192088Y671115D01*
X217488Y671115D02*
X217488Y656035D01*
X192088Y722710D02*
X192088Y737790D01*
X217488Y737790D02*
X217488Y722710D01*
X265113Y271065D02*
X265113Y255985D01*
X290513Y255985D02*
X290513Y271065D01*
X265113Y322660D02*
X265113Y337740D01*
X290513Y337740D02*
X290513Y322660D01*
X265113Y389335D02*
X265113Y404415D01*
X290513Y404415D02*
X290513Y389335D01*
X265113Y456010D02*
X265113Y471090D01*
X290513Y471090D02*
X290513Y456010D01*
X265113Y522685D02*
X265113Y537765D01*
X290513Y537765D02*
X290513Y522685D01*
X265113Y589360D02*
X265113Y604440D01*
X290513Y604440D02*
X290513Y589360D01*
X265113Y656035D02*
X265113Y671115D01*
X290513Y671115D02*
X290513Y656035D01*
X265113Y722710D02*
X265113Y737790D01*
X290513Y737790D02*
X290513Y722710D01*
X338138Y271065D02*
X338138Y255985D01*
X363538Y255985D02*
X363538Y271065D01*
X338138Y322660D02*
X338138Y337740D01*
X363538Y337740D02*
X363538Y322660D01*
X338138Y389335D02*
X338138Y404415D01*
X363538Y404415D02*
X363538Y389335D01*
X338138Y456010D02*
X338138Y471090D01*
X363538Y471090D02*
X363538Y456010D01*
X338138Y522685D02*
X338138Y537765D01*
X363538Y537765D02*
X363538Y522685D01*
X338138Y589360D02*
X338138Y604440D01*
X363538Y604440D02*
X363538Y589360D01*
X338138Y656035D02*
X338138Y671115D01*
X363538Y671115D02*
X363538Y656035D01*
X338138Y722710D02*
X338138Y737790D01*
X363538Y737790D02*
X363538Y722710D01*
X411163Y271065D02*
X411163Y255985D01*
X436563Y255985D02*
X436563Y271065D01*
X411163Y322660D02*
X411163Y337740D01*
X436563Y337740D02*
X436563Y322660D01*
X411163Y389335D02*
X411163Y404415D01*
X436563Y404415D02*
X436563Y389335D01*
X411163Y456010D02*
X411163Y471090D01*
X436563Y471090D02*
X436563Y456010D01*
X411163Y522685D02*
X411163Y537765D01*
X436563Y537765D02*
X436563Y522685D01*
X411163Y589360D02*
X411163Y604440D01*
X436563Y604440D02*
X436563Y589360D01*
X411163Y656035D02*
X411163Y671115D01*
X436563Y671115D02*
X436563Y656035D01*
X411163Y722710D02*
X411163Y737790D01*
X436563Y737790D02*
X436563Y722710D01*
X484188Y271065D02*
X484188Y255985D01*
X509588Y255985D02*
X509588Y271065D01*
X484188Y322660D02*
X484188Y337740D01*
X509588Y337740D02*
X509588Y322660D01*
X484188Y389335D02*
X484188Y404415D01*
X509588Y404415D02*
X509588Y389335D01*
X484188Y456010D02*
X484188Y471090D01*
X509588Y471090D02*
X509588Y456010D01*
X484188Y522685D02*
X484188Y537765D01*
X509588Y537765D02*
X509588Y522685D01*
X484188Y589360D02*
X484188Y604440D01*
X509588Y604440D02*
X509588Y589360D01*
X484188Y656035D02*
X484188Y671115D01*
X509588Y671115D02*
X509588Y656035D01*
X484188Y722710D02*
X484188Y737790D01*
X509588Y737790D02*
X509588Y722710D01*
X557213Y271065D02*
X557213Y255985D01*
X582613Y255985D02*
X582613Y271065D01*
X557213Y322660D02*
X557213Y337740D01*
X582613Y337740D02*
X582613Y322660D01*
X557213Y389335D02*
X557213Y404415D01*
X582613Y404415D02*
X582613Y389335D01*
X557213Y456010D02*
X557213Y471090D01*
X582613Y471090D02*
X582613Y456010D01*
X557213Y522685D02*
X557213Y537765D01*
X582613Y537765D02*
X582613Y522685D01*
X557213Y589360D02*
X557213Y604440D01*
X582613Y604440D02*
X582613Y589360D01*
X557213Y656035D02*
X557213Y671115D01*
X582613Y671115D02*
X582613Y656035D01*
X557213Y722710D02*
X557213Y737790D01*
X582613Y737790D02*
X582613Y722710D01*
X630238Y271065D02*
X630238Y255985D01*
X655638Y255985D02*
X655638Y271065D01*
X630238Y322660D02*
X630238Y337740D01*
X655638Y337740D02*
X655638Y322660D01*
X630238Y389335D02*
X630238Y404415D01*
X655638Y404415D02*
X655638Y389335D01*
X630238Y456010D02*
X630238Y471090D01*
X655638Y471090D02*
X655638Y456010D01*
X630238Y522685D02*
X630238Y537765D01*
X655638Y537765D02*
X655638Y522685D01*
X630238Y589360D02*
X630238Y604440D01*
X655638Y604440D02*
X655638Y589360D01*
X630238Y656035D02*
X630238Y671115D01*
X655638Y671115D02*
X655638Y656035D01*
X630238Y722710D02*
X630238Y737790D01*
X655638Y737790D02*
X655638Y722710D01*
X703263Y271065D02*
X703263Y255985D01*
X728663Y255985D02*
X728663Y271065D01*
X703263Y322660D02*
X703263Y337740D01*
X728663Y337740D02*
X728663Y322660D01*
X703263Y389335D02*
X703263Y404415D01*
X728663Y404415D02*
X728663Y389335D01*
X703263Y456010D02*
X703263Y471090D01*
X728663Y471090D02*
X728663Y456010D01*
X703263Y522685D02*
X703263Y537765D01*
X728663Y537765D02*
X728663Y522685D01*
X703263Y589360D02*
X703263Y604440D01*
X728663Y604440D02*
X728663Y589360D01*
X703263Y656035D02*
X703263Y671115D01*
X728663Y671115D02*
X728663Y656035D01*
X703263Y722710D02*
X703263Y737790D01*
X728663Y737790D02*
X728663Y722710D01*
X304800Y88820D02*
X304800Y73740D01*
X330200Y73740D02*
X330200Y88820D01*
X355600Y88820D02*
X355600Y73740D01*
X381000Y73740D02*
X381000Y88820D01*
X406400Y88820D02*
X406400Y73740D01*
X431800Y73740D02*
X431800Y88820D01*
X457200Y88820D02*
X457200Y73740D01*
X482600Y73740D02*
X482600Y88820D01*
X508000Y88820D02*
X508000Y73740D01*
D11*
X25400Y787400D03*
X787400Y787400D03*
X787400Y25400D03*
X25400Y25400D03*
D12*
X239713Y223838D03*
X112149Y238125D03*
X108012Y182563D03*
X104493Y307975D03*
X102981Y174625D03*
X98425Y374650D03*
X95876Y181601D03*
X90947Y441325D03*
X90000Y174625D03*
X81704Y506413D03*
X83420Y181845D03*
X74049Y572332D03*
X77864Y174549D03*
X66393Y642938D03*
X70720Y181845D03*
X57150Y711200D03*
X63500Y174625D03*
X312738Y223838D03*
X250825Y185738D03*
X288131Y218281D03*
X385763Y223838D03*
X330200Y176213D03*
X361156Y218281D03*
X458788Y223838D03*
X342900Y166688D03*
X434181Y218281D03*
X531813Y223838D03*
X604838Y223838D03*
X677863Y223838D03*
X477838Y157163D03*
X506413Y218281D03*
X487363Y147638D03*
X580231Y218281D03*
X496888Y138113D03*
X653256Y218281D03*
X506413Y128870D03*
X725488Y218281D03*
X126339Y71156D03*
X115888Y71438D03*
X123825Y244475D03*
X123825Y311150D03*
X123825Y377825D03*
X123825Y444500D03*
X123825Y511175D03*
X123825Y577850D03*
X123825Y644525D03*
X123825Y711200D03*
X109538Y60325D03*
X255588Y61913D03*
X122238Y185738D03*
X255588Y103188D03*
X115981Y174625D03*
X255588Y86904D03*
M02*
